amarna.glyphspackage
{
glyphname = exclam;
layers = (
{
layerId = m002;
shapes = (
{
pos = (30,0);
ref = dot;
},
{
closed = 1;
nodes = (
(115,200,l),
(175,200,l),
(195,700,l),
(95,700,l)
);
}
);
width = 290;
},
{
layerId = m003;
shapes = (
{
pos = (-28,0);
ref = dot;
},
{
closed = 1;
nodes = (
(81,210,l),
(131,210,l),
(230,700,l),
(131,700,l)
);
}
);
width = 231;
},
{
layerId = m006;
shapes = (
{
pos = (-31,0);
ref = dot;
},
{
closed = 1;
nodes = (
(67,200,l),
(93,200,l),
(98,700,l),
(62,700,l)
);
}
);
width = 170;
},
{
layerId = m007;
shapes = (
{
pos = (-80,0);
ref = dot;
},
{
closed = 1;
nodes = (
(46,200,l),
(72,200,l),
(148,700,l),
(112,700,l)
);
}
);
width = 170;
},
{
layerId = m008;
shapes = (
{
ref = dot;
},
{
closed = 1;
nodes = (
(75,200,l),
(155,200,l),
(175,700,l),
(55,700,l)
);
}
);
width = 230;
},
{
layerId = m009;
shapes = (
{
pos = (-25,0);
ref = dot;
},
{
closed = 1;
nodes = (
(68,200,l),
(148,200,l),
(238,700,l),
(118,700,l)
);
}
);
width = 230;
}
);
unicode = 33;
}
{
glyphname = dollar;
layers = (
{
layerId = m002;
shapes = (
{
closed = 1;
nodes = (
(340,669,l),
(340,795,l),
(270,795,l),
(270,669,l)
);
},
{
ref = S;
},
{
closed = 1;
nodes = (
(270,28,l),
(270,-115,l),
(340,-115,l),
(340,28,l)
);
}
);
width = 581;
},
{
layerId = m003;
shapes = (
{
closed = 1;
nodes = (
(410,669,l),
(440,795,l),
(360,795,l),
(330,669,l)
);
},
{
ref = S;
},
{
closed = 1;
nodes = (
(190,28,l),
(160,-115,l),
(240,-115,l),
(270,28,l)
);
}
);
width = 581;
},
{
layerId = m006;
shapes = (
{
closed = 1;
nodes = (
(320,689,l),
(330,795,l),
(290,795,l),
(290,689,l)
);
},
{
ref = S;
},
{
closed = 1;
nodes = (
(290,8,l),
(280,-115,l),
(320,-115,l),
(320,8,l)
);
}
);
width = 581;
},
{
layerId = m007;
shapes = (
{
closed = 1;
nodes = (
(390,689,l),
(400,795,l),
(360,795,l),
(360,689,l)
);
},
{
ref = S;
},
{
closed = 1;
nodes = (
(220,8,l),
(210,-115,l),
(250,-115,l),
(250,8,l)
);
}
);
width = 581;
},
{
layerId = m008;
shapes = (
{
closed = 1;
nodes = (
(340,669,l),
(340,795,l),
(250,795,l),
(250,669,l)
);
},
{
ref = S;
},
{
closed = 1;
nodes = (
(250,28,l),
(250,-115,l),
(340,-115,l),
(340,28,l)
);
}
);
width = 581;
},
{
layerId = m009;
shapes = (
{
closed = 1;
nodes = (
(399,669,l),
(427,795,l),
(327,795,l),
(309,669,l)
);
},
{
ref = S;
},
{
closed = 1;
nodes = (
(219,28,l),
(189,-115,l),
(289,-115,l),
(309,28,l)
);
}
);
width = 581;
}
);
unicode = 36;
}
{
glyphname = percent;
layers = (
{
layerId = m002;
shapes = (
{
closed = 1;
nodes = (
(651,675,l),
(599,715,l),
(45,25,l),
(97,-15,l)
);
},
{
closed = 1;
nodes = (
(555,-15,o),
(628,52,o),
(628,129,cs),
(628,194,o),
(581,265,o),
(493,265,cs),
(415,265,o),
(344,198,o),
(344,121,cs),
(344,54,o),
(391,-15,o),
(479,-15,cs)
);
},
{
closed = 1;
nodes = (
(560,63,o),
(531,48,o),
(489,48,cs),
(437,48,o),
(412,95,o),
(412,137,cs),
(412,187,o),
(441,203,o),
(483,203,cs),
(535,203,o),
(560,155,o),
(560,112,cs)
);
},
{
closed = 1;
nodes = (
(141,715,o),
(68,648,o),
(68,571,cs),
(68,506,o),
(115,435,o),
(203,435,cs),
(281,435,o),
(352,502,o),
(352,579,cs),
(352,646,o),
(305,715,o),
(217,715,cs)
);
},
{
closed = 1;
nodes = (
(137,637,o),
(165,653,o),
(207,653,cs),
(259,653,o),
(283,605,o),
(283,563,cs),
(283,513,o),
(255,498,o),
(213,498,cs),
(161,498,o),
(137,545,o),
(137,588,cs)
);
}
);
width = 696;
},
{
layerId = m003;
shapes = (
{
closed = 1;
nodes = (
(651,675,l),
(599,715,l),
(45,25,l),
(97,-15,l)
);
},
{
closed = 1;
nodes = (
(555,-15,o),
(628,52,o),
(628,129,cs),
(628,194,o),
(581,265,o),
(493,265,cs),
(415,265,o),
(344,198,o),
(344,121,cs),
(344,54,o),
(391,-15,o),
(479,-15,cs)
);
},
{
closed = 1;
nodes = (
(560,63,o),
(531,48,o),
(489,48,cs),
(437,48,o),
(412,95,o),
(412,137,cs),
(412,187,o),
(441,203,o),
(483,203,cs),
(535,203,o),
(560,155,o),
(560,112,cs)
);
},
{
closed = 1;
nodes = (
(141,715,o),
(68,648,o),
(68,571,cs),
(68,506,o),
(115,435,o),
(203,435,cs),
(281,435,o),
(352,502,o),
(352,579,cs),
(352,646,o),
(305,715,o),
(217,715,cs)
);
},
{
closed = 1;
nodes = (
(137,637,o),
(165,653,o),
(207,653,cs),
(259,653,o),
(283,605,o),
(283,563,cs),
(283,513,o),
(255,498,o),
(213,498,cs),
(161,498,o),
(137,545,o),
(137,588,cs)
);
}
);
width = 696;
},
{
layerId = m006;
shapes = (
{
closed = 1;
nodes = (
(648,695,l),
(624,715,l),
(48,5,l),
(72,-15,l)
);
},
{
closed = 1;
nodes = (
(562,-15,o),
(626,45,o),
(626,114,cs),
(626,173,o),
(574,235,o),
(505,235,cs),
(437,235,o),
(372,175,o),
(372,106,cs),
(372,48,o),
(424,-15,o),
(493,-15,cs)
);
},
{
closed = 1;
nodes = (
(591,48,o),
(544,17,o),
(502,17,cs),
(452,17,o),
(408,65,o),
(408,114,cs),
(408,172,o),
(453,203,o),
(496,203,cs),
(547,203,o),
(591,156,o),
(591,106,cs)
);
},
{
closed = 1;
nodes = (
(134,715,o),
(70,655,o),
(70,586,cs),
(70,527,o),
(122,465,o),
(191,465,cs),
(259,465,o),
(324,525,o),
(324,594,cs),
(324,652,o),
(272,715,o),
(203,715,cs)
);
},
{
closed = 1;
nodes = (
(105,652,o),
(152,683,o),
(194,683,cs),
(244,683,o),
(288,635,o),
(288,586,cs),
(288,528,o),
(243,497,o),
(200,497,cs),
(149,497,o),
(105,544,o),
(105,594,cs)
);
}
);
width = 696;
},
{
background = {
shapes = (
{
closed = 1;
nodes = (
(651,675,l),
(599,715,l),
(45,25,l),
(97,-15,l)
);
},
{
closed = 1;
nodes = (
(555,-15,o),
(628,52,o),
(628,129,cs),
(628,194,o),
(581,265,o),
(493,265,cs),
(415,265,o),
(344,198,o),
(344,121,cs),
(344,54,o),
(391,-15,o),
(479,-15,cs)
);
},
{
closed = 1;
nodes = (
(560,63,o),
(531,48,o),
(489,48,cs),
(437,48,o),
(412,95,o),
(412,137,cs),
(412,187,o),
(441,203,o),
(483,203,cs),
(535,203,o),
(560,155,o),
(560,112,cs)
);
},
{
closed = 1;
nodes = (
(141,715,o),
(68,648,o),
(68,571,cs),
(68,506,o),
(115,435,o),
(203,435,cs),
(281,435,o),
(352,502,o),
(352,579,cs),
(352,646,o),
(305,715,o),
(217,715,cs)
);
},
{
closed = 1;
nodes = (
(137,637,o),
(165,653,o),
(207,653,cs),
(259,653,o),
(283,605,o),
(283,563,cs),
(283,513,o),
(255,498,o),
(213,498,cs),
(161,498,o),
(137,545,o),
(137,588,cs)
);
}
);
};
layerId = m007;
shapes = (
{
closed = 1;
nodes = (
(648,695,l),
(624,715,l),
(48,5,l),
(72,-15,l)
);
},
{
closed = 1;
nodes = (
(562,-15,o),
(626,45,o),
(626,114,cs),
(626,173,o),
(574,235,o),
(505,235,cs),
(437,235,o),
(372,175,o),
(372,106,cs),
(372,48,o),
(424,-15,o),
(493,-15,cs)
);
},
{
closed = 1;
nodes = (
(591,48,o),
(544,17,o),
(502,17,cs),
(452,17,o),
(408,65,o),
(408,114,cs),
(408,172,o),
(453,203,o),
(496,203,cs),
(547,203,o),
(591,156,o),
(591,106,cs)
);
},
{
closed = 1;
nodes = (
(134,715,o),
(70,655,o),
(70,586,cs),
(70,527,o),
(122,465,o),
(191,465,cs),
(259,465,o),
(324,525,o),
(324,594,cs),
(324,652,o),
(272,715,o),
(203,715,cs)
);
},
{
closed = 1;
nodes = (
(105,652,o),
(152,683,o),
(194,683,cs),
(244,683,o),
(288,635,o),
(288,586,cs),
(288,528,o),
(243,497,o),
(200,497,cs),
(149,497,o),
(105,544,o),
(105,594,cs)
);
}
);
width = 696;
},
{
layerId = m008;
shapes = (
{
closed = 1;
nodes = (
(656,670,l),
(594,720,l),
(40,30,l),
(102,-20,l)
);
},
{
closed = 1;
nodes = (
(555,-15,o),
(628,52,o),
(628,129,cs),
(628,194,o),
(581,265,o),
(493,265,cs),
(415,265,o),
(344,198,o),
(344,121,cs),
(344,54,o),
(391,-15,o),
(479,-15,cs)
);
},
{
closed = 1;
nodes = (
(549,72,o),
(524,60,o),
(489,60,cs),
(444,60,o),
(423,100,o),
(423,135,cs),
(423,178,o),
(448,191,o),
(483,191,cs),
(528,191,o),
(549,151,o),
(549,114,cs)
);
},
{
closed = 1;
nodes = (
(141,715,o),
(68,648,o),
(68,571,cs),
(68,506,o),
(115,435,o),
(203,435,cs),
(281,435,o),
(352,502,o),
(352,579,cs),
(352,646,o),
(305,715,o),
(217,715,cs)
);
},
{
closed = 1;
nodes = (
(147,629,o),
(171,642,o),
(207,642,cs),
(252,642,o),
(273,601,o),
(273,565,cs),
(273,522,o),
(249,509,o),
(213,509,cs),
(168,509,o),
(147,549,o),
(147,586,cs)
);
}
);
width = 696;
},
{
layerId = m009;
shapes = (
{
closed = 1;
nodes = (
(656,670,l),
(594,720,l),
(40,30,l),
(102,-20,l)
);
},
{
closed = 1;
nodes = (
(555,-15,o),
(628,52,o),
(628,129,cs),
(628,194,o),
(581,265,o),
(493,265,cs),
(415,265,o),
(344,198,o),
(344,121,cs),
(344,54,o),
(391,-15,o),
(479,-15,cs)
);
},
{
closed = 1;
nodes = (
(549,72,o),
(524,60,o),
(489,60,cs),
(444,60,o),
(423,100,o),
(423,135,cs),
(423,178,o),
(448,191,o),
(483,191,cs),
(528,191,o),
(549,151,o),
(549,114,cs)
);
},
{
closed = 1;
nodes = (
(141,715,o),
(68,648,o),
(68,571,cs),
(68,506,o),
(115,435,o),
(203,435,cs),
(281,435,o),
(352,502,o),
(352,579,cs),
(352,646,o),
(305,715,o),
(217,715,cs)
);
},
{
closed = 1;
nodes = (
(147,629,o),
(171,642,o),
(207,642,cs),
(252,642,o),
(273,601,o),
(273,565,cs),
(273,522,o),
(249,509,o),
(213,509,cs),
(168,509,o),
(147,549,o),
(147,586,cs)
);
}
);
width = 696;
}
);
unicode = 37;
}
{
glyphname = quotesingle;
layers = (
{
layerId = m002;
shapes = (
{
closed = 1;
nodes = (
(60,500,l),
(110,500,l),
(140,726,l),
(130,740,l),
(60,740,l)
);
}
);
width = 210;
},
{
layerId = m003;
shapes = (
{
closed = 1;
nodes = (
(84,500,l),
(134,500,l),
(196,726,l),
(188,740,l),
(118,740,l)
);
}
);
width = 164;
},
{
layerId = m006;
shapes = (
{
closed = 1;
nodes = (
(60,500,l),
(90,500,l),
(100,735,l),
(95,740,l),
(60,740,l)
);
}
);
width = 165;
},
{
layerId = m007;
shapes = (
{
closed = 1;
nodes = (
(101,500,l),
(125,500,l),
(174,735,l),
(170,740,l),
(135,740,l)
);
}
);
width = 165;
},
{
layerId = m008;
shapes = (
{
closed = 1;
nodes = (
(50,500,l),
(120,500,l),
(150,726,l),
(140,740,l),
(50,740,l)
);
}
);
width = 210;
},
{
layerId = m009;
shapes = (
{
closed = 1;
nodes = (
(95,500,l),
(165,500,l),
(227,726,l),
(219,740,l),
(129,740,l)
);
}
);
width = 210;
}
);
unicode = 39;
}
{
glyphname = parenleft;
layers = (
{
layerId = m002;
shapes = (
{
closed = 1;
nodes = (
(-20,540,o),
(-20,120,o),
(260,-165,c),
(300,-130,l),
(80,133,o),
(80,527,o),
(300,790,c),
(260,825,l)
);
}
);
width = 300;
},
{
layerId = m003;
shapes = (
{
closed = 1;
nodes = (
(7,540,o),
(-52,120,o),
(188,-165,c),
(233,-130,l),
(50,133,o),
(105,527,o),
(362,790,c),
(327,825,l)
);
}
);
width = 300;
},
{
layerId = m006;
shapes = (
{
closed = 1;
nodes = (
(-20,540,o),
(-20,120,o),
(260,-165,c),
(280,-145,l),
(30,118,o),
(30,542,o),
(280,805,c),
(260,825,l)
);
}
);
width = 300;
},
{
layerId = m007;
shapes = (
{
closed = 1;
nodes = (
(7,540,o),
(-52,120,o),
(188,-165,c),
(210,-145,l),
(-3,118,o),
(57,542,o),
(344,805,c),
(327,825,l)
);
}
);
width = 300;
},
{
layerId = m008;
shapes = (
{
closed = 1;
nodes = (
(-20,540,o),
(-20,120,o),
(260,-165,c),
(310,-125,l),
(120,143,o),
(120,517,o),
(310,785,c),
(260,825,l)
);
}
);
width = 300;
},
{
layerId = m009;
shapes = (
{
closed = 1;
nodes = (
(21,540,o),
(-38,120,o),
(202,-165,c),
(257,-125,l),
(105,143,o),
(158,517,o),
(385,785,c),
(341,825,l)
);
}
);
width = 300;
}
);
unicode = 40;
}
{
glyphname = plus;
layers = (
{
layerId = m002;
shapes = (
{
closed = 1;
nodes = (
(260,450,l),
(270,250,l),
(260,50,l),
(340,50,l),
(330,250,l),
(340,450,l)
);
},
{
closed = 1;
nodes = (
(500,290,l),
(300,280,l),
(100,290,l),
(100,210,l),
(300,220,l),
(500,210,l)
);
}
);
width = 600;
},
{
layerId = m003;
shapes = (
{
closed = 1;
nodes = (
(260,450,l),
(270,250,l),
(260,50,l),
(340,50,l),
(330,250,l),
(340,450,l)
);
},
{
closed = 1;
nodes = (
(500,290,l),
(300,280,l),
(100,290,l),
(100,210,l),
(300,220,l),
(500,210,l)
);
}
);
width = 600;
},
{
layerId = m006;
shapes = (
{
closed = 1;
nodes = (
(280,450,l),
(285,250,l),
(280,50,l),
(320,50,l),
(315,250,l),
(320,450,l)
);
},
{
closed = 1;
nodes = (
(500,270,l),
(300,265,l),
(100,270,l),
(100,230,l),
(300,235,l),
(500,230,l)
);
}
);
width = 600;
},
{
layerId = m007;
shapes = (
{
closed = 1;
nodes = (
(280,450,l),
(285,250,l),
(280,50,l),
(320,50,l),
(315,250,l),
(320,450,l)
);
},
{
closed = 1;
nodes = (
(500,270,l),
(300,265,l),
(100,270,l),
(100,230,l),
(300,235,l),
(500,230,l)
);
}
);
width = 600;
},
{
layerId = m008;
shapes = (
{
closed = 1;
nodes = (
(250,450,l),
(260,250,l),
(250,50,l),
(350,50,l),
(340,250,l),
(350,450,l)
);
},
{
closed = 1;
nodes = (
(500,300,l),
(300,290,l),
(100,300,l),
(100,200,l),
(300,210,l),
(500,200,l)
);
}
);
width = 600;
},
{
layerId = m009;
shapes = (
{
closed = 1;
nodes = (
(250,450,l),
(260,250,l),
(250,50,l),
(350,50,l),
(340,250,l),
(350,450,l)
);
},
{
closed = 1;
nodes = (
(500,300,l),
(300,290,l),
(100,300,l),
(100,200,l),
(300,210,l),
(500,200,l)
);
}
);
width = 600;
}
);
unicode = 43;
}
{
glyphname = one;
layers = (
{
layerId = m002;
shapes = (
{
closed = 1;
nodes = (
(115,500,l),
(105,0,l),
(185,0,l),
(185,700,l),
(170,710,l),
(90,670,l)
);
}
);
width = 295;
},
{
layerId = m003;
shapes = (
{
closed = 1;
nodes = (
(150,500,l),
(70,0,l),
(150,0,l),
(248,700,l),
(235,710,l),
(149,670,l)
);
}
);
width = 295;
},
{
layerId = m006;
shapes = (
{
closed = 1;
nodes = (
(120,600,l),
(115,0,l),
(150,0,l),
(150,705,l),
(135,710,l),
(90,670,l)
);
}
);
width = 295;
},
{
layerId = m007;
shapes = (
{
closed = 1;
nodes = (
(155,600,l),
(66,0,l),
(101,0,l),
(200,705,l),
(186,710,l),
(135,670,l)
);
}
);
width = 295;
},
{
layerId = m008;
shapes = (
{
closed = 1;
nodes = (
(105,500,l),
(95,0,l),
(200,0,l),
(200,700,l),
(185,710,l),
(80,670,l)
);
}
);
width = 295;
},
{
layerId = m009;
shapes = (
{
closed = 1;
nodes = (
(140,500,l),
(60,0,l),
(165,0,l),
(263,700,l),
(250,710,l),
(139,670,l)
);
}
);
width = 295;
}
);
unicode = 49;
}
{
glyphname = four;
layers = (
{
background = {
shapes = (
{
closed = 0;
nodes = (
(25,245,l),
(35,185,l),
(299,185,l)
);
},
{
closed = 0;
nodes = (
(380,183,l),
(485,180,l),
(485,260,l),
(380,257,l)
);
},
{
closed = 0;
nodes = (
(301,255,l),
(98,255,l)
);
}
);
};
layerId = m002;
shapes = (
{
closed = 1;
nodes = (
(90,241,l),
(305,616,l),
(299,195,l),
(290,0,l),
(385,0,l),
(380,193,l),
(380,700,l),
(305,710,l),
(25,245,l)
);
},
{
closed = 1;
nodes = (
(480,185,l),
(490,265,l),
(90,245,l),
(25,245,l),
(34,185,l)
);
}
);
width = 515;
},
{
background = {
shapes = (
{
closed = 0;
nodes = (
(25,245,l),
(35,185,l),
(299,185,l)
);
},
{
closed = 0;
nodes = (
(380,183,l),
(485,180,l),
(485,260,l),
(380,257,l)
);
},
{
closed = 0;
nodes = (
(301,255,l),
(98,255,l)
);
}
);
};
layerId = m003;
shapes = (
{
closed = 1;
nodes = (
(89,241,l),
(356,616,l),
(291,195,l),
(255,0,l),
(350,0,l),
(372,193,l),
(443,700,l),
(370,710,l),
(24,245,l)
);
},
{
closed = 1;
nodes = (
(471,185,l),
(492,265,l),
(89,245,l),
(24,245,l),
(25,185,l)
);
}
);
width = 515;
},
{
background = {
shapes = (
{
closed = 1;
nodes = (
(90,241,l),
(305,616,l),
(299,195,l),
(290,0,l),
(385,0,l),
(380,193,l),
(380,700,l),
(305,710,l),
(25,245,l)
);
},
{
closed = 1;
nodes = (
(480,185,l),
(490,265,l),
(90,245,l),
(25,245,l),
(34,185,l)
);
}
);
};
layerId = m006;
shapes = (
{
closed = 1;
nodes = (
(60,205,l),
(335,631,l),
(334,195,l),
(325,0,l),
(375,0,l),
(370,193,l),
(370,705,l),
(350,710,l),
(25,205,l)
);
},
{
closed = 1;
nodes = (
(480,190,l),
(485,230,l),
(60,225,l),
(25,205,l),
(29,190,l)
);
}
);
width = 515;
},
{
background = {
shapes = (
{
closed = 1;
nodes = (
(90,241,l),
(305,616,l),
(299,195,l),
(290,0,l),
(385,0,l),
(380,193,l),
(380,700,l),
(305,710,l),
(25,245,l)
);
},
{
closed = 1;
nodes = (
(480,185,l),
(490,265,l),
(90,245,l),
(25,245,l),
(34,185,l)
);
}
);
};
layerId = m007;
shapes = (
{
closed = 1;
nodes = (
(39,205,l),
(374,631,l),
(312,195,l),
(275,0,l),
(325,0,l),
(347,193,l),
(419,705,l),
(400,710,l),
(4,205,l)
);
},
{
closed = 1;
nodes = (
(457,190,l),
(467,230,l),
(42,225,l),
(4,205,l),
(6,190,l)
);
}
);
width = 515;
},
{
background = {
shapes = (
{
closed = 0;
nodes = (
(25,245,l),
(35,185,l),
(299,185,l)
);
},
{
closed = 0;
nodes = (
(380,183,l),
(485,180,l),
(485,260,l),
(380,257,l)
);
},
{
closed = 0;
nodes = (
(301,255,l),
(98,255,l)
);
}
);
};
layerId = m008;
shapes = (
{
closed = 1;
nodes = (
(110,241,l),
(305,576,l),
(299,195,l),
(290,0,l),
(405,0,l),
(400,193,l),
(400,700,l),
(305,710,l),
(15,245,l)
);
},
{
closed = 1;
nodes = (
(500,165,l),
(510,265,l),
(80,245,l),
(15,245,l),
(24,165,l)
);
}
);
width = 515;
},
{
background = {
shapes = (
{
closed = 0;
nodes = (
(25,245,l),
(35,185,l),
(299,185,l)
);
},
{
closed = 0;
nodes = (
(380,183,l),
(485,180,l),
(485,260,l),
(380,257,l)
);
},
{
closed = 0;
nodes = (
(301,255,l),
(98,255,l)
);
}
);
};
layerId = m009;
shapes = (
{
closed = 1;
nodes = (
(109,241,l),
(351,576,l),
(291,195,l),
(255,0,l),
(370,0,l),
(392,193,l),
(463,700,l),
(370,710,l),
(14,245,l)
);
},
{
closed = 1;
nodes = (
(488,165,l),
(512,265,l),
(79,245,l),
(14,245,l),
(12,165,l)
);
}
);
width = 515;
}
);
unicode = 52;
}
{
glyphname = five;
layers = (
{
background = {
shapes = (
{
closed = 1;
nodes = (
(303,480,o),
(132,436,c),
(130,379,l),
(282,409,o),
(396,348,o),
(396,204,cs),
(396,88,o),
(317,57,o),
(251,57,cs),
(198,57,o),
(147,83,o),
(115,118,c),
(52,65,l),
(90,17,o),
(162,-15,o),
(224,-15,cs),
(350,-15,o),
(479,83,o),
(479,226,cs),
(479,428,o)
);
},
{
closed = 1;
nodes = (
(160,635,l),
(240,640,l),
(430,620,l),
(430,700,l),
(170,700,l)
);
},
{
closed = 1;
nodes = (
(90,410,l),
(150,410,l),
(170,700,l),
(110,700,l)
);
}
);
};
layerId = m002;
shapes = (
{
closed = 1;
nodes = (
(52,65,l),
(90,17,o),
(162,-15,o),
(224,-15,cs),
(350,-15,o),
(479,83,o),
(479,236,cs),
(479,376,o),
(373,462,o),
(245,462,cs),
(218,462,o),
(191,459,o),
(163,451,c),
(176,636,l),
(240,640,l),
(460,620,l),
(460,700,l),
(110,700,l),
(91,425,l),
(88,385,l),
(103,372,l),
(144,389,o),
(181,396,o),
(225,396,cs),
(327,396,o),
(396,313,o),
(396,214,cs),
(396,88,o),
(317,57,o),
(251,57,cs),
(198,57,o),
(147,83,o),
(115,118,c)
);
}
);
width = 529;
},
{
background = {
shapes = (
{
closed = 1;
nodes = (
(303,480,o),
(132,436,c),
(130,379,l),
(282,409,o),
(396,348,o),
(396,204,cs),
(396,88,o),
(317,57,o),
(251,57,cs),
(198,57,o),
(147,83,o),
(115,118,c),
(52,65,l),
(90,17,o),
(162,-15,o),
(224,-15,cs),
(350,-15,o),
(479,83,o),
(479,226,cs),
(479,428,o)
);
},
{
closed = 1;
nodes = (
(160,635,l),
(240,640,l),
(430,620,l),
(430,700,l),
(170,700,l)
);
},
{
closed = 1;
nodes = (
(90,410,l),
(150,410,l),
(170,700,l),
(110,700,l)
);
}
);
};
layerId = m003;
shapes = (
{
closed = 1;
nodes = (
(26,65,l),
(57,17,o),
(125,-15,o),
(187,-15,cs),
(313,-15,o),
(456,83,o),
(477,236,cs),
(497,376,o),
(403,462,o),
(275,462,cs),
(248,462,o),
(220,459,o),
(191,451,c),
(230,636,l),
(295,640,l),
(512,620,l),
(523,700,l),
(173,700,l),
(116,425,l),
(107,385,l),
(120,372,l),
(164,389,o),
(202,396,o),
(246,396,cs),
(348,396,o),
(405,313,o),
(391,214,cs),
(373,88,o),
(290,57,o),
(224,57,cs),
(171,57,o),
(124,83,o),
(96,118,c)
);
}
);
width = 529;
},
{
background = {
shapes = (
{
closed = 1;
nodes = (
(52,65,l),
(90,17,o),
(162,-15,o),
(224,-15,cs),
(350,-15,o),
(479,83,o),
(479,236,cs),
(479,376,o),
(373,462,o),
(245,462,cs),
(218,462,o),
(191,459,o),
(163,451,c),
(176,636,l),
(240,640,l),
(460,620,l),
(460,700,l),
(110,700,l),
(91,425,l),
(88,385,l),
(103,372,l),
(144,389,o),
(181,396,o),
(225,396,cs),
(327,396,o),
(396,313,o),
(396,214,cs),
(396,88,o),
(317,57,o),
(251,57,cs),
(198,57,o),
(147,83,o),
(115,118,c)
);
}
);
};
layerId = m006;
shapes = (
{
closed = 1;
nodes = (
(52,65,l),
(90,17,o),
(162,-15,o),
(224,-15,cs),
(350,-15,o),
(479,83,o),
(479,236,cs),
(479,376,o),
(373,462,o),
(245,462,cs),
(218,462,o),
(161,455,o),
(133,442,c),
(146,666,l),
(240,670,l),
(460,655,l),
(460,700,l),
(115,700,l),
(98,455,l),
(88,415,l),
(103,402,l),
(144,419,o),
(181,431,o),
(225,431,cs),
(327,431,o),
(436,363,o),
(436,214,cs),
(436,88,o),
(342,22,o),
(246,22,cs),
(163,22,o),
(112,58,o),
(80,93,c)
);
}
);
width = 529;
},
{
background = {
shapes = (
{
closed = 1;
nodes = (
(52,65,l),
(90,17,o),
(162,-15,o),
(224,-15,cs),
(350,-15,o),
(479,83,o),
(479,236,cs),
(479,376,o),
(373,462,o),
(245,462,cs),
(218,462,o),
(191,459,o),
(163,451,c),
(176,636,l),
(240,640,l),
(460,620,l),
(460,700,l),
(110,700,l),
(91,425,l),
(88,385,l),
(103,372,l),
(144,389,o),
(181,396,o),
(225,396,cs),
(327,396,o),
(396,313,o),
(396,214,cs),
(396,88,o),
(317,57,o),
(251,57,cs),
(198,57,o),
(147,83,o),
(115,118,c)
);
}
);
};
layerId = m007;
shapes = (
{
closed = 1;
nodes = (
(13,65,l),
(44,17,o),
(112,-15,o),
(174,-15,cs),
(300,-15,o),
(443,83,o),
(464,236,cs),
(484,376,o),
(390,462,o),
(262,462,cs),
(235,462,o),
(177,455,o),
(147,442,c),
(191,666,l),
(286,670,l),
(504,655,l),
(510,700,l),
(165,700,l),
(114,455,l),
(98,415,l),
(111,402,l),
(155,419,o),
(193,431,o),
(237,431,cs),
(339,431,o),
(439,363,o),
(418,214,cs),
(400,88,o),
(297,22,o),
(201,22,cs),
(118,22,o),
(72,58,o),
(45,93,c)
);
}
);
width = 529;
},
{
background = {
shapes = (
{
closed = 1;
nodes = (
(52,65,l),
(90,17,o),
(162,-15,o),
(224,-15,cs),
(350,-15,o),
(479,83,o),
(479,236,cs),
(479,376,o),
(373,462,o),
(245,462,cs),
(218,462,o),
(191,459,o),
(163,451,c),
(176,636,l),
(240,640,l),
(460,620,l),
(460,700,l),
(110,700,l),
(91,425,l),
(88,385,l),
(103,372,l),
(144,389,o),
(181,396,o),
(225,396,cs),
(327,396,o),
(396,313,o),
(396,214,cs),
(396,88,o),
(317,57,o),
(251,57,cs),
(198,57,o),
(147,83,o),
(115,118,c)
);
}
);
};
layerId = m008;
shapes = (
{
closed = 1;
nodes = (
(52,65,l),
(90,17,o),
(162,-15,o),
(224,-15,cs),
(350,-15,o),
(479,83,o),
(479,236,cs),
(479,376,o),
(373,462,o),
(245,462,cs),
(224,462,o),
(204,460,o),
(183,456,c),
(195,616,l),
(240,620,l),
(460,600,l),
(460,700,l),
(110,700,l),
(91,425,l),
(88,365,l),
(103,352,l),
(144,369,o),
(181,376,o),
(225,376,cs),
(307,376,o),
(376,313,o),
(376,214,cs),
(376,128,o),
(317,77,o),
(251,77,cs),
(198,77,o),
(147,103,o),
(115,138,c)
);
}
);
width = 529;
},
{
background = {
shapes = (
{
closed = 1;
nodes = (
(52,65,l),
(90,17,o),
(162,-15,o),
(224,-15,cs),
(350,-15,o),
(479,83,o),
(479,236,cs),
(479,376,o),
(373,462,o),
(245,462,cs),
(218,462,o),
(191,459,o),
(163,451,c),
(176,636,l),
(240,640,l),
(460,620,l),
(460,700,l),
(110,700,l),
(91,425,l),
(88,385,l),
(103,372,l),
(144,389,o),
(181,396,o),
(225,396,cs),
(327,396,o),
(396,313,o),
(396,214,cs),
(396,88,o),
(317,57,o),
(251,57,cs),
(198,57,o),
(147,83,o),
(115,118,c)
);
}
);
};
layerId = m009;
shapes = (
{
closed = 1;
nodes = (
(26,65,l),
(57,17,o),
(125,-15,o),
(187,-15,cs),
(313,-15,o),
(456,83,o),
(477,236,cs),
(497,376,o),
(403,462,o),
(275,462,cs),
(254,462,o),
(233,460,o),
(212,456,c),
(246,616,l),
(292,620,l),
(509,600,l),
(523,700,l),
(173,700,l),
(116,425,l),
(104,365,l),
(117,352,l),
(161,369,o),
(199,376,o),
(243,376,cs),
(325,376,o),
(385,313,o),
(371,214,cs),
(359,128,o),
(293,77,o),
(227,77,cs),
(174,77,o),
(126,103,o),
(99,138,c)
);
}
);
width = 529;
}
);
unicode = 53;
}
{
glyphname = nine;
layers = (
{
layerId = m002;
shapes = (
{
closed = 1;
nodes = (
(432,395,l),
(384,337,o),
(331,327,o),
(287,327,cs),
(181,327,o),
(134,405,o),
(134,507,cs),
(134,608,o),
(177,643,o),
(277,643,cs),
(393,643,o),
(430,525,o),
(430,443,cs),
(430,247,o),
(217,60,o),
(192,35,c),
(228,-8,l),
(280,37,o),
(514,244,o),
(514,461,cs),
(514,564,o),
(453,715,o),
(296,715,cs),
(156,715,o),
(50,608,o),
(50,479,cs),
(50,366,o),
(121,255,o),
(258,255,cs),
(345,255,o),
(419,310,o),
(468,372,c)
);
}
);
width = 564;
},
{
layerId = m003;
shapes = (
{
closed = 1;
nodes = (
(452,395,l),
(396,337,o),
(342,327,o),
(298,327,cs),
(192,327,o),
(156,405,o),
(170,507,cs),
(184,608,o),
(232,643,o),
(332,643,cs),
(448,643,o),
(469,525,o),
(457,443,cs),
(430,247,o),
(190,60,o),
(162,35,c),
(192,-8,l),
(250,37,o),
(513,244,o),
(544,461,cs),
(558,564,o),
(518,715,o),
(361,715,cs),
(221,715,o),
(100,608,o),
(82,479,cs),
(66,366,o),
(122,255,o),
(259,255,cs),
(346,255,o),
(427,310,o),
(485,372,c)
);
}
);
width = 564;
},
{
background = {
shapes = (
{
closed = 1;
nodes = (
(432,395,l),
(384,337,o),
(331,327,o),
(287,327,cs),
(181,327,o),
(134,405,o),
(134,507,cs),
(134,608,o),
(177,643,o),
(277,643,cs),
(393,643,o),
(430,525,o),
(430,443,cs),
(430,247,o),
(217,60,o),
(192,35,c),
(228,-8,l),
(280,37,o),
(514,244,o),
(514,461,cs),
(514,564,o),
(453,715,o),
(296,715,cs),
(156,715,o),
(50,608,o),
(50,479,cs),
(50,366,o),
(121,255,o),
(258,255,cs),
(345,255,o),
(419,310,o),
(468,372,c)
);
}
);
};
layerId = m006;
shapes = (
{
closed = 1;
nodes = (
(474,395,l),
(436,327,o),
(361,287,o),
(287,287,cs),
(181,287,o),
(89,355,o),
(89,497,cs),
(89,608,o),
(177,683,o),
(267,683,cs),
(393,683,o),
(475,595,o),
(475,443,cs),
(475,227,o),
(237,34,o),
(212,9,c),
(228,-8,l),
(280,37,o),
(514,224,o),
(514,461,cs),
(514,574,o),
(443,715,o),
(286,715,cs),
(156,715,o),
(50,608,o),
(50,479,cs),
(50,366,o),
(121,255,o),
(258,255,cs),
(365,255,o),
(439,310,o),
(488,372,c)
);
}
);
width = 564;
},
{
background = {
shapes = (
{
closed = 1;
nodes = (
(432,395,l),
(384,337,o),
(331,327,o),
(287,327,cs),
(181,327,o),
(134,405,o),
(134,507,cs),
(134,608,o),
(177,643,o),
(277,643,cs),
(393,643,o),
(430,525,o),
(430,443,cs),
(430,247,o),
(217,60,o),
(192,35,c),
(228,-8,l),
(280,37,o),
(514,244,o),
(514,461,cs),
(514,564,o),
(453,715,o),
(296,715,cs),
(156,715,o),
(50,608,o),
(50,479,cs),
(50,366,o),
(121,255,o),
(258,255,cs),
(345,255,o),
(419,310,o),
(468,372,c)
);
}
);
};
layerId = m007;
shapes = (
{
closed = 1;
nodes = (
(480,395,l),
(432,327,o),
(352,287,o),
(278,287,cs),
(172,287,o),
(89,355,o),
(109,497,cs),
(125,608,o),
(223,683,o),
(313,683,cs),
(439,683,o),
(509,595,o),
(488,443,cs),
(457,227,o),
(192,34,o),
(164,9,c),
(177,-8,l),
(236,37,o),
(496,224,o),
(529,461,cs),
(545,574,o),
(494,715,o),
(337,715,cs),
(207,715,o),
(86,608,o),
(68,479,cs),
(52,366,o),
(107,255,o),
(244,255,cs),
(351,255,o),
(433,310,o),
(491,372,c)
);
}
);
width = 564;
},
{
layerId = m008;
shapes = (
{
closed = 1;
nodes = (
(432,405,l),
(384,357,o),
(331,347,o),
(287,347,cs),
(201,347,o),
(154,405,o),
(154,507,cs),
(154,588,o),
(197,623,o),
(267,623,cs),
(373,623,o),
(410,535,o),
(410,443,cs),
(410,247,o),
(202,70,o),
(177,45,c),
(228,-8,l),
(280,37,o),
(514,244,o),
(514,461,cs),
(514,594,o),
(443,715,o),
(286,715,cs),
(156,715,o),
(50,608,o),
(50,479,cs),
(50,366,o),
(121,255,o),
(258,255,cs),
(345,255,o),
(419,310,o),
(468,372,c)
);
}
);
width = 564;
},
{
layerId = m009;
shapes = (
{
closed = 1;
nodes = (
(454,405,l),
(399,357,o),
(345,347,o),
(301,347,cs),
(215,347,o),
(176,405,o),
(190,507,cs),
(202,588,o),
(249,623,o),
(319,623,cs),
(425,623,o),
(450,535,o),
(437,443,cs),
(410,247,o),
(177,70,o),
(148,45,c),
(192,-8,l),
(250,37,o),
(513,244,o),
(544,461,cs),
(560,574,o),
(508,715,o),
(351,715,cs),
(221,715,o),
(100,608,o),
(82,479,cs),
(66,366,o),
(142,255,o),
(259,255,cs),
(346,255,o),
(427,310,o),
(485,372,c)
);
}
);
width = 564;
}
);
unicode = 57;
}
{
glyphname = greater;
layers = (
{
layerId = m002;
shapes = (
{
closed = 1;
nodes = (
(560,270,l),
(90,500,l),
(60,435,l),
(451,250,l),
(60,75,l),
(90,0,l),
(560,230,l)
);
}
);
width = 600;
},
{
layerId = m003;
shapes = (
{
closed = 1;
nodes = (
(560,270,l),
(90,500,l),
(60,435,l),
(451,250,l),
(60,75,l),
(90,0,l),
(560,230,l)
);
}
);
width = 600;
},
{
layerId = m006;
shapes = (
{
closed = 1;
nodes = (
(560,260,l),
(90,500,l),
(76,475,l),
(531,250,l),
(76,25,l),
(90,0,l),
(560,240,l)
);
}
);
width = 600;
},
{
layerId = m007;
shapes = (
{
closed = 1;
nodes = (
(560,260,l),
(90,500,l),
(76,475,l),
(531,250,l),
(76,25,l),
(90,0,l),
(560,240,l)
);
}
);
width = 600;
},
{
layerId = m008;
shapes = (
{
closed = 1;
nodes = (
(560,280,l),
(90,500,l),
(60,415,l),
(411,250,l),
(60,95,l),
(90,0,l),
(560,220,l)
);
}
);
width = 600;
},
{
layerId = m009;
shapes = (
{
closed = 1;
nodes = (
(560,280,l),
(90,500,l),
(60,415,l),
(411,250,l),
(60,95,l),
(90,0,l),
(560,220,l)
);
}
);
width = 600;
}
);
unicode = 62;
}
{
glyphname = question;
layers = (
{
background = {
shapes = (
{
closed = 0;
nodes = (
(290,392,l),
(340,430,o),
(375,486,o),
(375,535,cs),
(375,646,o),
(291,715,o),
(201,715,cs),
(138,715,o),
(66,687,o),
(18,618,c),
(57,581,l),
(92,619,o),
(125,639,o),
(175,639,cs),
(231,639,o),
(293,602,o),
(293,516,cs),
(293,452,o),
(246,393,o),
(134,396,c),
(132,339,l),
(175,339,ls)
);
}
);
};
hints = (
{
name = _corner.mitre;
origin = (0,7);
scale = (1.5,1.5);
type = Corner;
},
{
name = _segment.bulge;
origin = (0,0);
type = Segment;
}
);
layerId = m002;
shapes = (
{
closed = 1;
nodes = (
(192,220,l,{
GSSegment = {
name = _segment.bulge;
};
}),
(153,362,o),
(377,333,o),
(377,526,cs),
(377,641,o),
(253,787,o),
(40,674,c),
(74,598,l),
(108,618,o),
(156,632,o),
(200,632,cs),
(258,632,o),
(308,607,o),
(308,540,cs),
(308,498,o),
(287,470,o),
(259,447,cs),
(188,389,o),
(72,362,o),
(145,202,c)
);
},
{
pos = (82,0);
ref = dot;
}
);
width = 427;
},
{
background = {
hints = (
{
name = _corner.mitre;
origin = (0,7);
scale = (1.5,1.5);
type = Corner;
}
);
shapes = (
{
closed = 1;
nodes = (
(123,221,l,{
GSSegment = {
name = _segment.bulge;
};
}),
(109,377,o),
(330,305,o),
(363,495,cs),
(383,608,o),
(286,774,o),
(57,699,c),
(77,618,l),
(103,628,o),
(135,630,o),
(166,630,cs),
(230,630,o),
(322,602,o),
(308,516,cs),
(300,474,o),
(265,460,o),
(233,443,cs),
(153,398,o),
(34,396,o),
(78,216,c)
);
}
);
};
hints = (
{
name = _segment.bulge;
origin = (0,0);
type = Segment;
},
{
name = _corner.mitre;
origin = (0,7);
scale = (1.5,1.5);
type = Corner;
}
);
layerId = m003;
shapes = (
{
closed = 1;
nodes = (
(128,210,l,{
GSSegment = {
name = _segment.bulge;
};
}),
(159,362,o),
(379,303,o),
(406,496,cs),
(422,611,o),
(318,787,o),
(90,674,c),
(83,598,l),
(150,618,o),
(200,632,o),
(244,632,cs),
(302,632,o),
(358,587,o),
(349,520,cs),
(343,478,o),
(312,454,o),
(277,437,cs),
(197,399,o),
(78,362,o),
(78,210,c)
);
},
{
pos = (-30,0);
ref = dot;
}
);
width = 421;
},
{
background = {
hints = (
{
name = _corner.mitre;
origin = (0,7);
scale = (1.5,1.5);
type = Corner;
}
);
shapes = (
{
closed = 1;
nodes = (
(192,220,l,{
GSSegment = {
name = _segment.bulge;
};
}),
(153,362,o),
(377,333,o),
(377,526,cs),
(377,641,o),
(253,787,o),
(40,674,c),
(74,598,l),
(108,618,o),
(156,632,o),
(200,632,cs),
(258,632,o),
(308,607,o),
(308,540,cs),
(308,498,o),
(287,470,o),
(259,447,cs),
(188,389,o),
(72,362,o),
(145,202,c)
);
}
);
};
hints = (
{
name = _corner.mitre;
origin = (0,7);
scale = (1.5,1.5);
type = Corner;
},
{
name = _segment.bulge;
origin = (0,0);
type = Segment;
}
);
layerId = m006;
shapes = (
{
closed = 1;
nodes = (
(187,208,l,{
GSSegment = {
name = _segment.bulge;
};
}),
(148,360,o),
(377,343,o),
(377,526,cs),
(377,641,o),
(243,787,o),
(40,674,c),
(53,643,l),
(95,669,o),
(137,680,o),
(185,680,cs),
(239,680,o),
(291,659,o),
(319,618,cs),
(369,544,o),
(355,457,o),
(281,405,cs),
(191,341,o),
(126,299,o),
(165,202,c)
);
},
{
pos = (92,0);
ref = dot;
}
);
width = 427;
},
{
background = {
hints = (
{
name = _corner.mitre;
place = (74,0);
scale = (1.5,1.5);
type = Corner;
},
{
name = _corner.mitre;
origin = (0,7);
scale = (1.5,1.5);
type = Corner;
}
);
shapes = (
{
closed = 1;
nodes = (
(187,208,l,{
GSSegment = {
name = _segment.bulge;
};
}),
(148,360,o),
(377,343,o),
(377,526,cs),
(377,641,o),
(243,787,o),
(40,674,c),
(53,643,l),
(95,669,o),
(137,680,o),
(185,680,cs),
(239,680,o),
(291,659,o),
(319,618,cs),
(369,544,o),
(355,457,o),
(281,405,cs),
(191,341,o),
(126,299,o),
(165,202,c)
);
}
);
};
hints = (
{
name = _segment.bulge;
origin = (0,0);
type = Segment;
},
{
name = _corner.mitre;
origin = (0,7);
scale = (1.5,1.5);
type = Corner;
}
);
layerId = m007;
shapes = (
{
closed = 1;
nodes = (
(103,210,l,{
GSSegment = {
name = _segment.bulge;
};
}),
(134,362,o),
(379,303,o),
(406,496,cs),
(422,611,o),
(318,787,o),
(90,674,c),
(83,638,l),
(133,665,o),
(180,677,o),
(222,677,cs),
(325,677,o),
(394,603,o),
(379,500,cs),
(367,419,o),
(282,385,o),
(237,369,cs),
(195,354,o),
(78,312,o),
(78,210,c)
);
},
{
alignment = -1;
pos = (-60,0);
ref = dot;
}
);
width = 421;
},
{
background = {
hints = (
{
name = _corner.mitre;
origin = (0,7);
scale = (1.5,1.5);
type = Corner;
}
);
shapes = (
{
closed = 1;
nodes = (
(192,220,l,{
GSSegment = {
name = _segment.bulge;
};
}),
(153,362,o),
(377,333,o),
(377,526,cs),
(377,641,o),
(253,787,o),
(40,674,c),
(74,598,l),
(108,618,o),
(156,632,o),
(200,632,cs),
(258,632,o),
(308,607,o),
(308,540,cs),
(308,498,o),
(287,470,o),
(259,447,cs),
(188,389,o),
(72,362,o),
(145,202,c)
);
}
);
};
hints = (
{
name = _corner.mitre;
origin = (0,7);
scale = (1.5,1.5);
type = Corner;
},
{
name = _segment.bulge;
origin = (0,0);
type = Segment;
}
);
layerId = m008;
shapes = (
{
closed = 1;
nodes = (
(212,225,l,{
GSSegment = {
name = _segment.bulge;
};
}),
(173,367,o),
(377,333,o),
(377,526,cs),
(377,641,o),
(253,787,o),
(40,674,c),
(74,578,l),
(108,598,o),
(156,612,o),
(200,612,cs),
(265,612,o),
(291,580,o),
(291,544,cs),
(291,515,o),
(274,483,o),
(249,462,cs),
(178,404,o),
(52,362,o),
(145,202,c)
);
},
{
pos = (82,0);
ref = dot;
}
);
width = 427;
},
{
background = {
hints = (
{
name = _corner.mitre;
origin = (0,7);
scale = (1.5,1.5);
type = Corner;
}
);
shapes = (
{
closed = 1;
nodes = (
(192,220,l,{
GSSegment = {
name = _segment.bulge;
};
}),
(153,362,o),
(377,333,o),
(377,526,cs),
(377,641,o),
(253,787,o),
(40,674,c),
(74,598,l),
(108,618,o),
(156,632,o),
(200,632,cs),
(258,632,o),
(308,607,o),
(308,540,cs),
(308,498,o),
(287,470,o),
(259,447,cs),
(188,389,o),
(72,362,o),
(145,202,c)
);
}
);
};
hints = (
{
name = _segment.bulge;
origin = (0,0);
type = Segment;
},
{
name = _corner.mitre;
origin = (0,7);
scale = (1.5,1.5);
type = Corner;
}
);
layerId = m009;
shapes = (
{
closed = 1;
nodes = (
(128,210,l,{
GSSegment = {
name = _segment.bulge;
};
}),
(159,362,o),
(379,303,o),
(406,496,cs),
(422,611,o),
(318,787,o),
(90,674,c),
(83,578,l),
(150,598,o),
(190,612,o),
(234,612,cs),
(298,612,o),
(331,562,o),
(325,516,cs),
(321,489,o),
(308,466,o),
(271,449,cs),
(167,399,o),
(58,362,o),
(58,220,c)
);
},
{
pos = (-40,0);
ref = dot;
}
);
width = 421;
}
);
unicode = 63;
}
{
glyphname = A;
layers = (
{
anchors = (
{
name = bottom;
pos = (343,0);
},
{
name = ogonek;
pos = (646,0);
},
{
name = top;
pos = (343,700);
}
);
background = {
anchors = (
{
name = bottom;
pos = (343,0);
},
{
name = ogonek;
pos = (646,0);
},
{
name = top;
pos = (343,700);
}
);
shapes = (
{
closed = 1;
nodes = (
(312,702,l),
(294,635,l),
(30,0,l),
(120,0,l),
(333,601,l),
(548,0,l),
(646,0,l),
(378,716,l)
);
},
{
closed = 1;
nodes = (
(190,290,l),
(190,225,l),
(510,235,l),
(510,280,l)
);
}
);
};
layerId = m002;
shapes = (
{
closed = 1;
nodes = (
(312,702,l),
(294,635,l),
(30,0,l),
(120,0,l),
(333,601,l),
(548,0,l),
(646,0,l),
(378,716,l)
);
},
{
closed = 1;
nodes = (
(190,290,l),
(190,225,l),
(510,235,l),
(510,280,l)
);
}
);
width = 666;
},
{
anchors = (
{
name = bottom;
pos = (278,0);
},
{
name = ogonek;
pos = (581,0);
},
{
name = top;
pos = (386,700);
}
);
background = {
anchors = (
{
name = bottom;
pos = (313,0);
},
{
name = ogonek;
pos = (616,0);
},
{
name = top;
pos = (313,700);
}
);
shapes = (
{
closed = 1;
nodes = (
(282,702,l),
(264,635,l),
(0,0,l),
(90,0,l),
(303,601,l),
(518,0,l),
(616,0,l),
(348,716,l)
);
},
{
closed = 1;
nodes = (
(160,290,l),
(160,225,l),
(480,235,l),
(480,280,l)
);
}
);
};
layerId = m003;
shapes = (
{
closed = 1;
nodes = (
(346,702,l),
(318,635,l),
(-35,0,l),
(55,0,l),
(362,601,l),
(493,0,l),
(581,0,l),
(413,716,l)
);
},
{
closed = 1;
nodes = (
(166,290,l),
(156,225,l),
(478,235,l),
(484,280,l)
);
}
);
width = 626;
},
{
anchors = (
{
name = bottom;
pos = (313,0);
},
{
name = ogonek;
pos = (626,0);
},
{
name = top;
pos = (313,700);
}
);
background = {
shapes = (
{
closed = 1;
nodes = (
(290,702,l),
(250,582,l),
(10,0,l),
(50,0,l),
(313,671,l),
(588,0,l),
(626,0,l),
(334,706,l)
);
},
{
closed = 1;
nodes = (
(150,280,l),
(140,245,l),
(490,255,l),
(490,280,l)
);
}
);
};
layerId = m006;
shapes = (
{
closed = 1;
nodes = (
(295,702,l),
(244,564,l),
(10,0,l),
(50,0,l),
(313,671,l),
(588,0,l),
(626,0,l),
(334,706,l)
);
},
{
closed = 1;
nodes = (
(150,280,l),
(140,245,l),
(490,255,l),
(490,280,l)
);
}
);
width = 626;
},
{
anchors = (
{
name = bottom;
pos = (264,0);
},
{
name = ogonek;
pos = (577,0);
},
{
name = top;
pos = (362,700);
}
);
background = {
shapes = (
{
closed = 1;
nodes = (
(290,702,l),
(250,582,l),
(10,0,l),
(50,0,l),
(313,671,l),
(588,0,l),
(626,0,l),
(334,706,l)
);
},
{
closed = 1;
nodes = (
(150,280,l),
(140,245,l),
(490,255,l),
(490,280,l)
);
}
);
};
layerId = m007;
shapes = (
{
closed = 1;
nodes = (
(344,702,l),
(274,564,l),
(-39,0,l),
(1,0,l),
(358,671,l),
(539,0,l),
(577,0,l),
(384,706,l)
);
},
{
closed = 1;
nodes = (
(140,280,l),
(125,245,l),
(477,255,l),
(480,280,l)
);
}
);
width = 626;
},
{
anchors = (
{
name = bottom;
pos = (343,0);
},
{
name = ogonek;
pos = (666,0);
},
{
name = top;
pos = (343,700);
}
);
background = {
shapes = (
{
closed = 1;
nodes = (
(312,702,l),
(294,635,l),
(30,0,l),
(120,0,l),
(333,601,l),
(548,0,l),
(646,0,l),
(378,716,l)
);
},
{
closed = 1;
nodes = (
(190,290,l),
(190,225,l),
(510,235,l),
(510,280,l)
);
}
);
};
layerId = m008;
shapes = (
{
closed = 1;
nodes = (
(302,702,l),
(279,635,l),
(10,0,l),
(130,0,l),
(334,566,l),
(553,0,l),
(666,0,l),
(388,716,l)
);
},
{
closed = 1;
nodes = (
(190,300,l),
(190,215,l),
(510,220,l),
(510,290,l)
);
}
);
width = 666;
},
{
anchors = (
{
name = bottom;
pos = (308,0);
},
{
name = ogonek;
pos = (631,0);
},
{
name = top;
pos = (406,700);
}
);
background = {
shapes = (
{
closed = 1;
nodes = (
(312,702,l),
(294,635,l),
(30,0,l),
(120,0,l),
(333,601,l),
(548,0,l),
(646,0,l),
(378,716,l)
);
},
{
closed = 1;
nodes = (
(190,290,l),
(190,225,l),
(510,235,l),
(510,280,l)
);
}
);
};
layerId = m009;
shapes = (
{
closed = 1;
nodes = (
(366,702,l),
(333,635,l),
(-25,0,l),
(95,0,l),
(378,566,l),
(518,0,l),
(631,0,l),
(453,716,l)
);
},
{
closed = 1;
nodes = (
(197,300,l),
(185,215,l),
(506,220,l),
(516,290,l)
);
}
);
width = 666;
}
);
unicode = 65;
}
{
glyphname = B;
layers = (
{
anchors = (
{
name = bottom;
pos = (311,0);
},
{
name = center;
pos = (311,350);
},
{
name = top;
pos = (311,700);
}
);
background = {
shapes = (
{
closed = 1;
nodes = (
(85,0,l),
(332,0,ls),
(540,0,o),
(601,102,o),
(601,199,cs),
(601,318,o),
(489,400,o),
(320,400,cs),
(89,400,l)
);
},
{
closed = 1;
nodes = (
(427,342,o),
(501,297,o),
(501,197,cs),
(501,113,o),
(444,58,o),
(318,60,cs),
(174,62,l),
(171,337,l),
(320,340,ls)
);
}
);
};
layerId = m002;
shapes = (
{
closed = 1;
nodes = (
(171,398,l),
(174,640,l),
(258,642,ls),
(384,645,o),
(426,587,o),
(426,513,cs),
(426,427,o),
(352,392,o),
(295,394,cs)
);
},
{
closed = 1;
nodes = (
(292,0,ls),
(470,0,o),
(556,102,o),
(556,199,cs),
(556,273,o),
(517,343,o),
(423,378,c),
(487,406,o),
(516,465,o),
(516,531,cs),
(516,598,o),
(480,700,o),
(282,700,cs),
(85,700,l),
(89,368,l),
(85,0,l)
);
},
{
closed = 1;
nodes = (
(293,339,ls),
(393,341,o),
(461,293,o),
(461,197,cs),
(461,113,o),
(404,56,o),
(298,58,cs),
(174,60,l),
(171,337,l)
);
}
);
width = 611;
},
{
anchors = (
{
name = bottom;
pos = (313,0);
},
{
name = center;
pos = (288,350);
},
{
name = top;
pos = (263,700);
}
);
background = {
shapes = (
{
closed = 1;
nodes = (
(188,403,l),
(240,638,l),
(325,640,ls),
(452,643,o),
(482,587,o),
(466,513,cs),
(448,427,o),
(367,397,o),
(311,399,cs)
);
},
{
closed = 1;
nodes = (
(223,0,ls),
(401,0,o),
(509,102,o),
(529,199,cs),
(545,273,o),
(521,343,o),
(434,378,c),
(504,406,o),
(546,465,o),
(560,531,cs),
(574,598,o),
(560,700,o),
(362,700,cs),
(165,700,l),
(98,368,l),
(16,0,l)
);
},
{
closed = 1;
nodes = (
(296,339,ls),
(396,341,o),
(454,293,o),
(434,197,cs),
(416,113,o),
(347,58,o),
(242,60,cs),
(118,62,l),
(173,337,l)
);
}
);
};
layerId = m003;
shapes = (
{
closed = 1;
nodes = (
(177,403,l),
(213,638,l),
(297,640,ls),
(394,642,o),
(444,603,o),
(450,527,cs),
(455,452,o),
(379,396,o),
(300,399,cs)
);
},
{
closed = 1;
nodes = (
(281,0,ls),
(425,0,o),
(545,97,o),
(536,220,cs),
(531,288,o),
(490,352,o),
(425,378,c),
(514,415,o),
(547,484,o),
(543,547,cs),
(538,610,o),
(494,700,o),
(329,700,cs),
(132,700,l),
(90,368,l),
(34,0,l)
);
},
{
closed = 1;
nodes = (
(290,339,ls),
(376,340,o),
(435,285,o),
(441,213,cs),
(447,128,o),
(390,58,o),
(255,60,cs),
(132,62,l),
(167,337,l)
);
}
);
width = 590;
},
{
anchors = (
{
name = bottom;
pos = (295,0);
},
{
name = center;
pos = (295,350);
},
{
name = top;
pos = (295,700);
}
);
background = {
shapes = (
{
closed = 1;
nodes = (
(69,0,l),
(316,0,ls),
(524,0,o),
(585,102,o),
(585,199,cs),
(585,318,o),
(473,400,o),
(304,400,cs),
(73,400,l)
);
},
{
closed = 1;
nodes = (
(411,342,o),
(485,297,o),
(485,197,cs),
(485,113,o),
(428,58,o),
(302,60,cs),
(158,62,l),
(155,337,l),
(304,340,ls)
);
}
);
};
layerId = m006;
shapes = (
{
closed = 1;
nodes = (
(105,388,l),
(108,668,l),
(302,670,ls),
(428,671,o),
(465,587,o),
(465,523,cs),
(465,427,o),
(386,383,o),
(329,384,cs)
);
},
{
closed = 1;
nodes = (
(276,0,ls),
(454,0,o),
(540,102,o),
(540,199,cs),
(540,273,o),
(491,343,o),
(397,378,c),
(461,406,o),
(500,465,o),
(500,531,cs),
(500,598,o),
(464,700,o),
(296,700,cs),
(69,700,l),
(73,368,l),
(69,0,l)
);
},
{
closed = 1;
nodes = (
(327,359,ls),
(427,360,o),
(505,293,o),
(505,197,cs),
(505,113,o),
(438,28,o),
(282,30,cs),
(108,32,l),
(105,357,l)
);
}
);
width = 590;
},
{
anchors = (
{
name = bottom;
pos = (246,0);
},
{
name = center;
pos = (295,350);
},
{
name = top;
pos = (344,700);
}
);
background = {
shapes = (
{
closed = 1;
nodes = (
(69,0,l),
(316,0,ls),
(524,0,o),
(585,102,o),
(585,199,cs),
(585,318,o),
(473,400,o),
(304,400,cs),
(73,400,l)
);
},
{
closed = 1;
nodes = (
(411,342,o),
(485,297,o),
(485,197,cs),
(485,113,o),
(428,58,o),
(302,60,cs),
(158,62,l),
(155,337,l),
(304,340,ls)
);
}
);
};
layerId = m007;
shapes = (
{
closed = 1;
nodes = (
(110,388,l),
(153,668,l),
(347,670,ls),
(473,671,o),
(498,587,o),
(489,523,cs),
(476,427,o),
(391,383,o),
(334,384,cs)
);
},
{
closed = 1;
nodes = (
(227,0,ls),
(405,0,o),
(505,102,o),
(519,199,cs),
(529,273,o),
(490,343,o),
(401,378,c),
(469,406,o),
(516,465,o),
(525,531,cs),
(535,598,o),
(513,700,o),
(345,700,cs),
(118,700,l),
(76,368,l),
(20,0,l)
);
},
{
closed = 1;
nodes = (
(328,359,ls),
(428,360,o),
(497,293,o),
(483,197,cs),
(472,113,o),
(393,28,o),
(237,30,cs),
(63,32,l),
(106,357,l)
);
}
);
width = 590;
},
{
anchors = (
{
name = bottom;
pos = (311,0);
},
{
name = center;
pos = (311,350);
},
{
name = top;
pos = (311,700);
}
);
background = {
shapes = (
{
closed = 1;
nodes = (
(171,398,l),
(174,640,l),
(258,642,ls),
(384,645,o),
(426,587,o),
(426,513,cs),
(426,427,o),
(352,392,o),
(295,394,cs)
);
},
{
closed = 1;
nodes = (
(292,0,ls),
(470,0,o),
(556,102,o),
(556,199,cs),
(556,273,o),
(517,343,o),
(423,378,c),
(487,406,o),
(516,465,o),
(516,531,cs),
(516,598,o),
(480,700,o),
(282,700,cs),
(85,700,l),
(89,368,l),
(85,0,l)
);
},
{
closed = 1;
nodes = (
(293,339,ls),
(393,341,o),
(461,293,o),
(461,197,cs),
(461,113,o),
(404,56,o),
(298,58,cs),
(174,60,l),
(171,337,l)
);
}
);
};
layerId = m008;
shapes = (
{
closed = 1;
nodes = (
(191,408,l),
(194,620,l),
(278,622,ls),
(364,624,o),
(406,577,o),
(406,513,cs),
(406,437,o),
(352,406,o),
(275,407,cs)
);
},
{
closed = 1;
nodes = (
(322,0,ls),
(480,0,o),
(556,102,o),
(556,199,cs),
(556,273,o),
(517,343,o),
(423,378,c),
(487,406,o),
(516,465,o),
(516,531,cs),
(516,598,o),
(460,700,o),
(302,700,cs),
(85,700,l),
(89,368,l),
(85,0,l)
);
},
{
closed = 1;
nodes = (
(303,329,ls),
(383,330,o),
(441,283,o),
(441,197,cs),
(441,123,o),
(384,83,o),
(298,85,cs),
(194,87,l),
(191,327,l)
);
}
);
width = 611;
},
{
anchors = (
{
name = bottom;
pos = (276,0);
},
{
name = center;
pos = (325,350);
},
{
name = top;
pos = (374,700);
}
);
background = {
shapes = (
{
closed = 1;
nodes = (
(171,398,l),
(174,640,l),
(258,642,ls),
(384,645,o),
(426,587,o),
(426,513,cs),
(426,427,o),
(352,392,o),
(295,394,cs)
);
},
{
closed = 1;
nodes = (
(292,0,ls),
(470,0,o),
(556,102,o),
(556,199,cs),
(556,273,o),
(517,343,o),
(423,378,c),
(487,406,o),
(516,465,o),
(516,531,cs),
(516,598,o),
(480,700,o),
(282,700,cs),
(85,700,l),
(89,368,l),
(85,0,l)
);
},
{
closed = 1;
nodes = (
(293,339,ls),
(393,341,o),
(461,293,o),
(461,197,cs),
(461,113,o),
(404,56,o),
(298,58,cs),
(174,60,l),
(171,337,l)
);
}
);
};
layerId = m009;
shapes = (
{
closed = 1;
nodes = (
(213,408,l),
(246,620,l),
(330,622,ls),
(417,624,o),
(452,577,o),
(443,513,cs),
(432,437,o),
(374,406,o),
(297,407,cs)
);
},
{
closed = 1;
nodes = (
(287,0,ls),
(445,0,o),
(535,102,o),
(549,199,cs),
(559,273,o),
(530,343,o),
(441,378,c),
(509,406,o),
(546,465,o),
(555,531,cs),
(565,598,o),
(523,700,o),
(365,700,cs),
(148,700,l),
(106,368,l),
(50,0,l)
);
},
{
closed = 1;
nodes = (
(314,329,ls),
(394,330,o),
(446,283,o),
(434,197,cs),
(423,123,o),
(361,83,o),
(275,85,cs),
(171,87,l),
(202,327,l)
);
}
);
width = 611;
}
);
unicode = 66;
}
{
glyphname = C;
layers = (
{
anchors = (
{
name = bottom;
pos = (357,0);
},
{
name = top;
pos = (397,700);
}
);
background = {
anchors = (
{
name = bottom;
pos = (357,0);
},
{
name = top;
pos = (357,700);
}
);
shapes = (
{
closed = 1;
nodes = (
(623,656,l),
(549,696,o),
(491,709,o),
(432,709,cs),
(265,709,o),
(60,567,o),
(60,340,cs),
(60,125,o),
(236,-10,o),
(394,-10,cs),
(480,-10,o),
(572,22,o),
(653,92,c),
(628,132,l),
(561,94,o),
(494,69,o),
(427,69,cs),
(297,69,o),
(149,165,o),
(149,364,cs),
(149,538,o),
(263,628,o),
(400,628,cs),
(466,628,o),
(537,606,o),
(603,564,c)
);
}
);
};
layerId = m002;
shapes = (
{
closed = 1;
nodes = (
(623,656,l),
(549,696,o),
(491,709,o),
(432,709,cs),
(265,709,o),
(60,567,o),
(60,340,cs),
(60,125,o),
(236,-10,o),
(394,-10,cs),
(480,-10,o),
(572,22,o),
(653,92,c),
(628,132,l),
(561,94,o),
(494,69,o),
(427,69,cs),
(297,69,o),
(149,165,o),
(149,364,cs),
(149,538,o),
(263,628,o),
(400,628,cs),
(466,628,o),
(537,606,o),
(603,564,c)
);
}
);
width = 683;
},
{
anchors = (
{
name = bottom;
pos = (337,0);
},
{
name = top;
pos = (465,700);
}
);
background = {
anchors = (
{
name = bottom;
pos = (342,0);
},
{
name = top;
pos = (342,700);
}
);
shapes = (
{
closed = 1;
nodes = (
(608,656,l),
(534,696,o),
(476,709,o),
(417,709,cs),
(250,709,o),
(45,567,o),
(45,340,cs),
(45,125,o),
(221,-10,o),
(379,-10,cs),
(465,-10,o),
(557,22,o),
(638,92,c),
(613,132,l),
(546,94,o),
(479,69,o),
(412,69,cs),
(282,69,o),
(134,165,o),
(134,364,cs),
(134,538,o),
(248,628,o),
(385,628,cs),
(451,628,o),
(522,606,o),
(588,564,c)
);
}
);
};
layerId = m003;
shapes = (
{
closed = 1;
nodes = (
(665,656,l),
(597,696,o),
(541,709,o),
(462,709,cs),
(267,709,o),
(37,523,o),
(53,283,cs),
(64,113,o),
(205,-10,o),
(342,-10,cs),
(428,-10,o),
(525,22,o),
(616,92,c),
(596,132,l),
(524,94,o),
(454,69,o),
(387,69,cs),
(274,69,o),
(157,141,o),
(147,290,cs),
(134,492,o),
(257,628,o),
(418,628,cs),
(504,628,o),
(572,606,o),
(632,564,c)
);
}
);
width = 683;
},
{
anchors = (
{
name = bottom;
pos = (342,0);
},
{
name = top;
pos = (382,700);
}
);
background = {
shapes = (
{
closed = 1;
nodes = (
(608,656,l),
(534,696,o),
(476,709,o),
(417,709,cs),
(250,709,o),
(45,567,o),
(45,340,cs),
(45,125,o),
(221,-10,o),
(379,-10,cs),
(465,-10,o),
(557,22,o),
(638,92,c),
(613,132,l),
(546,94,o),
(479,69,o),
(412,69,cs),
(282,69,o),
(134,165,o),
(134,364,cs),
(134,538,o),
(248,628,o),
(385,628,cs),
(451,628,o),
(522,606,o),
(588,564,c)
);
},
{
closed = 1;
nodes = (
(213,710,o),
(48,556,o),
(48,350,cs),
(48,148,o),
(206,-10,o),
(386,-10,cs),
(582,-10,o),
(748,144,o),
(748,352,cs),
(748,561,o),
(589,710,o),
(409,710,cs)
);
},
{
closed = 1;
nodes = (
(83,541,o),
(222,682,o),
(395,682,cs),
(555,682,o),
(712,549,o),
(712,341,cs),
(712,157,o),
(570,18,o),
(399,18,cs),
(235,18,o),
(83,159,o),
(83,360,cs)
);
}
);
};
layerId = m006;
shapes = (
{
closed = 1;
nodes = (
(608,656,l),
(534,696,o),
(476,709,o),
(417,709,cs),
(230,709,o),
(45,567,o),
(45,320,cs),
(45,125,o),
(201,-10,o),
(379,-10,cs),
(465,-10,o),
(557,22,o),
(638,92,c),
(623,112,l),
(545,51,o),
(466,24,o),
(394,24,cs),
(201,24,o),
(84,156,o),
(84,344,cs),
(84,557,o),
(233,676,o),
(398,676,cs),
(465,676,o),
(535,656,o),
(598,614,c)
);
}
);
width = 683;
},
{
anchors = (
{
name = bottom;
pos = (293,0);
},
{
name = top;
pos = (431,700);
}
);
background = {
shapes = (
{
closed = 1;
nodes = (
(608,656,l),
(534,696,o),
(476,709,o),
(417,709,cs),
(250,709,o),
(45,567,o),
(45,340,cs),
(45,125,o),
(221,-10,o),
(379,-10,cs),
(465,-10,o),
(557,22,o),
(638,92,c),
(613,132,l),
(546,94,o),
(479,69,o),
(412,69,cs),
(282,69,o),
(134,165,o),
(134,364,cs),
(134,538,o),
(248,628,o),
(385,628,cs),
(451,628,o),
(522,606,o),
(588,564,c)
);
},
{
closed = 1;
nodes = (
(213,710,o),
(48,556,o),
(48,350,cs),
(48,148,o),
(206,-10,o),
(386,-10,cs),
(582,-10,o),
(748,144,o),
(748,352,cs),
(748,561,o),
(589,710,o),
(409,710,cs)
);
},
{
closed = 1;
nodes = (
(83,541,o),
(222,682,o),
(395,682,cs),
(555,682,o),
(712,549,o),
(712,341,cs),
(712,157,o),
(570,18,o),
(399,18,cs),
(235,18,o),
(83,159,o),
(83,360,cs)
);
}
);
};
layerId = m007;
shapes = (
{
closed = 1;
nodes = (
(651,656,l),
(583,696,o),
(526,709,o),
(467,709,cs),
(280,709,o),
(75,567,o),
(44,340,cs),
(13,125,o),
(170,-10,o),
(328,-10,cs),
(414,-10,o),
(511,22,o),
(602,92,c),
(590,112,l),
(503,51,o),
(420,24,o),
(348,24,cs),
(175,24,o),
(57,156,o),
(86,364,cs),
(113,557,o),
(279,676,o),
(444,676,cs),
(511,676,o),
(578,656,o),
(635,614,c)
);
}
);
width = 683;
},
{
anchors = (
{
name = bottom;
pos = (372,0);
},
{
name = top;
pos = (412,700);
}
);
background = {
shapes = (
{
closed = 1;
nodes = (
(628,656,l),
(554,696,o),
(496,709,o),
(437,709,cs),
(270,709,o),
(65,567,o),
(65,340,cs),
(65,125,o),
(241,-10,o),
(399,-10,cs),
(485,-10,o),
(577,22,o),
(658,92,c),
(633,132,l),
(566,94,o),
(499,69,o),
(432,69,cs),
(302,69,o),
(154,165,o),
(154,364,cs),
(154,538,o),
(268,628,o),
(405,628,cs),
(471,628,o),
(542,606,o),
(608,564,c)
);
}
);
};
layerId = m008;
shapes = (
{
closed = 1;
nodes = (
(628,656,l),
(554,696,o),
(496,709,o),
(437,709,cs),
(270,709,o),
(56,577,o),
(60,330,cs),
(63,145,o),
(206,-10,o),
(394,-10,cs),
(470,-10,o),
(567,22,o),
(653,92,c),
(618,152,l),
(547,110,o),
(477,89,o),
(413,89,cs),
(255,89,o),
(167,230,o),
(167,351,cs),
(167,481,o),
(244,611,o),
(407,611,cs),
(470,611,o),
(539,593,o),
(608,557,c)
);
}
);
width = 683;
},
{
anchors = (
{
name = bottom;
pos = (337,0);
},
{
name = top;
pos = (475,700);
}
);
background = {
shapes = (
{
closed = 1;
nodes = (
(628,656,l),
(554,696,o),
(496,709,o),
(437,709,cs),
(270,709,o),
(65,567,o),
(65,340,cs),
(65,125,o),
(241,-10,o),
(399,-10,cs),
(485,-10,o),
(577,22,o),
(658,92,c),
(633,132,l),
(566,94,o),
(499,69,o),
(432,69,cs),
(302,69,o),
(154,165,o),
(154,364,cs),
(154,538,o),
(268,628,o),
(405,628,cs),
(471,628,o),
(542,606,o),
(608,564,c)
);
}
);
};
layerId = m009;
shapes = (
{
closed = 1;
nodes = (
(685,656,l),
(617,696,o),
(561,709,o),
(502,709,cs),
(335,709,o),
(103,577,o),
(73,350,cs),
(48,155,o),
(179,-10,o),
(357,-10,cs),
(433,-10,o),
(535,22,o),
(631,92,c),
(604,152,l),
(527,110,o),
(454,89,o),
(390,89,cs),
(212,89,o),
(164,230,o),
(184,371,cs),
(199,481,o),
(295,611,o),
(458,611,cs),
(521,611,o),
(587,593,o),
(651,557,c)
);
}
);
width = 683;
}
);
unicode = 67;
}
{
glyphname = D;
layers = (
{
anchors = (
{
name = bottom;
pos = (363,0);
},
{
name = center;
pos = (363,350);
},
{
name = top;
pos = (313,700);
}
);
background = {
anchors = (
{
name = bottom;
pos = (363,0);
},
{
name = center;
pos = (363,350);
},
{
name = top;
pos = (313,700);
}
);
hints = (
{
name = _corner.serif;
place = (128,0);
scale = (-0.8,1.5);
type = Corner;
},
{
name = _corner.serif;
place = (128,0);
scale = (0.8,1.5);
type = Corner;
},
{
name = _corner.mitre;
place = (207,0);
type = Corner;
},
{
name = _corner.mitre;
place = (207,0);
type = Corner;
}
);
shapes = (
{
closed = 1;
nodes = (
(85,250,l),
(75,0,l),
(301,0,ls),
(493,0,o),
(665,144,o),
(665,352,cs),
(665,521,o),
(550,700,o),
(314,700,cs),
(80,700,l)
);
},
{
closed = 1;
nodes = (
(169,635,l),
(301,640,l),
(460,640,o),
(571,531,o),
(571,336,cs),
(571,149,o),
(439,66,o),
(303,60,c),
(174,66,l),
(165,250,l)
);
}
);
};
layerId = m002;
shapes = (
{
closed = 1;
nodes = (
(85,250,l),
(75,0,l),
(301,0,ls),
(493,0,o),
(665,144,o),
(665,352,cs),
(665,521,o),
(550,700,o),
(314,700,cs),
(80,700,l)
);
},
{
closed = 1;
nodes = (
(169,635,l),
(301,640,l),
(460,640,o),
(571,531,o),
(571,336,cs),
(571,149,o),
(439,66,o),
(303,60,c),
(174,66,l),
(165,250,l)
);
}
);
width = 715;
},
{
anchors = (
{
name = bottom;
pos = (318,0);
},
{
name = center;
pos = (367,350);
},
{
name = top;
pos = (366,700);
}
);
background = {
hints = (
{
name = _corner.serif;
place = (128,0);
scale = (-0.8,1.5);
type = Corner;
},
{
name = _corner.serif;
place = (128,0);
scale = (0.8,1.5);
type = Corner;
},
{
name = _corner.mitre;
place = (207,0);
type = Corner;
},
{
name = _corner.mitre;
place = (207,0);
type = Corner;
}
);
shapes = (
{
closed = 1;
nodes = (
(75,250,l),
(12,0,l),
(238,0,ls),
(430,0,o),
(632,144,o),
(677,352,cs),
(713,521,o),
(636,700,o),
(400,700,cs),
(166,700,l)
);
},
{
closed = 1;
nodes = (
(241,635,l),
(374,640,l),
(533,640,o),
(621,531,o),
(579,336,cs),
(540,149,o),
(390,66,o),
(253,60,c),
(125,66,l),
(155,250,l)
);
}
);
};
layerId = m003;
shapes = (
{
closed = 1;
nodes = (
(75,250,l),
(30,0,l),
(256,0,ls),
(533,0,o),
(709,206,o),
(694,410,cs),
(681,592,o),
(538,700,o),
(338,700,cs),
(133,700,l)
);
},
{
closed = 1;
nodes = (
(213,635,l),
(326,640,l),
(458,640,o),
(586,575,o),
(598,397,cs),
(611,216,o),
(497,69,o),
(247,60,c),
(138,66,l),
(155,250,l)
);
}
);
width = 732;
},
{
anchors = (
{
name = bottom;
pos = (353,0);
},
{
name = center;
pos = (353,350);
},
{
name = top;
pos = (303,700);
}
);
background = {
hints = (
{
name = _corner.serif;
place = (128,0);
scale = (-0.8,1.5);
type = Corner;
},
{
name = _corner.serif;
place = (128,0);
scale = (0.8,1.5);
type = Corner;
},
{
name = _corner.mitre;
place = (207,0);
type = Corner;
},
{
name = _corner.mitre;
place = (207,0);
type = Corner;
}
);
shapes = (
{
closed = 1;
nodes = (
(75,250,l),
(65,0,l),
(291,0,ls),
(483,0,o),
(655,144,o),
(655,352,cs),
(655,521,o),
(540,700,o),
(304,700,cs),
(70,700,l)
);
},
{
closed = 1;
nodes = (
(159,635,l),
(291,640,l),
(450,640,o),
(561,531,o),
(561,336,cs),
(561,149,o),
(429,66,o),
(293,60,c),
(164,66,l),
(155,250,l)
);
}
);
};
layerId = m006;
shapes = (
{
closed = 1;
nodes = (
(75,250,l),
(72,0,l),
(291,0,ls),
(493,0,o),
(655,144,o),
(655,352,cs),
(655,521,o),
(550,700,o),
(304,700,cs),
(70,700,l)
);
},
{
closed = 1;
nodes = (
(106,668,l),
(291,670,l),
(470,670,o),
(621,571,o),
(621,336,cs),
(621,109,o),
(419,25,o),
(293,28,cs),
(109,33,l),
(105,250,l)
);
}
);
width = 705;
},
{
anchors = (
{
name = bottom;
pos = (304,0);
},
{
name = center;
pos = (353,350);
},
{
name = top;
pos = (352,700);
}
);
background = {
hints = (
{
name = _corner.serif;
place = (128,0);
scale = (-0.8,1.5);
type = Corner;
},
{
name = _corner.serif;
place = (128,0);
scale = (0.8,1.5);
type = Corner;
},
{
name = _corner.mitre;
place = (207,0);
type = Corner;
},
{
name = _corner.mitre;
place = (207,0);
type = Corner;
}
);
shapes = (
{
closed = 1;
nodes = (
(75,250,l),
(65,0,l),
(291,0,ls),
(483,0,o),
(655,144,o),
(655,352,cs),
(655,521,o),
(540,700,o),
(304,700,cs),
(70,700,l)
);
},
{
closed = 1;
nodes = (
(159,635,l),
(291,640,l),
(450,640,o),
(561,531,o),
(561,336,cs),
(561,149,o),
(429,66,o),
(293,60,c),
(164,66,l),
(155,250,l)
);
}
);
};
layerId = m007;
shapes = (
{
closed = 1;
nodes = (
(61,250,l),
(23,0,l),
(242,0,ls),
(444,0,o),
(626,144,o),
(655,352,cs),
(679,521,o),
(599,700,o),
(353,700,cs),
(119,700,l)
);
},
{
closed = 1;
nodes = (
(151,668,l),
(336,670,l),
(515,670,o),
(652,571,o),
(619,336,cs),
(587,109,o),
(373,25,o),
(248,28,cs),
(64,33,l),
(91,250,l)
);
}
);
width = 705;
},
{
anchors = (
{
name = bottom;
pos = (363,0);
},
{
name = center;
pos = (363,350);
},
{
name = top;
pos = (313,700);
}
);
background = {
anchors = (
{
name = bottom;
pos = (363,0);
},
{
name = center;
pos = (363,350);
},
{
name = top;
pos = (313,700);
}
);
hints = (
{
name = _corner.serif;
place = (128,0);
scale = (-0.8,1.5);
type = Corner;
},
{
name = _corner.serif;
place = (128,0);
scale = (0.8,1.5);
type = Corner;
},
{
name = _corner.mitre;
place = (207,0);
type = Corner;
},
{
name = _corner.mitre;
place = (207,0);
type = Corner;
}
);
shapes = (
{
closed = 1;
nodes = (
(85,250,l),
(75,0,l),
(301,0,ls),
(493,0,o),
(665,144,o),
(665,352,cs),
(665,521,o),
(550,700,o),
(314,700,cs),
(80,700,l)
);
},
{
closed = 1;
nodes = (
(169,635,l),
(301,640,l),
(460,640,o),
(571,531,o),
(571,336,cs),
(571,149,o),
(439,66,o),
(303,60,c),
(174,66,l),
(165,250,l)
);
}
);
};
layerId = m008;
shapes = (
{
closed = 1;
nodes = (
(85,250,l),
(75,0,l),
(301,0,ls),
(533,0,o),
(685,144,o),
(685,352,cs),
(685,521,o),
(580,700,o),
(324,700,cs),
(80,700,l)
);
},
{
closed = 1;
nodes = (
(189,610,l),
(291,613,ls),
(450,618,o),
(571,531,o),
(571,336,cs),
(571,149,o),
(419,85,o),
(303,88,cs),
(194,91,l),
(185,250,l)
);
}
);
width = 735;
},
{
anchors = (
{
name = bottom;
pos = (328,0);
},
{
name = center;
pos = (377,350);
},
{
name = top;
pos = (376,700);
}
);
background = {
anchors = (
{
name = bottom;
pos = (363,0);
},
{
name = center;
pos = (363,350);
},
{
name = top;
pos = (313,700);
}
);
hints = (
{
name = _corner.serif;
place = (128,0);
scale = (-0.8,1.5);
type = Corner;
},
{
name = _corner.serif;
place = (128,0);
scale = (0.8,1.5);
type = Corner;
},
{
name = _corner.mitre;
place = (207,0);
type = Corner;
},
{
name = _corner.mitre;
place = (207,0);
type = Corner;
}
);
shapes = (
{
closed = 1;
nodes = (
(85,250,l),
(75,0,l),
(301,0,ls),
(493,0,o),
(665,144,o),
(665,352,cs),
(665,521,o),
(550,700,o),
(314,700,cs),
(80,700,l)
);
},
{
closed = 1;
nodes = (
(169,635,l),
(301,640,l),
(460,640,o),
(571,531,o),
(571,336,cs),
(571,149,o),
(439,66,o),
(303,60,c),
(174,66,l),
(165,250,l)
);
}
);
};
layerId = m009;
shapes = (
{
closed = 1;
nodes = (
(85,250,l),
(40,0,l),
(266,0,ls),
(498,0,o),
(670,144,o),
(699,352,cs),
(723,521,o),
(643,700,o),
(387,700,cs),
(143,700,l)
);
},
{
closed = 1;
nodes = (
(240,610,l),
(342,613,ls),
(502,618,o),
(610,531,o),
(583,336,cs),
(557,149,o),
(396,85,o),
(280,88,cs),
(172,91,l),
(185,250,l)
);
}
);
width = 735;
}
);
unicode = 68;
}
{
glyphname = F;
layers = (
{
anchors = (
{
name = bottom;
pos = (275,0);
},
{
name = top;
pos = (275,700);
}
);
background = {
anchors = (
{
name = bottom;
pos = (275,0);
},
{
name = top;
pos = (275,700);
}
);
shapes = (
{
closed = 1;
nodes = (
(440,385,l),
(280,380,l),
(160,380,l),
(160,320,l),
(280,320,l),
(440,315,l)
);
},
{
closed = 1;
nodes = (
(90,500,l),
(85,0,l),
(180,0,l),
(170,250,l),
(175,700,l),
(85,700,l)
);
},
{
closed = 1;
nodes = (
(170,635,l),
(260,640,l),
(510,620,l),
(510,700,l),
(170,700,l)
);
}
);
};
layerId = m002;
shapes = (
{
closed = 1;
nodes = (
(440,385,l),
(280,380,l),
(160,380,l),
(160,320,l),
(280,320,l),
(440,315,l)
);
},
{
closed = 1;
nodes = (
(90,500,l),
(85,0,l),
(180,0,l),
(170,250,l),
(175,700,l),
(85,700,l)
);
},
{
closed = 1;
nodes = (
(170,635,l),
(260,640,l),
(510,620,l),
(510,700,l),
(170,700,l)
);
}
);
width = 545;
},
{
anchors = (
{
name = bottom;
pos = (220,0);
},
{
name = top;
pos = (318,700);
}
);
background = {
anchors = (
{
name = bottom;
pos = (255,0);
},
{
name = top;
pos = (255,700);
}
);
shapes = (
{
closed = 1;
nodes = (
(420,385,l),
(260,380,l),
(140,380,l),
(140,320,l),
(260,320,l),
(420,315,l)
);
},
{
closed = 1;
nodes = (
(70,500,l),
(65,0,l),
(160,0,l),
(150,250,l),
(155,700,l),
(65,700,l)
);
},
{
closed = 1;
nodes = (
(150,635,l),
(240,640,l),
(490,620,l),
(490,700,l),
(150,700,l)
);
}
);
};
layerId = m003;
shapes = (
{
closed = 1;
nodes = (
(439,385,l),
(278,380,l),
(158,380,l),
(150,320,l),
(270,320,l),
(429,315,l)
);
},
{
closed = 1;
nodes = (
(105,500,l),
(30,0,l),
(125,0,l),
(150,250,l),
(218,700,l),
(128,700,l)
);
},
{
closed = 1;
nodes = (
(204,635,l),
(295,640,l),
(542,620,l),
(553,700,l),
(213,700,l)
);
}
);
width = 510;
},
{
anchors = (
{
name = bottom;
pos = (255,0);
},
{
name = top;
pos = (255,700);
}
);
background = {
shapes = (
{
closed = 1;
nodes = (
(420,385,l),
(260,380,l),
(140,380,l),
(140,320,l),
(260,320,l),
(420,315,l)
);
},
{
closed = 1;
nodes = (
(70,500,l),
(65,0,l),
(160,0,l),
(150,250,l),
(155,700,l),
(65,700,l)
);
},
{
closed = 1;
nodes = (
(150,635,l),
(240,640,l),
(490,620,l),
(490,700,l),
(150,700,l)
);
}
);
};
layerId = m006;
shapes = (
{
closed = 1;
nodes = (
(420,370,l),
(160,365,l),
(100,365,l),
(100,340,l),
(160,340,l),
(420,335,l)
);
},
{
closed = 1;
nodes = (
(69,500,l),
(67,0,l),
(104,0,l),
(101,250,l),
(103,700,l),
(66,700,l)
);
},
{
closed = 1;
nodes = (
(90,670,l),
(160,675,l),
(490,665,l),
(490,700,l),
(90,700,l)
);
}
);
width = 510;
},
{
anchors = (
{
name = bottom;
pos = (206,0);
},
{
name = top;
pos = (304,700);
}
);
background = {
shapes = (
{
closed = 1;
nodes = (
(420,385,l),
(260,380,l),
(140,380,l),
(140,320,l),
(260,320,l),
(420,315,l)
);
},
{
closed = 1;
nodes = (
(70,500,l),
(65,0,l),
(160,0,l),
(150,250,l),
(155,700,l),
(65,700,l)
);
},
{
closed = 1;
nodes = (
(150,635,l),
(240,640,l),
(490,620,l),
(490,700,l),
(150,700,l)
);
}
);
};
layerId = m007;
shapes = (
{
closed = 1;
nodes = (
(423,370,l),
(162,365,l),
(102,365,l),
(99,340,l),
(159,340,l),
(418,335,l)
);
},
{
closed = 1;
nodes = (
(90,500,l),
(18,0,l),
(55,0,l),
(87,250,l),
(152,700,l),
(115,700,l)
);
},
{
closed = 1;
nodes = (
(135,670,l),
(206,675,l),
(534,665,l),
(539,700,l),
(139,700,l)
);
}
);
width = 510;
},
{
anchors = (
{
name = bottom;
pos = (275,0);
},
{
name = top;
pos = (275,700);
}
);
background = {
shapes = (
{
closed = 1;
nodes = (
(440,385,l),
(280,380,l),
(160,380,l),
(160,320,l),
(280,320,l),
(440,315,l)
);
},
{
closed = 1;
nodes = (
(90,500,l),
(85,0,l),
(180,0,l),
(170,250,l),
(175,700,l),
(85,700,l)
);
},
{
closed = 1;
nodes = (
(170,635,l),
(260,640,l),
(510,620,l),
(510,700,l),
(170,700,l)
);
}
);
};
layerId = m008;
shapes = (
{
closed = 1;
nodes = (
(435,395,l),
(275,390,l),
(155,390,l),
(155,310,l),
(275,310,l),
(435,305,l)
);
},
{
closed = 1;
nodes = (
(85,500,l),
(80,0,l),
(190,0,l),
(185,250,l),
(190,700,l),
(80,700,l)
);
},
{
closed = 1;
nodes = (
(165,615,l),
(255,620,l),
(510,600,l),
(510,700,l),
(165,700,l)
);
}
);
width = 545;
},
{
anchors = (
{
name = bottom;
pos = (240,0);
},
{
name = top;
pos = (338,700);
}
);
background = {
shapes = (
{
closed = 1;
nodes = (
(440,385,l),
(280,380,l),
(160,380,l),
(160,320,l),
(280,320,l),
(440,315,l)
);
},
{
closed = 1;
nodes = (
(90,500,l),
(85,0,l),
(180,0,l),
(170,250,l),
(175,700,l),
(85,700,l)
);
},
{
closed = 1;
nodes = (
(170,635,l),
(260,640,l),
(510,620,l),
(510,700,l),
(170,700,l)
);
}
);
};
layerId = m009;
shapes = (
{
closed = 1;
nodes = (
(455,395,l),
(295,390,l),
(175,390,l),
(163,310,l),
(283,310,l),
(443,305,l)
);
},
{
closed = 1;
nodes = (
(120,500,l),
(45,0,l),
(155,0,l),
(185,250,l),
(253,700,l),
(143,700,l)
);
},
{
closed = 1;
nodes = (
(216,615,l),
(307,620,l),
(559,600,l),
(573,700,l),
(228,700,l)
);
}
);
width = 545;
}
);
unicode = 70;
}
{
glyphname = G;
layers = (
{
anchors = (
{
name = bottom;
pos = (392,0);
},
{
name = top;
pos = (402,700);
}
);
background = {
anchors = (
{
name = bottom;
pos = (392,0);
},
{
name = top;
pos = (402,700);
}
);
shapes = (
{
closed = 1;
nodes = (
(623,656,l),
(549,696,o),
(491,709,o),
(432,709,cs),
(265,709,o),
(60,567,o),
(60,340,cs),
(60,125,o),
(236,-10,o),
(394,-10,cs),
(480,-10,o),
(572,22,o),
(653,92,c),
(628,132,l),
(561,94,o),
(494,69,o),
(427,69,cs),
(297,69,o),
(149,165,o),
(149,364,cs),
(149,538,o),
(263,628,o),
(400,628,cs),
(466,628,o),
(537,606,o),
(603,564,c)
);
},
{
closed = 1;
nodes = (
(570,90,l),
(653,92,l),
(645,250,l),
(650,330,l),
(560,330,l)
);
}
);
};
layerId = m002;
shapes = (
{
closed = 1;
nodes = (
(480,-10,o),
(572,22,o),
(653,92,c),
(628,132,l),
(561,94,o),
(494,69,o),
(427,69,cs),
(297,69,o),
(149,165,o),
(149,364,cs),
(149,538,o),
(263,628,o),
(400,628,cs),
(466,628,o),
(537,606,o),
(603,564,c),
(623,656,l),
(549,696,o),
(491,709,o),
(432,709,cs),
(265,709,o),
(60,567,o),
(60,340,cs),
(60,125,o),
(236,-10,o),
(394,-10,cs)
);
},
{
closed = 1;
nodes = (
(653,92,l),
(645,250,l),
(650,330,l),
(560,330,l),
(570,90,l)
);
}
);
width = 713;
},
{
anchors = (
{
name = bottom;
pos = (395,0);
},
{
name = top;
pos = (455,700);
}
);
background = {
shapes = (
{
closed = 1;
nodes = (
(428,-10,o),
(525,22,o),
(616,92,c),
(596,132,l),
(524,94,o),
(454,69,o),
(387,69,cs),
(257,69,o),
(122,165,o),
(150,364,cs),
(174,538,o),
(301,628,o),
(438,628,cs),
(504,628,o),
(572,606,o),
(632,564,c),
(665,656,l),
(597,696,o),
(541,709,o),
(482,709,cs),
(315,709,o),
(90,567,o),
(58,340,cs),
(27,125,o),
(184,-10,o),
(342,-10,cs)
);
},
{
closed = 1;
nodes = (
(616,92,l),
(630,250,l),
(646,330,l),
(556,330,l),
(533,90,l)
);
}
);
};
layerId = m003;
shapes = (
{
closed = 1;
nodes = (
(428,-10,o),
(525,22,o),
(616,92,c),
(596,132,l),
(524,94,o),
(454,69,o),
(387,69,cs),
(274,69,o),
(157,141,o),
(147,290,cs),
(134,492,o),
(257,628,o),
(418,628,cs),
(504,628,o),
(572,606,o),
(632,564,c),
(665,656,l),
(597,696,o),
(541,709,o),
(462,709,cs),
(267,709,o),
(37,523,o),
(53,283,cs),
(64,113,o),
(205,-10,o),
(342,-10,cs)
);
},
{
closed = 1;
nodes = (
(616,92,l),
(630,250,l),
(646,330,l),
(556,330,l),
(533,90,l)
);
}
);
width = 693;
},
{
anchors = (
{
name = bottom;
pos = (377,0);
},
{
name = top;
pos = (387,700);
}
);
background = {
anchors = (
{
name = bottom;
pos = (377,0);
},
{
name = top;
pos = (387,700);
}
);
shapes = (
{
closed = 1;
nodes = (
(608,656,l),
(534,696,o),
(476,709,o),
(417,709,cs),
(250,709,o),
(45,567,o),
(45,340,cs),
(45,125,o),
(221,-10,o),
(379,-10,cs),
(465,-10,o),
(557,22,o),
(638,92,c),
(613,132,l),
(546,94,o),
(479,69,o),
(412,69,cs),
(282,69,o),
(134,165,o),
(134,364,cs),
(134,538,o),
(248,628,o),
(385,628,cs),
(451,628,o),
(522,606,o),
(588,564,c)
);
},
{
closed = 1;
nodes = (
(555,90,l),
(638,92,l),
(630,250,l),
(635,330,l),
(545,330,l)
);
}
);
};
layerId = m006;
shapes = (
{
closed = 1;
nodes = (
(465,-10,o),
(557,22,o),
(638,92,c),
(623,112,l),
(545,51,o),
(466,24,o),
(394,24,cs),
(221,24,o),
(84,156,o),
(84,364,cs),
(84,557,o),
(233,676,o),
(398,676,cs),
(465,676,o),
(535,656,o),
(598,614,c),
(608,656,l),
(534,696,o),
(476,709,o),
(417,709,cs),
(230,709,o),
(45,567,o),
(45,340,cs),
(45,125,o),
(221,-10,o),
(379,-10,cs)
);
},
{
closed = 1;
nodes = (
(638,92,l),
(630,250,l),
(632,330,l),
(595,330,l),
(605,90,l)
);
}
);
width = 693;
},
{
anchors = (
{
name = bottom;
pos = (328,0);
},
{
name = top;
pos = (436,700);
}
);
background = {
anchors = (
{
name = bottom;
pos = (377,0);
},
{
name = top;
pos = (387,700);
}
);
shapes = (
{
closed = 1;
nodes = (
(608,656,l),
(534,696,o),
(476,709,o),
(417,709,cs),
(250,709,o),
(45,567,o),
(45,340,cs),
(45,125,o),
(221,-10,o),
(379,-10,cs),
(465,-10,o),
(557,22,o),
(638,92,c),
(613,132,l),
(546,94,o),
(479,69,o),
(412,69,cs),
(282,69,o),
(134,165,o),
(134,364,cs),
(134,538,o),
(248,628,o),
(385,628,cs),
(451,628,o),
(522,606,o),
(588,564,c)
);
},
{
closed = 1;
nodes = (
(555,90,l),
(638,92,l),
(630,250,l),
(635,330,l),
(545,330,l)
);
}
);
};
layerId = m007;
shapes = (
{
closed = 1;
nodes = (
(414,-10,o),
(511,22,o),
(602,92,c),
(590,112,l),
(503,51,o),
(420,24,o),
(348,24,cs),
(175,24,o),
(57,156,o),
(86,364,cs),
(113,557,o),
(279,676,o),
(444,676,cs),
(511,676,o),
(578,656,o),
(635,614,c),
(651,656,l),
(583,696,o),
(526,709,o),
(467,709,cs),
(280,709,o),
(75,567,o),
(44,340,cs),
(13,125,o),
(170,-10,o),
(328,-10,cs)
);
},
{
closed = 1;
nodes = (
(602,92,l),
(616,250,l),
(629,330,l),
(592,330,l),
(568,90,l)
);
}
);
width = 693;
},
{
anchors = (
{
name = bottom;
pos = (392,0);
},
{
name = top;
pos = (402,700);
}
);
background = {
anchors = (
{
name = bottom;
pos = (392,0);
},
{
name = top;
pos = (402,700);
}
);
shapes = (
{
closed = 1;
nodes = (
(623,656,l),
(549,696,o),
(491,709,o),
(432,709,cs),
(265,709,o),
(60,567,o),
(60,340,cs),
(60,125,o),
(236,-10,o),
(394,-10,cs),
(480,-10,o),
(572,22,o),
(653,92,c),
(628,132,l),
(561,94,o),
(494,69,o),
(427,69,cs),
(297,69,o),
(149,165,o),
(149,364,cs),
(149,538,o),
(263,628,o),
(400,628,cs),
(466,628,o),
(537,606,o),
(603,564,c)
);
},
{
closed = 1;
nodes = (
(570,90,l),
(653,92,l),
(645,250,l),
(650,330,l),
(560,330,l)
);
}
);
};
layerId = m008;
shapes = (
{
closed = 1;
nodes = (
(465,-10,o),
(562,22,o),
(648,92,c),
(603,142,l),
(552,106,o),
(489,87,o),
(426,87,cs),
(293,87,o),
(162,171,o),
(162,351,cs),
(162,481,o),
(249,611,o),
(412,611,cs),
(475,611,o),
(544,593,o),
(613,557,c),
(633,656,l),
(559,696,o),
(501,709,o),
(442,709,cs),
(275,709,o),
(51,577,o),
(55,330,cs),
(58,145,o),
(201,-10,o),
(389,-10,cs)
);
},
{
closed = 1;
nodes = (
(648,92,l),
(640,250,l),
(645,330,l),
(535,330,l),
(545,90,l)
);
}
);
width = 713;
},
{
anchors = (
{
name = bottom;
pos = (357,0);
},
{
name = top;
pos = (465,700);
}
);
background = {
anchors = (
{
name = bottom;
pos = (392,0);
},
{
name = top;
pos = (402,700);
}
);
shapes = (
{
closed = 1;
nodes = (
(623,656,l),
(549,696,o),
(491,709,o),
(432,709,cs),
(265,709,o),
(60,567,o),
(60,340,cs),
(60,125,o),
(236,-10,o),
(394,-10,cs),
(480,-10,o),
(572,22,o),
(653,92,c),
(628,132,l),
(561,94,o),
(494,69,o),
(427,69,cs),
(297,69,o),
(149,165,o),
(149,364,cs),
(149,538,o),
(263,628,o),
(400,628,cs),
(466,628,o),
(537,606,o),
(603,564,c)
);
},
{
closed = 1;
nodes = (
(570,90,l),
(653,92,l),
(645,250,l),
(650,330,l),
(560,330,l)
);
}
);
};
layerId = m009;
shapes = (
{
closed = 1;
nodes = (
(428,-10,o),
(530,22,o),
(626,92,c),
(588,142,l),
(532,106,o),
(466,87,o),
(403,87,cs),
(270,87,o),
(151,171,o),
(176,351,cs),
(194,481,o),
(300,611,o),
(463,611,cs),
(526,611,o),
(592,593,o),
(656,557,c),
(690,656,l),
(622,696,o),
(566,709,o),
(507,709,cs),
(340,709,o),
(97,577,o),
(66,330,cs),
(43,145,o),
(164,-10,o),
(352,-10,cs)
);
},
{
closed = 1;
nodes = (
(626,92,l),
(640,250,l),
(656,330,l),
(546,330,l),
(523,90,l)
);
}
);
width = 713;
}
);
unicode = 71;
}
{
glyphname = H;
layers = (
{
anchors = (
{
name = bottom;
pos = (355,0);
},
{
name = center;
pos = (355,350);
},
{
name = top;
pos = (355,650);
},
{
name = topleft;
pos = (35,700);
}
);
background = {
anchors = (
{
name = bottom;
pos = (355,0);
},
{
name = center;
pos = (355,350);
},
{
name = top;
pos = (355,700);
},
{
name = topleft;
pos = (35,700);
}
);
shapes = (
{
closed = 1;
nodes = (
(555,325,l),
(555,395,l),
(275,390,l),
(155,395,l),
(155,325,l),
(435,330,l)
);
},
{
closed = 1;
nodes = (
(85,500,l),
(80,0,l),
(170,0,l),
(165,250,l),
(170,700,l),
(80,700,l)
);
},
{
closed = 1;
nodes = (
(545,500,l),
(540,0,l),
(630,0,l),
(625,250,l),
(630,700,l),
(540,700,l)
);
}
);
};
layerId = m002;
shapes = (
{
closed = 1;
nodes = (
(555,325,l),
(555,395,l),
(275,390,l),
(155,395,l),
(155,325,l),
(435,330,l)
);
},
{
closed = 1;
nodes = (
(85,500,l),
(80,0,l),
(170,0,l),
(165,250,l),
(170,700,l),
(80,700,l)
);
},
{
closed = 1;
nodes = (
(545,500,l),
(540,0,l),
(630,0,l),
(625,250,l),
(630,700,l),
(540,700,l)
);
}
);
width = 710;
},
{
anchors = (
{
name = bottom;
pos = (305,0);
},
{
name = center;
pos = (354,350);
},
{
name = top;
pos = (398,650);
},
{
name = topleft;
pos = (83,700);
}
);
background = {
anchors = (
{
name = bottom;
pos = (340,0);
},
{
name = center;
pos = (340,350);
},
{
name = top;
pos = (340,700);
},
{
name = topleft;
pos = (20,700);
}
);
shapes = (
{
closed = 1;
nodes = (
(540,325,l),
(540,395,l),
(260,390,l),
(140,395,l),
(140,325,l),
(420,330,l)
);
},
{
closed = 1;
nodes = (
(70,500,l),
(65,0,l),
(155,0,l),
(150,250,l),
(155,700,l),
(65,700,l)
);
},
{
closed = 1;
nodes = (
(530,500,l),
(525,0,l),
(615,0,l),
(610,250,l),
(615,700,l),
(525,700,l)
);
}
);
};
layerId = m003;
shapes = (
{
closed = 1;
nodes = (
(551,325,l),
(560,395,l),
(280,390,l),
(160,395,l),
(151,325,l),
(431,330,l)
);
},
{
closed = 1;
nodes = (
(105,500,l),
(30,0,l),
(120,0,l),
(150,250,l),
(218,700,l),
(128,700,l)
);
},
{
closed = 1;
nodes = (
(565,500,l),
(490,0,l),
(580,0,l),
(610,250,l),
(678,700,l),
(588,700,l)
);
}
);
width = 680;
},
{
anchors = (
{
name = bottom;
pos = (340,0);
},
{
name = center;
pos = (340,350);
},
{
name = top;
pos = (340,600);
},
{
name = topleft;
pos = (20,700);
}
);
background = {
anchors = (
{
name = bottom;
pos = (340,0);
},
{
name = center;
pos = (340,350);
},
{
name = top;
pos = (340,700);
},
{
name = topleft;
pos = (20,700);
}
);
shapes = (
{
closed = 1;
nodes = (
(540,325,l),
(540,395,l),
(260,390,l),
(140,395,l),
(140,325,l),
(420,330,l)
);
},
{
closed = 1;
nodes = (
(70,500,l),
(65,0,l),
(155,0,l),
(150,250,l),
(155,700,l),
(65,700,l)
);
},
{
closed = 1;
nodes = (
(530,500,l),
(525,0,l),
(615,0,l),
(610,250,l),
(615,700,l),
(525,700,l)
);
}
);
};
layerId = m006;
shapes = (
{
closed = 1;
nodes = (
(580,345,l),
(580,380,l),
(220,375,l),
(100,380,l),
(100,345,l),
(460,350,l)
);
},
{
closed = 1;
nodes = (
(69,500,l),
(67,0,l),
(104,0,l),
(101,250,l),
(103,700,l),
(66,700,l)
);
},
{
closed = 1;
nodes = (
(579,500,l),
(577,0,l),
(614,0,l),
(611,250,l),
(613,700,l),
(576,700,l)
);
}
);
width = 680;
},
{
anchors = (
{
name = bottom;
pos = (291,0);
},
{
name = center;
pos = (340,350);
},
{
name = top;
pos = (379,600);
},
{
name = topleft;
pos = (69,700);
}
);
background = {
anchors = (
{
name = bottom;
pos = (340,0);
},
{
name = center;
pos = (340,350);
},
{
name = top;
pos = (340,700);
},
{
name = topleft;
pos = (20,700);
}
);
shapes = (
{
closed = 1;
nodes = (
(540,325,l),
(540,395,l),
(260,390,l),
(140,395,l),
(140,325,l),
(420,330,l)
);
},
{
closed = 1;
nodes = (
(70,500,l),
(65,0,l),
(155,0,l),
(150,250,l),
(155,700,l),
(65,700,l)
);
},
{
closed = 1;
nodes = (
(530,500,l),
(525,0,l),
(615,0,l),
(610,250,l),
(615,700,l),
(525,700,l)
);
}
);
};
layerId = m007;
shapes = (
{
closed = 1;
nodes = (
(579,345,l),
(584,380,l),
(224,375,l),
(104,380,l),
(99,345,l),
(460,350,l)
);
},
{
closed = 1;
nodes = (
(90,500,l),
(18,0,l),
(55,0,l),
(87,250,l),
(152,700,l),
(115,700,l)
);
},
{
closed = 1;
nodes = (
(600,500,l),
(528,0,l),
(565,0,l),
(597,250,l),
(662,700,l),
(625,700,l)
);
}
);
width = 680;
},
{
anchors = (
{
name = bottom;
pos = (365,0);
},
{
name = center;
pos = (365,350);
},
{
name = top;
pos = (365,650);
},
{
name = topleft;
pos = (45,700);
}
);
background = {
anchors = (
{
name = bottom;
pos = (365,0);
},
{
name = center;
pos = (365,350);
},
{
name = top;
pos = (365,700);
},
{
name = topleft;
pos = (45,700);
}
);
shapes = (
{
closed = 1;
nodes = (
(565,325,l),
(565,395,l),
(285,390,l),
(165,395,l),
(165,325,l),
(445,330,l)
);
},
{
closed = 1;
nodes = (
(95,500,l),
(90,0,l),
(180,0,l),
(175,250,l),
(180,700,l),
(90,700,l)
);
},
{
closed = 1;
nodes = (
(555,500,l),
(550,0,l),
(640,0,l),
(635,250,l),
(640,700,l),
(550,700,l)
);
}
);
};
layerId = m008;
shapes = (
{
closed = 1;
nodes = (
(565,310,l),
(565,405,l),
(285,400,l),
(165,405,l),
(165,310,l),
(445,315,l)
);
},
{
closed = 1;
nodes = (
(85,500,l),
(80,0,l),
(190,0,l),
(185,250,l),
(190,700,l),
(80,700,l)
);
},
{
closed = 1;
nodes = (
(545,500,l),
(540,0,l),
(650,0,l),
(645,250,l),
(650,700,l),
(540,700,l)
);
}
);
width = 730;
},
{
anchors = (
{
name = bottom;
pos = (330,0);
},
{
name = center;
pos = (379,350);
},
{
name = top;
pos = (428,650);
},
{
name = topleft;
pos = (108,700);
}
);
background = {
anchors = (
{
name = bottom;
pos = (365,0);
},
{
name = center;
pos = (365,350);
},
{
name = top;
pos = (365,700);
},
{
name = topleft;
pos = (45,700);
}
);
shapes = (
{
closed = 1;
nodes = (
(565,325,l),
(565,395,l),
(285,390,l),
(165,395,l),
(165,325,l),
(445,330,l)
);
},
{
closed = 1;
nodes = (
(95,500,l),
(90,0,l),
(180,0,l),
(175,250,l),
(180,700,l),
(90,700,l)
);
},
{
closed = 1;
nodes = (
(555,500,l),
(550,0,l),
(640,0,l),
(635,250,l),
(640,700,l),
(550,700,l)
);
}
);
};
layerId = m009;
shapes = (
{
closed = 1;
nodes = (
(573,310,l),
(587,405,l),
(306,400,l),
(187,405,l),
(173,310,l),
(454,315,l)
);
},
{
closed = 1;
nodes = (
(120,500,l),
(45,0,l),
(155,0,l),
(185,250,l),
(253,700,l),
(143,700,l)
);
},
{
closed = 1;
nodes = (
(580,500,l),
(505,0,l),
(615,0,l),
(645,250,l),
(713,700,l),
(603,700,l)
);
}
);
width = 730;
}
);
unicode = 72;
}
{
glyphname = J;
layers = (
{
anchors = (
{
name = bottom;
pos = (155,0);
},
{
name = top;
pos = (155,700);
}
);
background = {
anchors = (
{
name = bottom;
pos = (155,0);
},
{
name = top;
pos = (155,700);
}
);
shapes = (
{
closed = 1;
nodes = (
(177,91,o),
(152,53,o),
(31,72,c),
(30,-8,l),
(148,-32,o),
(258,85,o),
(254,204,cs),
(245,460,l),
(245,700,l),
(155,700,l),
(173,197,ls)
);
}
);
};
layerId = m002;
shapes = (
{
closed = 1;
nodes = (
(177,91,o),
(152,53,o),
(31,72,c),
(30,-8,l),
(148,-32,o),
(258,85,o),
(254,204,cs),
(245,460,l),
(245,700,l),
(155,700,l),
(173,197,ls)
);
}
);
width = 339;
},
{
anchors = (
{
name = bottom;
pos = (130,0);
},
{
name = top;
pos = (228,700);
}
);
background = {
anchors = (
{
name = bottom;
pos = (165,0);
},
{
name = top;
pos = (165,700);
}
);
shapes = (
{
closed = 1;
nodes = (
(187,91,o),
(162,53,o),
(41,72,c),
(40,-8,l),
(158,-32,o),
(268,85,o),
(264,204,cs),
(255,460,l),
(255,700,l),
(165,700,l),
(183,197,ls)
);
}
);
};
layerId = m003;
shapes = (
{
closed = 1;
nodes = (
(165,91,o),
(134,53,o),
(16,72,c),
(4,-8,l),
(118,-32,o),
(245,85,o),
(258,204,cs),
(285,460,l),
(318,700,l),
(228,700,l),
(176,197,ls)
);
}
);
width = 330;
},
{
anchors = (
{
name = bottom;
pos = (165,0);
},
{
name = top;
pos = (165,700);
}
);
background = {
anchors = (
{
name = bottom;
pos = (165,0);
},
{
name = top;
pos = (165,700);
}
);
shapes = (
{
closed = 1;
nodes = (
(187,91,o),
(162,53,o),
(41,72,c),
(40,-8,l),
(158,-32,o),
(268,85,o),
(264,204,cs),
(255,460,l),
(255,700,l),
(165,700,l),
(183,197,ls)
);
}
);
};
layerId = m006;
shapes = (
{
closed = 1;
nodes = (
(232,51,o),
(152,3,o),
(41,32,c),
(40,-8,l),
(158,-32,o),
(270,45,o),
(264,204,cs),
(255,460,l),
(255,700,l),
(215,700,l),
(228,197,ls)
);
}
);
width = 330;
},
{
anchors = (
{
name = bottom;
pos = (116,0);
},
{
name = top;
pos = (214,700);
}
);
background = {
anchors = (
{
name = bottom;
pos = (165,0);
},
{
name = top;
pos = (165,700);
}
);
shapes = (
{
closed = 1;
nodes = (
(187,91,o),
(162,53,o),
(41,72,c),
(40,-8,l),
(158,-32,o),
(268,85,o),
(264,204,cs),
(255,460,l),
(255,700,l),
(165,700,l),
(183,197,ls)
);
}
);
};
layerId = m007;
shapes = (
{
closed = 1;
nodes = (
(190,51,o),
(103,3,o),
(-4,32,c),
(-10,-8,l),
(104,-32,o),
(227,45,o),
(243,204,cs),
(270,460,l),
(304,700,l),
(264,700,l),
(206,197,ls)
);
}
);
width = 330;
},
{
anchors = (
{
name = bottom;
pos = (175,0);
},
{
name = top;
pos = (175,700);
}
);
background = {
shapes = (
{
closed = 1;
nodes = (
(197,91,o),
(172,53,o),
(51,72,c),
(50,-8,l),
(168,-32,o),
(278,85,o),
(274,204,cs),
(265,460,l),
(265,700,l),
(175,700,l),
(193,197,ls)
);
}
);
};
layerId = m008;
shapes = (
{
closed = 1;
nodes = (
(176,91,o),
(103,91,o),
(31,92,c),
(30,-8,l),
(148,-32,o),
(278,85,o),
(273,224,cs),
(265,460,l),
(265,700,l),
(155,700,l),
(172,217,ls)
);
}
);
width = 343;
},
{
anchors = (
{
name = bottom;
pos = (140,0);
},
{
name = top;
pos = (238,700);
}
);
background = {
shapes = (
{
closed = 1;
nodes = (
(197,91,o),
(172,53,o),
(51,72,c),
(50,-8,l),
(168,-32,o),
(278,85,o),
(274,204,cs),
(265,460,l),
(265,700,l),
(175,700,l),
(193,197,ls)
);
}
);
};
layerId = m009;
shapes = (
{
closed = 1;
nodes = (
(154,91,o),
(81,91,o),
(9,92,c),
(-6,-8,l),
(108,-32,o),
(255,85,o),
(269,224,cs),
(295,460,l),
(328,700,l),
(218,700,l),
(167,217,ls)
);
}
);
width = 343;
}
);
unicode = 74;
}
{
glyphname = L;
layers = (
{
anchors = (
{
name = bottom;
pos = (290,0);
},
{
name = center;
pos = (290,350);
},
{
name = top;
pos = (175,700);
},
{
name = topright;
pos = (196,700);
}
);
background = {
anchors = (
{
name = bottom;
pos = (290,0);
},
{
name = center;
pos = (290,350);
},
{
name = top;
pos = (175,700);
},
{
name = topright;
pos = (196,700);
}
);
shapes = (
{
closed = 1;
nodes = (
(90,500,l),
(85,0,l),
(175,0,l),
(170,250,l),
(175,700,l),
(85,700,l)
);
},
{
closed = 1;
nodes = (
(560,0,l),
(560,80,l),
(280,55,l),
(160,60,l),
(160,0,l)
);
}
);
};
layerId = m002;
shapes = (
{
closed = 1;
nodes = (
(90,500,l),
(85,0,l),
(175,0,l),
(170,250,l),
(175,700,l),
(85,700,l)
);
},
{
closed = 1;
nodes = (
(560,0,l),
(560,80,l),
(280,55,l),
(160,60,l),
(160,0,l)
);
}
);
width = 590;
},
{
anchors = (
{
name = bottom;
pos = (235,0);
},
{
name = center;
pos = (284,350);
},
{
name = top;
pos = (218,700);
},
{
name = topright;
pos = (239,700);
}
);
background = {
anchors = (
{
name = bottom;
pos = (270,0);
},
{
name = center;
pos = (270,350);
},
{
name = top;
pos = (155,700);
},
{
name = topright;
pos = (176,700);
}
);
shapes = (
{
closed = 1;
nodes = (
(70,500,l),
(65,0,l),
(155,0,l),
(150,250,l),
(155,700,l),
(65,700,l)
);
},
{
closed = 1;
nodes = (
(540,0,l),
(540,80,l),
(260,55,l),
(140,60,l),
(140,0,l)
);
}
);
};
layerId = m003;
shapes = (
{
closed = 1;
nodes = (
(105,500,l),
(30,0,l),
(120,0,l),
(150,250,l),
(218,700,l),
(128,700,l)
);
},
{
closed = 1;
nodes = (
(505,0,l),
(516,80,l),
(233,55,l),
(113,60,l),
(105,0,l)
);
}
);
width = 540;
},
{
anchors = (
{
name = bottom;
pos = (270,0);
},
{
name = center;
pos = (270,350);
},
{
name = top;
pos = (155,700);
},
{
name = topright;
pos = (176,700);
}
);
background = {
anchors = (
{
name = bottom;
pos = (270,0);
},
{
name = center;
pos = (270,350);
},
{
name = top;
pos = (155,700);
},
{
name = topright;
pos = (176,700);
}
);
shapes = (
{
closed = 1;
nodes = (
(70,500,l),
(65,0,l),
(155,0,l),
(150,250,l),
(155,700,l),
(65,700,l)
);
},
{
closed = 1;
nodes = (
(540,0,l),
(540,80,l),
(260,55,l),
(140,60,l),
(140,0,l)
);
}
);
};
layerId = m006;
shapes = (
{
closed = 1;
nodes = (
(69,500,l),
(67,0,l),
(104,0,l),
(101,250,l),
(103,700,l),
(66,700,l)
);
},
{
closed = 1;
nodes = (
(540,0,l),
(540,35,l),
(160,25,l),
(90,30,l),
(90,0,l)
);
}
);
width = 570;
},
{
anchors = (
{
name = bottom;
pos = (221,0);
},
{
name = center;
pos = (270,350);
},
{
name = top;
pos = (204,700);
},
{
name = topright;
pos = (225,700);
}
);
background = {
anchors = (
{
name = bottom;
pos = (270,0);
},
{
name = center;
pos = (270,350);
},
{
name = top;
pos = (155,700);
},
{
name = topright;
pos = (176,700);
}
);
shapes = (
{
closed = 1;
nodes = (
(70,500,l),
(65,0,l),
(155,0,l),
(150,250,l),
(155,700,l),
(65,700,l)
);
},
{
closed = 1;
nodes = (
(540,0,l),
(540,80,l),
(260,55,l),
(140,60,l),
(140,0,l)
);
}
);
};
layerId = m007;
shapes = (
{
closed = 1;
nodes = (
(90,500,l),
(18,0,l),
(55,0,l),
(87,250,l),
(152,700,l),
(115,700,l)
);
},
{
closed = 1;
nodes = (
(491,0,l),
(496,35,l),
(114,25,l),
(45,30,l),
(41,0,l)
);
}
);
width = 540;
},
{
anchors = (
{
name = bottom;
pos = (290,0);
},
{
name = center;
pos = (290,350);
},
{
name = top;
pos = (175,700);
},
{
name = topright;
pos = (196,700);
}
);
background = {
shapes = (
{
closed = 1;
nodes = (
(90,500,l),
(85,0,l),
(175,0,l),
(170,250,l),
(175,700,l),
(85,700,l)
);
},
{
closed = 1;
nodes = (
(560,0,l),
(560,80,l),
(280,55,l),
(160,60,l),
(160,0,l)
);
}
);
};
layerId = m008;
shapes = (
{
closed = 1;
nodes = (
(85,500,l),
(80,0,l),
(190,0,l),
(185,250,l),
(190,700,l),
(80,700,l)
);
},
{
closed = 1;
nodes = (
(555,0,l),
(555,100,l),
(255,90,l),
(165,95,l),
(165,0,l)
);
}
);
width = 590;
},
{
anchors = (
{
name = bottom;
pos = (255,0);
},
{
name = center;
pos = (304,350);
},
{
name = top;
pos = (238,700);
},
{
name = topright;
pos = (259,700);
}
);
background = {
shapes = (
{
closed = 1;
nodes = (
(90,500,l),
(85,0,l),
(175,0,l),
(170,250,l),
(175,700,l),
(85,700,l)
);
},
{
closed = 1;
nodes = (
(560,0,l),
(560,80,l),
(280,55,l),
(160,60,l),
(160,0,l)
);
}
);
};
layerId = m009;
shapes = (
{
closed = 1;
nodes = (
(120,500,l),
(45,0,l),
(155,0,l),
(185,250,l),
(253,700,l),
(143,700,l)
);
},
{
closed = 1;
nodes = (
(520,0,l),
(534,100,l),
(233,90,l),
(143,95,l),
(130,0,l)
);
}
);
width = 590;
}
);
unicode = 76;
}
{
glyphname = M;
layers = (
{
anchors = (
{
name = bottom;
pos = (465,0);
},
{
name = top;
pos = (465,700);
}
);
background = {
anchors = (
{
name = bottom;
pos = (465,0);
},
{
name = top;
pos = (465,700);
}
);
shapes = (
{
closed = 1;
nodes = (
(498,-2,l),
(516,45,l),
(810,700,l),
(740,700,l),
(477,89,l),
(222,700,l),
(124,700,l),
(432,-16,l)
);
},
{
closed = 1;
nodes = (
(754,500,l),
(754,0,l),
(844,0,l),
(834,250,l),
(839,700,l),
(749,700,l)
);
},
{
closed = 1;
nodes = (
(100,700,l),
(105,500,l),
(80,0,l),
(170,0,l),
(160,500,l),
(160,700,l)
);
}
);
};
layerId = m002;
shapes = (
{
closed = 1;
nodes = (
(100,700,l),
(105,500,l),
(80,0,l),
(170,0,l),
(160,500,l),
(160,700,l)
);
},
{
closed = 1;
nodes = (
(498,8,l),
(516,55,l),
(810,700,l),
(740,700,l),
(477,104,l),
(222,700,l),
(124,700,l),
(432,4,l)
);
},
{
closed = 1;
nodes = (
(754,500,l),
(754,0,l),
(844,0,l),
(834,250,l),
(839,700,l),
(749,700,l)
);
}
);
width = 924;
},
{
anchors = (
{
name = bottom;
pos = (415,0);
},
{
name = top;
pos = (513,700);
}
);
background = {
anchors = (
{
name = bottom;
pos = (450,0);
},
{
name = top;
pos = (450,700);
}
);
shapes = (
{
closed = 1;
nodes = (
(483,-2,l),
(501,45,l),
(795,700,l),
(725,700,l),
(462,89,l),
(207,700,l),
(109,700,l),
(417,-16,l)
);
},
{
closed = 1;
nodes = (
(739,500,l),
(739,0,l),
(829,0,l),
(819,250,l),
(824,700,l),
(734,700,l)
);
},
{
closed = 1;
nodes = (
(85,700,l),
(90,500,l),
(65,0,l),
(155,0,l),
(145,500,l),
(145,700,l)
);
}
);
};
layerId = m003;
shapes = (
{
closed = 1;
nodes = (
(148,700,l),
(125,500,l),
(30,0,l),
(120,0,l),
(180,500,l),
(208,700,l)
);
},
{
closed = 1;
nodes = (
(448,-2,l),
(472,45,l),
(858,700,l),
(788,700,l),
(439,89,l),
(270,700,l),
(172,700,l),
(380,-16,l)
);
},
{
closed = 1;
nodes = (
(774,500,l),
(704,0,l),
(794,0,l),
(819,250,l),
(887,700,l),
(797,700,l)
);
}
);
width = 894;
},
{
anchors = (
{
name = bottom;
pos = (406,0);
},
{
name = top;
pos = (406,700);
}
);
background = {
shapes = (
{
closed = 1;
nodes = (
(41,700,l),
(46,500,l),
(21,0,l),
(111,0,l),
(101,500,l),
(101,700,l)
);
},
{
closed = 1;
nodes = (
(439,-2,l),
(457,45,l),
(751,700,l),
(681,700,l),
(418,89,l),
(163,700,l),
(65,700,l),
(373,-16,l)
);
},
{
closed = 1;
nodes = (
(695,500,l),
(695,0,l),
(785,0,l),
(775,250,l),
(780,700,l),
(690,700,l)
);
}
);
};
layerId = m006;
shapes = (
{
closed = 1;
nodes = (
(71,700,l),
(76,500,l),
(66,0,l),
(106,0,l),
(101,500,l),
(101,700,l)
);
},
{
closed = 1;
nodes = (
(420,-2,l),
(448,65,l),
(712,700,l),
(677,700,l),
(409,29,l),
(114,700,l),
(76,700,l),
(388,-6,l)
);
},
{
closed = 1;
nodes = (
(685,500,l),
(685,0,l),
(722,0,l),
(717,250,l),
(719,700,l),
(682,700,l)
);
}
);
width = 788;
},
{
anchors = (
{
name = bottom;
pos = (357,0);
},
{
name = top;
pos = (455,700);
}
);
background = {
shapes = (
{
closed = 1;
nodes = (
(41,700,l),
(46,500,l),
(21,0,l),
(111,0,l),
(101,500,l),
(101,700,l)
);
},
{
closed = 1;
nodes = (
(439,-2,l),
(457,45,l),
(751,700,l),
(681,700,l),
(418,89,l),
(163,700,l),
(65,700,l),
(373,-16,l)
);
},
{
closed = 1;
nodes = (
(695,500,l),
(695,0,l),
(785,0,l),
(775,250,l),
(780,700,l),
(690,700,l)
);
}
);
};
layerId = m007;
shapes = (
{
closed = 1;
nodes = (
(120,700,l),
(97,500,l),
(17,0,l),
(57,0,l),
(122,500,l),
(150,700,l)
);
},
{
closed = 1;
nodes = (
(371,-2,l),
(408,65,l),
(761,700,l),
(726,700,l),
(364,29,l),
(163,700,l),
(125,700,l),
(338,-6,l)
);
},
{
closed = 1;
nodes = (
(706,500,l),
(636,0,l),
(673,0,l),
(703,250,l),
(768,700,l),
(731,700,l)
);
}
);
width = 788;
},
{
anchors = (
{
name = bottom;
pos = (465,0);
},
{
name = top;
pos = (465,700);
}
);
background = {
shapes = (
{
closed = 1;
nodes = (
(100,700,l),
(105,500,l),
(80,0,l),
(170,0,l),
(160,500,l),
(160,700,l)
);
},
{
closed = 1;
nodes = (
(498,8,l),
(516,55,l),
(810,700,l),
(740,700,l),
(477,104,l),
(222,700,l),
(124,700,l),
(432,4,l)
);
},
{
closed = 1;
nodes = (
(754,500,l),
(754,0,l),
(844,0,l),
(834,250,l),
(839,700,l),
(749,700,l)
);
}
);
};
layerId = m008;
shapes = (
{
closed = 1;
nodes = (
(100,700,l),
(105,500,l),
(80,0,l),
(190,0,l),
(185,500,l),
(185,700,l)
);
},
{
closed = 1;
nodes = (
(504,8,l),
(537,85,l),
(816,700,l),
(706,700,l),
(477,144,l),
(248,700,l),
(140,700,l),
(428,4,l)
);
},
{
closed = 1;
nodes = (
(734,500,l),
(734,0,l),
(844,0,l),
(834,250,l),
(839,700,l),
(729,700,l)
);
}
);
width = 924;
},
{
anchors = (
{
name = bottom;
pos = (430,0);
},
{
name = top;
pos = (528,700);
}
);
background = {
shapes = (
{
closed = 1;
nodes = (
(100,700,l),
(105,500,l),
(80,0,l),
(170,0,l),
(160,500,l),
(160,700,l)
);
},
{
closed = 1;
nodes = (
(498,8,l),
(516,55,l),
(810,700,l),
(740,700,l),
(477,104,l),
(222,700,l),
(124,700,l),
(432,4,l)
);
},
{
closed = 1;
nodes = (
(754,500,l),
(754,0,l),
(844,0,l),
(834,250,l),
(839,700,l),
(749,700,l)
);
}
);
};
layerId = m009;
shapes = (
{
closed = 1;
nodes = (
(163,700,l),
(140,500,l),
(45,0,l),
(155,0,l),
(220,500,l),
(248,700,l)
);
},
{
closed = 1;
nodes = (
(470,8,l),
(514,85,l),
(879,700,l),
(769,700,l),
(462,144,l),
(311,700,l),
(203,700,l),
(393,4,l)
);
},
{
closed = 1;
nodes = (
(769,500,l),
(699,0,l),
(809,0,l),
(834,250,l),
(902,700,l),
(792,700,l)
);
}
);
width = 924;
}
);
metricLeft = "=I";
metricRight = "=I";
unicode = 77;
}
{
glyphname = N;
layers = (
{
anchors = (
{
name = bottom;
pos = (345,50);
},
{
name = top;
pos = (395,660);
}
);
background = {
anchors = (
{
name = bottom;
pos = (345,50);
},
{
name = top;
pos = (375,660);
}
);
shapes = (
{
closed = 1;
nodes = (
(85,500,l),
(80,0,l),
(155,0,l),
(150,250,l),
(153,500,l),
(145,700,l),
(80,700,l)
);
},
{
closed = 1;
nodes = (
(565,500,l),
(563,210,l),
(570,0,l),
(630,0,l),
(625,250,l),
(630,700,l),
(560,700,l)
);
},
{
closed = 1;
nodes = (
(205,500,l),
(475,130,l),
(560,0,l),
(610,0,l),
(610,95,l),
(515,220,l),
(242,600,l),
(175,700,l),
(110,700,l),
(110,650,l)
);
}
);
};
layerId = m002;
shapes = (
{
closed = 1;
nodes = (
(610,0,l),
(610,95,l),
(515,220,l),
(242,600,l),
(175,700,l),
(110,700,l),
(110,650,l),
(205,500,l),
(475,130,l),
(560,0,l)
);
},
{
closed = 1;
nodes = (
(155,0,l),
(150,250,l),
(153,500,l),
(145,700,l),
(80,700,l),
(85,500,l),
(80,0,l)
);
},
{
closed = 1;
nodes = (
(630,0,l),
(625,250,l),
(630,700,l),
(560,700,l),
(565,500,l),
(563,210,l),
(570,0,l)
);
}
);
width = 710;
},
{
anchors = (
{
name = bottom;
pos = (305,40);
},
{
name = top;
pos = (423,660);
}
);
background = {
anchors = (
{
name = bottom;
pos = (330,50);
},
{
name = top;
pos = (360,660);
}
);
shapes = (
{
closed = 1;
nodes = (
(70,500,l),
(65,0,l),
(140,0,l),
(135,250,l),
(138,500,l),
(130,700,l),
(65,700,l)
);
},
{
closed = 1;
nodes = (
(550,500,l),
(548,210,l),
(555,0,l),
(615,0,l),
(610,250,l),
(615,700,l),
(545,700,l)
);
},
{
closed = 1;
nodes = (
(190,500,l),
(460,130,l),
(545,0,l),
(595,0,l),
(595,95,l),
(500,220,l),
(227,600,l),
(160,700,l),
(95,700,l),
(95,650,l)
);
}
);
};
layerId = m003;
shapes = (
{
closed = 1;
nodes = (
(560,0,l),
(573,95,l),
(496,220,l),
(266,600,l),
(213,700,l),
(158,700,l),
(151,650,l),
(225,500,l),
(453,130,l),
(520,0,l)
);
},
{
closed = 1;
nodes = (
(105,0,l),
(135,250,l),
(173,500,l),
(193,700,l),
(128,700,l),
(105,500,l),
(30,0,l)
);
},
{
closed = 1;
nodes = (
(580,0,l),
(610,250,l),
(678,700,l),
(608,700,l),
(585,500,l),
(542,210,l),
(520,0,l)
);
}
);
width = 680;
},
{
anchors = (
{
name = bottom;
pos = (320,50);
},
{
name = top;
pos = (340,660);
}
);
background = {
shapes = (
{
closed = 1;
nodes = (
(585,0,l),
(585,95,l),
(490,220,l),
(217,600,l),
(150,700,l),
(85,700,l),
(85,650,l),
(180,500,l),
(450,130,l),
(535,0,l)
);
},
{
closed = 1;
nodes = (
(130,0,l),
(125,250,l),
(128,500,l),
(120,700,l),
(55,700,l),
(60,500,l),
(55,0,l)
);
},
{
closed = 1;
nodes = (
(605,0,l),
(600,250,l),
(605,700,l),
(535,700,l),
(540,500,l),
(538,210,l),
(545,0,l)
);
}
);
};
layerId = m006;
shapes = (
{
closed = 1;
nodes = (
(585,0,l),
(585,20,l),
(490,150,l),
(149,627,l),
(100,700,l),
(85,700,l),
(85,670,l),
(128,600,l),
(470,130,l),
(555,0,l)
);
},
{
closed = 1;
nodes = (
(105,0,l),
(100,250,l),
(103,500,l),
(95,700,l),
(65,700,l),
(70,500,l),
(65,0,l)
);
},
{
closed = 1;
nodes = (
(585,0,l),
(580,250,l),
(585,700,l),
(549,700,l),
(554,500,l),
(552,210,l),
(559,0,l)
);
}
);
width = 650;
},
{
anchors = (
{
name = bottom;
pos = (278,50);
},
{
name = top;
pos = (384,660);
}
);
background = {
shapes = (
{
closed = 1;
nodes = (
(585,0,l),
(585,95,l),
(490,220,l),
(217,600,l),
(150,700,l),
(85,700,l),
(85,650,l),
(180,500,l),
(450,130,l),
(535,0,l)
);
},
{
closed = 1;
nodes = (
(130,0,l),
(125,250,l),
(128,500,l),
(120,700,l),
(55,700,l),
(60,500,l),
(55,0,l)
);
},
{
closed = 1;
nodes = (
(605,0,l),
(600,250,l),
(605,700,l),
(535,700,l),
(540,500,l),
(538,210,l),
(545,0,l)
);
}
);
};
layerId = m007;
shapes = (
{
closed = 1;
nodes = (
(536,0,l),
(539,20,l),
(462,150,l),
(188,627,l),
(149,700,l),
(134,700,l),
(130,670,l),
(163,600,l),
(439,130,l),
(506,0,l)
);
},
{
closed = 1;
nodes = (
(56,0,l),
(86,250,l),
(124,500,l),
(144,700,l),
(114,700,l),
(91,500,l),
(16,0,l)
);
},
{
closed = 1;
nodes = (
(536,0,l),
(566,250,l),
(634,700,l),
(598,700,l),
(575,500,l),
(532,210,l),
(510,0,l)
);
}
);
width = 650;
},
{
anchors = (
{
name = bottom;
pos = (345,50);
},
{
name = top;
pos = (395,660);
}
);
background = {
anchors = (
{
name = bottom;
pos = (345,50);
},
{
name = top;
pos = (375,660);
}
);
shapes = (
{
closed = 1;
nodes = (
(85,500,l),
(80,0,l),
(155,0,l),
(150,250,l),
(153,500,l),
(145,700,l),
(80,700,l)
);
},
{
closed = 1;
nodes = (
(565,500,l),
(563,210,l),
(570,0,l),
(630,0,l),
(625,250,l),
(630,700,l),
(560,700,l)
);
},
{
closed = 1;
nodes = (
(205,500,l),
(475,130,l),
(560,0,l),
(610,0,l),
(610,95,l),
(515,220,l),
(242,600,l),
(175,700,l),
(110,700,l),
(110,650,l)
);
}
);
};
layerId = m008;
shapes = (
{
closed = 1;
nodes = (
(610,0,l),
(610,135,l),
(515,240,l),
(242,600,l),
(175,700,l),
(110,700,l),
(110,610,l),
(205,480,l),
(475,130,l),
(560,0,l)
);
},
{
closed = 1;
nodes = (
(165,0,l),
(160,250,l),
(163,500,l),
(145,700,l),
(60,700,l),
(65,500,l),
(60,0,l)
);
},
{
closed = 1;
nodes = (
(650,0,l),
(645,250,l),
(650,700,l),
(550,700,l),
(555,500,l),
(553,250,l),
(580,0,l)
);
}
);
width = 710;
},
{
anchors = (
{
name = bottom;
pos = (317,50);
},
{
name = top;
pos = (453,660);
}
);
background = {
anchors = (
{
name = bottom;
pos = (345,50);
},
{
name = top;
pos = (375,660);
}
);
shapes = (
{
closed = 1;
nodes = (
(85,500,l),
(80,0,l),
(155,0,l),
(150,250,l),
(153,500,l),
(145,700,l),
(80,700,l)
);
},
{
closed = 1;
nodes = (
(565,500,l),
(563,210,l),
(570,0,l),
(630,0,l),
(625,250,l),
(630,700,l),
(560,700,l)
);
},
{
closed = 1;
nodes = (
(205,500,l),
(475,130,l),
(560,0,l),
(610,0,l),
(610,95,l),
(515,220,l),
(242,600,l),
(175,700,l),
(110,700,l),
(110,650,l)
);
}
);
};
layerId = m009;
shapes = (
{
closed = 1;
nodes = (
(575,0,l),
(594,135,l),
(514,240,l),
(291,600,l),
(238,700,l),
(173,700,l),
(161,610,l),
(237,480,l),
(458,130,l),
(525,0,l)
);
},
{
closed = 1;
nodes = (
(130,0,l),
(160,250,l),
(198,500,l),
(208,700,l),
(123,700,l),
(100,500,l),
(25,0,l)
);
},
{
closed = 1;
nodes = (
(615,0,l),
(645,250,l),
(713,700,l),
(613,700,l),
(590,500,l),
(553,250,l),
(545,0,l)
);
}
);
width = 710;
}
);
unicode = 78;
}
{
glyphname = R;
layers = (
{
anchors = (
{
name = bottom;
pos = (316,40);
},
{
name = top;
pos = (306,700);
}
);
background = {
anchors = (
{
name = bottom;
pos = (306,0);
},
{
name = top;
pos = (306,700);
}
);
shapes = (
{
closed = 1;
nodes = (
(275,280,ls),
(424,280,o),
(541,362,o),
(541,501,cs),
(541,578,o),
(495,700,o),
(287,700,cs),
(90,700,l),
(94,280,l)
);
},
{
closed = 1;
nodes = (
(187,0,l),
(172,336,l),
(96,389,l),
(85,0,l)
);
},
{
closed = 1;
nodes = (
(560,0,l),
(395,314,l),
(304,316,l),
(454,0,l)
);
},
{
closed = 1;
nodes = (
(176,343,l),
(179,638,l),
(273,640,ls),
(399,643,o),
(446,567,o),
(446,483,cs),
(446,383,o),
(382,337,o),
(275,340,cs)
);
}
);
};
layerId = m002;
shapes = (
{
closed = 1;
nodes = (
(275,280,ls),
(424,280,o),
(541,362,o),
(541,501,cs),
(541,578,o),
(495,700,o),
(287,700,cs),
(90,700,l),
(94,280,l)
);
},
{
closed = 1;
nodes = (
(187,0,l),
(172,336,l),
(96,389,l),
(85,0,l)
);
},
{
closed = 1;
nodes = (
(560,0,l),
(395,314,l),
(304,316,l),
(454,0,l)
);
},
{
closed = 1;
nodes = (
(176,343,l),
(179,638,l),
(273,640,ls),
(399,643,o),
(446,567,o),
(446,483,cs),
(446,383,o),
(382,337,o),
(275,340,cs)
);
}
);
width = 595;
},
{
anchors = (
{
name = bottom;
pos = (280,30);
},
{
name = top;
pos = (348,700);
}
);
background = {
anchors = (
{
name = bottom;
pos = (285,0);
},
{
name = top;
pos = (285,700);
}
);
shapes = (
{
closed = 1;
nodes = (
(254,280,ls),
(403,280,o),
(520,362,o),
(520,501,cs),
(520,578,o),
(474,700,o),
(266,700,cs),
(69,700,l),
(73,280,l)
);
},
{
closed = 1;
nodes = (
(166,0,l),
(151,336,l),
(75,389,l),
(64,0,l)
);
},
{
closed = 1;
nodes = (
(539,0,l),
(374,314,l),
(283,316,l),
(433,0,l)
);
},
{
closed = 1;
nodes = (
(155,343,l),
(158,638,l),
(252,640,ls),
(378,643,o),
(425,567,o),
(425,483,cs),
(425,383,o),
(361,337,o),
(254,340,cs)
);
}
);
};
layerId = m003;
shapes = (
{
closed = 1;
nodes = (
(258,280,ls),
(419,280,o),
(557,390,o),
(557,519,cs),
(557,614,o),
(483,700,o),
(319,700,cs),
(132,700,l),
(77,280,l)
);
},
{
closed = 1;
nodes = (
(131,0,l),
(163,336,l),
(95,389,l),
(29,0,l)
);
},
{
closed = 1;
nodes = (
(504,0,l),
(383,314,l),
(292,316,l),
(398,0,l)
);
},
{
closed = 1;
nodes = (
(168,343,l),
(213,638,l),
(307,640,ls),
(408,642,o),
(460,584,o),
(460,502,cs),
(460,402,o),
(368,337,o),
(267,340,cs)
);
}
);
width = 569;
},
{
anchors = (
{
name = bottom;
pos = (265,50);
},
{
name = top;
pos = (285,700);
}
);
background = {
shapes = (
{
closed = 1;
nodes = (
(254,280,ls),
(403,280,o),
(520,362,o),
(520,501,cs),
(520,578,o),
(474,700,o),
(266,700,cs),
(69,700,l),
(73,280,l)
);
},
{
closed = 1;
nodes = (
(166,0,l),
(151,336,l),
(75,389,l),
(64,0,l)
);
},
{
closed = 1;
nodes = (
(539,0,l),
(374,314,l),
(283,316,l),
(433,0,l)
);
},
{
closed = 1;
nodes = (
(155,343,l),
(158,638,l),
(252,640,ls),
(378,643,o),
(425,567,o),
(425,483,cs),
(425,383,o),
(361,337,o),
(254,340,cs)
);
}
);
};
layerId = m006;
shapes = (
{
closed = 1;
nodes = (
(244,280,ls),
(423,280,o),
(520,372,o),
(520,491,cs),
(520,588,o),
(469,700,o),
(281,700,cs),
(69,700,l),
(73,280,l)
);
},
{
closed = 1;
nodes = (
(111,0,l),
(101,316,l),
(75,369,l),
(68,0,l)
);
},
{
closed = 1;
nodes = (
(529,0,l),
(364,304,l),
(333,306,l),
(483,0,l)
);
},
{
closed = 1;
nodes = (
(105,313,l),
(108,668,l),
(272,671,ls),
(368,673,o),
(485,637,o),
(485,493,cs),
(485,333,o),
(351,308,o),
(244,310,cs)
);
}
);
width = 569;
},
{
anchors = (
{
name = bottom;
pos = (246,50);
},
{
name = top;
pos = (334,700);
}
);
background = {
shapes = (
{
closed = 1;
nodes = (
(254,280,ls),
(403,280,o),
(520,362,o),
(520,501,cs),
(520,578,o),
(474,700,o),
(266,700,cs),
(69,700,l),
(73,280,l)
);
},
{
closed = 1;
nodes = (
(166,0,l),
(151,336,l),
(75,389,l),
(64,0,l)
);
},
{
closed = 1;
nodes = (
(539,0,l),
(374,314,l),
(283,316,l),
(433,0,l)
);
},
{
closed = 1;
nodes = (
(155,343,l),
(158,638,l),
(252,640,ls),
(378,643,o),
(425,567,o),
(425,483,cs),
(425,383,o),
(361,337,o),
(254,340,cs)
);
}
);
};
layerId = m007;
shapes = (
{
closed = 1;
nodes = (
(234,280,ls),
(413,280,o),
(523,372,o),
(540,491,cs),
(553,588,o),
(518,700,o),
(330,700,cs),
(118,700,l),
(63,280,l)
);
},
{
closed = 1;
nodes = (
(62,0,l),
(96,316,l),
(78,369,l),
(19,0,l)
);
},
{
closed = 1;
nodes = (
(480,0,l),
(358,304,l),
(327,306,l),
(434,0,l)
);
},
{
closed = 1;
nodes = (
(100,313,l),
(153,668,l),
(317,671,ls),
(413,673,o),
(525,637,o),
(505,493,cs),
(483,333,o),
(345,308,o),
(238,310,cs)
);
}
);
width = 569;
},
{
anchors = (
{
name = bottom;
pos = (311,40);
},
{
name = top;
pos = (306,700);
}
);
background = {
shapes = (
{
closed = 1;
nodes = (
(275,280,ls),
(424,280,o),
(541,362,o),
(541,501,cs),
(541,578,o),
(495,700,o),
(287,700,cs),
(90,700,l),
(94,280,l)
);
},
{
closed = 1;
nodes = (
(187,0,l),
(172,336,l),
(96,389,l),
(85,0,l)
);
},
{
closed = 1;
nodes = (
(560,0,l),
(395,314,l),
(304,316,l),
(454,0,l)
);
},
{
closed = 1;
nodes = (
(176,343,l),
(179,638,l),
(273,640,ls),
(399,643,o),
(446,567,o),
(446,483,cs),
(446,383,o),
(382,337,o),
(275,340,cs)
);
}
);
};
layerId = m008;
shapes = (
{
closed = 1;
nodes = (
(286,280,ls),
(435,280,o),
(542,382,o),
(542,491,cs),
(542,578,o),
(496,700,o),
(288,700,cs),
(81,700,l),
(85,280,l)
);
},
{
closed = 1;
nodes = (
(188,0,l),
(183,316,l),
(87,369,l),
(80,0,l)
);
},
{
closed = 1;
nodes = (
(570,0,l),
(405,314,l),
(299,316,l),
(449,0,l)
);
},
{
closed = 1;
nodes = (
(187,363,l),
(190,618,l),
(284,620,ls),
(380,622,o),
(435,567,o),
(435,493,cs),
(435,403,o),
(383,357,o),
(286,360,cs)
);
}
);
width = 595;
},
{
anchors = (
{
name = bottom;
pos = (291,40);
},
{
name = top;
pos = (369,700);
}
);
background = {
shapes = (
{
closed = 1;
nodes = (
(275,280,ls),
(424,280,o),
(541,362,o),
(541,501,cs),
(541,578,o),
(495,700,o),
(287,700,cs),
(90,700,l),
(94,280,l)
);
},
{
closed = 1;
nodes = (
(187,0,l),
(172,336,l),
(96,389,l),
(85,0,l)
);
},
{
closed = 1;
nodes = (
(560,0,l),
(395,314,l),
(304,316,l),
(454,0,l)
);
},
{
closed = 1;
nodes = (
(176,343,l),
(179,638,l),
(273,640,ls),
(399,643,o),
(446,567,o),
(446,483,cs),
(446,383,o),
(382,337,o),
(275,340,cs)
);
}
);
};
layerId = m009;
shapes = (
{
closed = 1;
nodes = (
(290,280,ls),
(439,280,o),
(561,382,o),
(576,491,cs),
(588,578,o),
(559,700,o),
(351,700,cs),
(144,700,l),
(89,280,l)
);
},
{
closed = 1;
nodes = (
(153,0,l),
(192,316,l),
(104,369,l),
(45,0,l)
);
},
{
closed = 1;
nodes = (
(535,0,l),
(414,314,l),
(308,316,l),
(414,0,l)
);
},
{
closed = 1;
nodes = (
(203,363,l),
(242,618,l),
(336,620,ls),
(432,622,o),
(480,567,o),
(469,493,cs),
(457,403,o),
(398,357,o),
(301,360,cs)
);
}
);
width = 595;
}
);
unicode = 82;
}
{
glyphname = U;
layers = (
{
anchors = (
{
name = bottom;
pos = (369,0);
},
{
name = ogonek;
pos = (435,0);
},
{
name = top;
pos = (369,650);
},
{
name = topright;
pos = (697,700);
}
);
background = {
anchors = (
{
name = bottom;
pos = (369,0);
},
{
name = ogonek;
pos = (647,10);
},
{
name = top;
pos = (369,700);
},
{
name = topright;
pos = (697,700);
}
);
shapes = (
{
closed = 1;
nodes = (
(652,700,l),
(566,700,l),
(576,320,ls),
(581,126,o),
(473,64,o),
(367,64,cs),
(269,64,o),
(161,111,o),
(166,320,cs),
(176,700,l),
(85,700,l),
(80,300,ls),
(77,95,o),
(198,-10,o),
(359,-10,cs),
(507,-10,o),
(644,93,o),
(647,302,cs)
);
}
);
};
layerId = m002;
shapes = (
{
closed = 1;
nodes = (
(652,700,l),
(566,700,l),
(576,320,ls),
(581,126,o),
(473,64,o),
(367,64,cs),
(269,64,o),
(161,111,o),
(166,320,cs),
(176,700,l),
(85,700,l),
(80,300,ls),
(77,95,o),
(198,-10,o),
(359,-10,cs),
(507,-10,o),
(644,93,o),
(647,302,cs)
);
}
);
width = 727;
},
{
anchors = (
{
name = bottom;
pos = (314,0);
},
{
name = ogonek;
pos = (377,1);
},
{
name = top;
pos = (412,660);
},
{
name = topright;
pos = (740,700);
}
);
background = {
anchors = (
{
name = bottom;
pos = (349,0);
},
{
name = ogonek;
pos = (627,10);
},
{
name = top;
pos = (349,700);
},
{
name = topright;
pos = (677,700);
}
);
shapes = (
{
closed = 1;
nodes = (
(632,700,l),
(546,700,l),
(556,320,ls),
(561,126,o),
(453,64,o),
(347,64,cs),
(249,64,o),
(141,111,o),
(146,320,cs),
(156,700,l),
(65,700,l),
(60,300,ls),
(57,95,o),
(178,-10,o),
(339,-10,cs),
(487,-10,o),
(624,93,o),
(627,302,cs)
);
}
);
};
layerId = m003;
shapes = (
{
closed = 1;
nodes = (
(695,700,l),
(609,700,l),
(566,320,ls),
(544,126,o),
(427,64,o),
(321,64,cs),
(223,64,o),
(121,111,o),
(156,320,cs),
(219,700,l),
(128,700,l),
(67,300,ls),
(36,95,o),
(141,-10,o),
(302,-10,cs),
(450,-10,o),
(602,93,o),
(634,302,cs)
);
}
);
width = 697;
},
{
anchors = (
{
name = bottom;
pos = (349,0);
},
{
name = ogonek;
pos = (419,0);
},
{
name = top;
pos = (349,650);
},
{
name = topright;
pos = (677,700);
}
);
background = {
anchors = (
{
name = bottom;
pos = (349,0);
},
{
name = ogonek;
pos = (627,10);
},
{
name = top;
pos = (349,700);
},
{
name = topright;
pos = (677,700);
}
);
shapes = (
{
closed = 1;
nodes = (
(632,700,l),
(546,700,l),
(556,320,ls),
(561,126,o),
(453,64,o),
(347,64,cs),
(249,64,o),
(141,111,o),
(146,320,cs),
(156,700,l),
(65,700,l),
(60,300,ls),
(57,95,o),
(178,-10,o),
(339,-10,cs),
(487,-10,o),
(624,93,o),
(627,302,cs)
);
}
);
};
layerId = m006;
shapes = (
{
closed = 1;
nodes = (
(627,700,l),
(591,700,l),
(596,315,ls),
(599,111,o),
(493,19,o),
(357,19,cs),
(199,19,o),
(85,116,o),
(91,325,cs),
(101,700,l),
(65,700,l),
(60,300,ls),
(57,95,o),
(178,-10,o),
(339,-10,cs),
(487,-10,o),
(627,83,o),
(627,302,cs)
);
}
);
width = 697;
},
{
anchors = (
{
name = bottom;
pos = (300,0);
},
{
name = ogonek;
pos = (370,0);
},
{
name = top;
pos = (391,650);
},
{
name = topright;
pos = (726,700);
}
);
background = {
anchors = (
{
name = bottom;
pos = (349,0);
},
{
name = ogonek;
pos = (627,10);
},
{
name = top;
pos = (349,700);
},
{
name = topright;
pos = (677,700);
}
);
shapes = (
{
closed = 1;
nodes = (
(632,700,l),
(546,700,l),
(556,320,ls),
(561,126,o),
(453,64,o),
(347,64,cs),
(249,64,o),
(141,111,o),
(146,320,cs),
(156,700,l),
(65,700,l),
(60,300,ls),
(57,95,o),
(178,-10,o),
(339,-10,cs),
(487,-10,o),
(624,93,o),
(627,302,cs)
);
}
);
};
layerId = m007;
shapes = (
{
closed = 1;
nodes = (
(676,700,l),
(640,700,l),
(591,315,ls),
(565,111,o),
(436,19,o),
(310,19,cs),
(152,19,o),
(52,116,o),
(87,325,cs),
(150,700,l),
(114,700,l),
(53,300,ls),
(22,95,o),
(127,-10,o),
(288,-10,cs),
(446,-10,o),
(589,83,o),
(620,302,cs)
);
}
);
width = 697;
},
{
anchors = (
{
name = bottom;
pos = (369,0);
},
{
name = ogonek;
pos = (435,0);
},
{
name = top;
pos = (369,650);
},
{
name = topright;
pos = (697,700);
}
);
background = {
anchors = (
{
name = bottom;
pos = (369,0);
},
{
name = ogonek;
pos = (647,10);
},
{
name = top;
pos = (369,700);
},
{
name = topright;
pos = (697,700);
}
);
shapes = (
{
closed = 1;
nodes = (
(652,700,l),
(566,700,l),
(576,320,ls),
(581,126,o),
(473,64,o),
(367,64,cs),
(269,64,o),
(161,111,o),
(166,320,cs),
(176,700,l),
(85,700,l),
(80,300,ls),
(77,95,o),
(198,-10,o),
(359,-10,cs),
(507,-10,o),
(644,93,o),
(647,302,cs)
);
}
);
};
layerId = m008;
shapes = (
{
closed = 1;
nodes = (
(662,700,l),
(556,700,l),
(561,320,ls),
(563,166,o),
(473,94,o),
(367,94,cs),
(269,94,o),
(172,151,o),
(176,320,cs),
(186,700,l),
(75,700,l),
(70,300,ls),
(67,95,o),
(198,-10,o),
(359,-10,cs),
(507,-10,o),
(654,93,o),
(657,302,cs)
);
}
);
width = 727;
},
{
anchors = (
{
name = bottom;
pos = (334,0);
},
{
name = ogonek;
pos = (400,0);
},
{
name = top;
pos = (425,650);
},
{
name = topright;
pos = (760,700);
}
);
background = {
anchors = (
{
name = bottom;
pos = (369,0);
},
{
name = ogonek;
pos = (647,10);
},
{
name = top;
pos = (369,700);
},
{
name = topright;
pos = (697,700);
}
);
shapes = (
{
closed = 1;
nodes = (
(652,700,l),
(566,700,l),
(576,320,ls),
(581,126,o),
(473,64,o),
(367,64,cs),
(269,64,o),
(161,111,o),
(166,320,cs),
(176,700,l),
(85,700,l),
(80,300,ls),
(77,95,o),
(198,-10,o),
(359,-10,cs),
(507,-10,o),
(644,93,o),
(647,302,cs)
);
}
);
};
layerId = m009;
shapes = (
{
closed = 1;
nodes = (
(725,700,l),
(619,700,l),
(571,320,ls),
(551,166,o),
(451,94,o),
(345,94,cs),
(247,94,o),
(158,151,o),
(186,320,cs),
(249,700,l),
(138,700,l),
(77,300,ls),
(46,95,o),
(161,-10,o),
(322,-10,cs),
(470,-10,o),
(632,93,o),
(664,302,cs)
);
}
);
width = 727;
}
);
unicode = 85;
}
{
glyphname = V;
layers = (
{
anchors = (
{
name = bottom;
pos = (358,0);
},
{
name = top;
pos = (358,700);
}
);
background = {
anchors = (
{
name = bottom;
pos = (358,0);
},
{
name = top;
pos = (358,700);
}
);
shapes = (
{
closed = 1;
nodes = (
(384,-2,l),
(402,65,l),
(666,700,l),
(576,700,l),
(363,99,l),
(148,700,l),
(50,700,l),
(318,-16,l)
);
}
);
};
layerId = m002;
shapes = (
{
closed = 1;
nodes = (
(384,-2,l),
(402,65,l),
(666,700,l),
(576,700,l),
(363,99,l),
(128,700,l),
(30,700,l),
(318,-16,l)
);
}
);
width = 676;
},
{
anchors = (
{
name = bottom;
pos = (273,0);
},
{
name = top;
pos = (371,700);
}
);
background = {
anchors = (
{
name = bottom;
pos = (308,0);
},
{
name = top;
pos = (308,700);
}
);
shapes = (
{
closed = 1;
nodes = (
(334,-2,l),
(352,65,l),
(616,700,l),
(526,700,l),
(313,99,l),
(98,700,l),
(0,700,l),
(268,-16,l)
);
}
);
};
layerId = m003;
shapes = (
{
closed = 1;
nodes = (
(299,-2,l),
(326,65,l),
(679,700,l),
(589,700,l),
(282,99,l),
(151,700,l),
(63,700,l),
(231,-16,l)
);
}
);
width = 616;
},
{
anchors = (
{
name = bottom;
pos = (308,0);
},
{
name = top;
pos = (308,700);
}
);
background = {
anchors = (
{
name = bottom;
pos = (308,0);
},
{
name = top;
pos = (308,700);
}
);
shapes = (
{
closed = 1;
nodes = (
(334,-2,l),
(352,65,l),
(616,700,l),
(526,700,l),
(313,99,l),
(98,700,l),
(0,700,l),
(268,-16,l)
);
}
);
};
layerId = m006;
shapes = (
{
closed = 1;
nodes = (
(331,-2,l),
(382,136,l),
(616,700,l),
(576,700,l),
(313,29,l),
(38,700,l),
(0,700,l),
(292,-6,l)
);
}
);
width = 616;
},
{
anchors = (
{
name = bottom;
pos = (259,0);
},
{
name = top;
pos = (357,700);
}
);
background = {
anchors = (
{
name = bottom;
pos = (308,0);
},
{
name = top;
pos = (308,700);
}
);
shapes = (
{
closed = 1;
nodes = (
(334,-2,l),
(352,65,l),
(616,700,l),
(526,700,l),
(313,99,l),
(98,700,l),
(0,700,l),
(268,-16,l)
);
}
);
};
layerId = m007;
shapes = (
{
closed = 1;
nodes = (
(282,-2,l),
(352,136,l),
(665,700,l),
(625,700,l),
(268,29,l),
(87,700,l),
(49,700,l),
(242,-6,l)
);
}
);
width = 616;
},
{
anchors = (
{
name = bottom;
pos = (358,0);
},
{
name = top;
pos = (358,700);
}
);
background = {
shapes = (
{
closed = 1;
nodes = (
(384,-2,l),
(402,65,l),
(666,700,l),
(576,700,l),
(363,99,l),
(128,700,l),
(30,700,l),
(318,-16,l)
);
}
);
};
layerId = m008;
shapes = (
{
closed = 1;
nodes = (
(379,-2,l),
(402,65,l),
(666,700,l),
(546,700,l),
(342,144,l),
(128,700,l),
(10,700,l),
(293,-16,l)
);
}
);
width = 676;
},
{
anchors = (
{
name = bottom;
pos = (323,0);
},
{
name = top;
pos = (421,700);
}
);
background = {
shapes = (
{
closed = 1;
nodes = (
(384,-2,l),
(402,65,l),
(666,700,l),
(576,700,l),
(363,99,l),
(128,700,l),
(30,700,l),
(318,-16,l)
);
}
);
};
layerId = m009;
shapes = (
{
closed = 1;
nodes = (
(344,-2,l),
(376,65,l),
(729,700,l),
(609,700,l),
(327,144,l),
(191,700,l),
(73,700,l),
(256,-16,l)
);
}
);
width = 676;
}
);
unicode = 86;
}
{
glyphname = W;
layers = (
{
anchors = (
{
name = bottom;
pos = (506,0);
},
{
name = top;
pos = (506,700);
}
);
background = {
anchors = (
{
name = bottom;
pos = (506,0);
},
{
name = top;
pos = (506,700);
}
);
shapes = (
{
closed = 1;
nodes = (
(314,-2,l),
(332,65,l),
(508,555,l),
(698,-16,l),
(764,-2,l),
(782,65,l),
(981,700,l),
(891,700,l),
(744,102,l),
(551,716,l),
(485,702,l),
(467,635,l),
(293,99,l),
(128,700,l),
(30,700,l),
(248,-16,l)
);
}
);
};
layerId = m002;
shapes = (
{
closed = 1;
nodes = (
(304,-2,l),
(322,65,l),
(498,535,l),
(698,-16,l),
(764,-2,l),
(782,65,l),
(951,700,l),
(861,700,l),
(744,102,l),
(541,696,l),
(475,682,l),
(457,615,l),
(283,99,l),
(128,700,l),
(30,700,l),
(238,-16,l)
);
}
);
width = 961;
},
{
anchors = (
{
name = bottom;
pos = (441,0);
},
{
name = top;
pos = (539,700);
}
);
background = {
anchors = (
{
name = bottom;
pos = (476,0);
},
{
name = top;
pos = (476,700);
}
);
shapes = (
{
closed = 1;
nodes = (
(284,-2,l),
(302,65,l),
(478,555,l),
(668,-16,l),
(734,-2,l),
(752,65,l),
(951,700,l),
(861,700,l),
(714,102,l),
(521,716,l),
(455,702,l),
(437,635,l),
(263,99,l),
(98,700,l),
(0,700,l),
(218,-16,l)
);
}
);
};
layerId = m003;
shapes = (
{
closed = 1;
nodes = (
(249,-2,l),
(276,65,l),
(521,555,l),
(631,-16,l),
(699,-2,l),
(726,65,l),
(1014,700,l),
(924,700,l),
(683,102,l),
(576,676,l),
(509,672,l),
(491,635,l),
(232,99,l),
(161,700,l),
(63,700,l),
(181,-16,l)
);
}
);
width = 951;
},
{
anchors = (
{
name = bottom;
pos = (476,0);
},
{
name = top;
pos = (476,700);
}
);
background = {
shapes = (
{
closed = 1;
nodes = (
(284,-2,l),
(302,65,l),
(478,555,l),
(668,-16,l),
(734,-2,l),
(752,65,l),
(951,700,l),
(861,700,l),
(714,102,l),
(521,716,l),
(455,702,l),
(437,635,l),
(263,99,l),
(98,700,l),
(0,700,l),
(218,-16,l)
);
}
);
};
layerId = m006;
shapes = (
{
closed = 1;
nodes = (
(274,-2,l),
(283,29,l),
(489,662,l),
(732,-6,l),
(764,-2,l),
(773,29,l),
(976,700,l),
(936,700,l),
(753,39,l),
(508,710,l),
(461,700,l),
(443,626,l),
(263,39,l),
(38,700,l),
(0,700,l),
(242,-6,l)
);
}
);
width = 976;
},
{
anchors = (
{
name = bottom;
pos = (427,0);
},
{
name = top;
pos = (525,700);
}
);
background = {
shapes = (
{
closed = 1;
nodes = (
(284,-2,l),
(302,65,l),
(478,555,l),
(668,-16,l),
(734,-2,l),
(752,65,l),
(951,700,l),
(861,700,l),
(714,102,l),
(521,716,l),
(455,702,l),
(437,635,l),
(263,99,l),
(98,700,l),
(0,700,l),
(218,-16,l)
);
}
);
};
layerId = m007;
shapes = (
{
closed = 1;
nodes = (
(225,-2,l),
(238,29,l),
(533,662,l),
(682,-6,l),
(715,-2,l),
(728,29,l),
(1025,700,l),
(985,700,l),
(709,39,l),
(559,710,l),
(510,700,l),
(482,626,l),
(219,39,l),
(87,700,l),
(49,700,l),
(192,-6,l)
);
}
);
width = 976;
},
{
anchors = (
{
name = bottom;
pos = (506,0);
},
{
name = top;
pos = (506,700);
}
);
background = {
shapes = (
{
closed = 1;
nodes = (
(304,-2,l),
(322,65,l),
(498,535,l),
(698,-16,l),
(764,-2,l),
(782,65,l),
(951,700,l),
(861,700,l),
(744,102,l),
(541,696,l),
(475,692,l),
(457,625,l),
(283,99,l),
(128,700,l),
(30,700,l),
(238,-16,l)
);
}
);
};
layerId = m008;
shapes = (
{
closed = 1;
nodes = (
(334,-2,l),
(352,65,l),
(508,505,l),
(698,-6,l),
(784,-2,l),
(797,65,l),
(976,700,l),
(871,700,l),
(734,162,l),
(547,696,l),
(481,692,l),
(463,625,l),
(293,139,l),
(138,700,l),
(25,700,l),
(233,-6,l)
);
}
);
width = 961;
},
{
anchors = (
{
name = bottom;
pos = (471,0);
},
{
name = top;
pos = (569,700);
}
);
background = {
shapes = (
{
closed = 1;
nodes = (
(304,-2,l),
(322,65,l),
(498,535,l),
(698,-16,l),
(764,-2,l),
(782,65,l),
(951,700,l),
(861,700,l),
(744,102,l),
(541,696,l),
(475,692,l),
(457,625,l),
(283,99,l),
(128,700,l),
(30,700,l),
(238,-16,l)
);
}
);
};
layerId = m009;
shapes = (
{
closed = 1;
nodes = (
(299,-2,l),
(326,65,l),
(544,505,l),
(662,-6,l),
(749,-2,l),
(771,65,l),
(1039,700,l),
(934,700,l),
(722,162,l),
(610,696,l),
(543,692,l),
(516,625,l),
(277,139,l),
(201,700,l),
(88,700,l),
(197,-6,l)
);
}
);
width = 961;
}
);
unicode = 87;
}
{
glyphname = bracketleft;
layers = (
{
layerId = m002;
shapes = (
{
closed = 1;
nodes = (
(50,-145,l),
(240,-163,l),
(245,-123,l),
(130,-95,l),
(130,755,l),
(245,783,l),
(240,823,l),
(50,805,l)
);
}
);
width = 265;
},
{
layerId = m003;
shapes = (
{
closed = 1;
nodes = (
(-20,-145,l),
(168,-163,l),
(179,-123,l),
(67,-95,l),
(187,755,l),
(306,783,l),
(306,823,l),
(114,805,l)
);
}
);
width = 265;
},
{
layerId = m006;
shapes = (
{
closed = 1;
nodes = (
(50,-145,l),
(240,-163,l),
(242,-133,l),
(90,-110,l),
(90,770,l),
(242,793,l),
(240,823,l),
(50,805,l)
);
}
);
width = 265;
},
{
layerId = m007;
shapes = (
{
closed = 1;
nodes = (
(-20,-145,l),
(168,-163,l),
(174,-133,l),
(25,-110,l),
(149,770,l),
(304,793,l),
(306,823,l),
(114,805,l)
);
}
);
width = 265;
},
{
layerId = m008;
shapes = (
{
closed = 1;
nodes = (
(50,-165,l),
(265,-183,l),
(275,-113,l),
(160,-95,l),
(160,755,l),
(275,773,l),
(265,843,l),
(50,825,l)
);
}
);
width = 265;
},
{
layerId = m009;
shapes = (
{
closed = 1;
nodes = (
(-8,-165,l),
(204,-183,l),
(224,-113,l),
(112,-95,l),
(231,755,l),
(349,773,l),
(348,843,l),
(131,825,l)
);
}
);
width = 265;
}
);
unicode = 91;
}
{
glyphname = asciicircum;
layers = (
{
layerId = m002;
shapes = (
{
closed = 1;
nodes = (
(220,765,l),
(60,470,l),
(125,435,l),
(240,676,l),
(345,435,l),
(420,470,l),
(260,765,l)
);
}
);
width = 480;
},
{
layerId = m003;
shapes = (
{
closed = 1;
nodes = (
(293,765,l),
(92,470,l),
(152,435,l),
(301,676,l),
(372,435,l),
(452,470,l),
(333,765,l)
);
}
);
width = 480;
},
{
layerId = m006;
shapes = (
{
closed = 1;
nodes = (
(230,765,l),
(60,470,l),
(85,455,l),
(240,736,l),
(395,455,l),
(420,470,l),
(250,765,l)
);
}
);
width = 480;
},
{
layerId = m007;
shapes = (
{
closed = 1;
nodes = (
(302,765,l),
(91,470,l),
(114,455,l),
(308,736,l),
(424,455,l),
(451,470,l),
(322,765,l)
);
}
);
width = 480;
},
{
layerId = m008;
shapes = (
{
closed = 1;
nodes = (
(220,765,l),
(60,470,l),
(145,435,l),
(240,636,l),
(325,435,l),
(420,470,l),
(260,765,l)
);
}
);
width = 480;
},
{
layerId = m009;
shapes = (
{
closed = 1;
nodes = (
(292,765,l),
(91,470,l),
(171,435,l),
(294,636,l),
(351,435,l),
(451,470,l),
(332,765,l)
);
}
);
width = 480;
}
);
unicode = 94;
}
{
glyphname = c;
layers = (
{
anchors = (
{
name = bottom;
pos = (258,5);
},
{
name = top;
pos = (263,490);
}
);
background = {
shapes = (
{
closed = 1;
nodes = (
(138,116,o),
(138,261,cs),
(138,457,o),
(275,448,o),
(396,410,c),
(408,494,l),
(374,505,o),
(339,510,o),
(306,510,cs),
(172,510,o),
(55,389,o),
(55,233,cs),
(55,100,o),
(125,-10,o),
(244,-10,cs),
(294,-10,o),
(341,10,o),
(429,70,c),
(409,110,l),
(233,15,o)
);
}
);
};
layerId = m002;
shapes = (
{
closed = 1;
nodes = (
(138,116,o),
(138,271,cs),
(138,457,o),
(285,448,o),
(396,400,c),
(408,484,l),
(374,499,o),
(339,510,o),
(296,510,cs),
(172,510,o),
(55,389,o),
(55,243,cs),
(55,100,o),
(125,-10,o),
(244,-10,cs),
(294,-10,o),
(341,0,o),
(429,60,c),
(409,100,l),
(233,5,o)
);
}
);
width = 474;
},
{
anchors = (
{
name = bottom;
pos = (181,0);
},
{
name = top;
pos = (301,500);
}
);
background = {
shapes = (
{
closed = 1;
nodes = (
(102,116,o),
(123,261,cs),
(150,457,o),
(286,448,o),
(401,410,c),
(425,494,l),
(393,505,o),
(359,510,o),
(326,510,cs),
(192,510,o),
(58,389,o),
(36,233,cs),
(17,100,o),
(101,-10,o),
(190,-10,cs),
(240,-10,o),
(290,10,o),
(390,70,c),
(372,110,l),
(183,5,o)
);
}
);
};
layerId = m003;
shapes = (
{
closed = 1;
nodes = (
(102,116,o),
(123,261,cs),
(150,457,o),
(286,448,o),
(401,390,c),
(425,474,l),
(393,495,o),
(349,510,o),
(316,510,cs),
(202,510,o),
(58,389,o),
(36,233,cs),
(17,100,o),
(101,-10,o),
(210,-10,cs),
(240,-10,o),
(290,-10,o),
(390,50,c),
(372,90,l),
(183,15,o)
);
}
);
width = 432;
},
{
anchors = (
{
name = bottom;
pos = (258,5);
},
{
name = top;
pos = (263,490);
}
);
background = {
shapes = (
{
closed = 1;
nodes = (
(138,116,o),
(138,261,cs),
(138,457,o),
(275,448,o),
(396,410,c),
(408,494,l),
(374,505,o),
(339,510,o),
(306,510,cs),
(172,510,o),
(55,389,o),
(55,233,cs),
(55,100,o),
(125,-10,o),
(244,-10,cs),
(294,-10,o),
(341,10,o),
(429,70,c),
(409,110,l),
(233,15,o)
);
}
);
};
layerId = m006;
shapes = (
{
closed = 1;
nodes = (
(93,66,o),
(93,251,cs),
(93,437,o),
(225,520,o),
(386,462,c),
(398,500,l),
(368,510,o),
(338,515,o),
(309,515,cs),
(151,515,o),
(55,405,o),
(55,223,cs),
(55,100,o),
(145,-10,o),
(244,-10,cs),
(294,-10,o),
(341,0,o),
(426,52,c),
(417,75,l),
(231,-40,o)
);
}
);
width = 471;
},
{
anchors = (
{
name = bottom;
pos = (193,5);
},
{
name = top;
pos = (266,490);
}
);
background = {
shapes = (
{
closed = 1;
nodes = (
(121,116,o),
(121,261,cs),
(121,457,o),
(258,448,o),
(379,410,c),
(391,494,l),
(357,505,o),
(322,510,o),
(289,510,cs),
(155,510,o),
(38,389,o),
(38,233,cs),
(38,100,o),
(108,-10,o),
(227,-10,cs),
(277,-10,o),
(324,10,o),
(412,70,c),
(392,110,l),
(216,15,o)
);
}
);
};
layerId = m007;
shapes = (
{
closed = 1;
nodes = (
(36,66,o),
(62,251,cs),
(88,437,o),
(252,520,o),
(385,462,c),
(402,500,l),
(373,510,o),
(344,515,o),
(315,515,cs),
(177,515,o),
(46,405,o),
(20,223,cs),
(3,100,o),
(77,-10,o),
(176,-10,cs),
(226,-10,o),
(275,0,o),
(367,52,c),
(361,75,l),
(159,-40,o)
);
}
);
width = 432;
},
{
anchors = (
{
name = bottom;
pos = (258,5);
},
{
name = top;
pos = (263,490);
}
);
background = {
shapes = (
{
closed = 1;
nodes = (
(138,116,o),
(138,261,cs),
(138,457,o),
(275,448,o),
(396,410,c),
(408,494,l),
(374,505,o),
(339,510,o),
(306,510,cs),
(172,510,o),
(55,389,o),
(55,233,cs),
(55,100,o),
(125,-10,o),
(244,-10,cs),
(294,-10,o),
(341,10,o),
(429,70,c),
(409,110,l),
(233,15,o)
);
}
);
};
layerId = m008;
shapes = (
{
closed = 1;
nodes = (
(148,116,o),
(148,261,cs),
(148,437,o),
(275,428,o),
(396,390,c),
(408,494,l),
(374,505,o),
(339,510,o),
(306,510,cs),
(172,510,o),
(45,389,o),
(45,233,cs),
(45,100,o),
(125,-10,o),
(244,-10,cs),
(294,-10,o),
(341,10,o),
(429,70,c),
(404,125,l),
(223,35,o)
);
}
);
width = 474;
},
{
anchors = (
{
name = bottom;
pos = (218,5);
},
{
name = top;
pos = (313,490);
}
);
background = {
shapes = (
{
closed = 1;
nodes = (
(138,116,o),
(138,261,cs),
(138,457,o),
(275,448,o),
(396,410,c),
(408,494,l),
(374,505,o),
(339,510,o),
(306,510,cs),
(172,510,o),
(55,389,o),
(55,233,cs),
(55,100,o),
(125,-10,o),
(244,-10,cs),
(294,-10,o),
(341,10,o),
(429,70,c),
(409,110,l),
(233,15,o)
);
}
);
};
layerId = m009;
shapes = (
{
closed = 1;
nodes = (
(129,116,o),
(150,261,cs),
(174,437,o),
(300,428,o),
(416,390,c),
(442,494,l),
(410,505,o),
(376,510,o),
(343,510,cs),
(209,510,o),
(65,389,o),
(43,233,cs),
(24,100,o),
(108,-10,o),
(207,-10,cs),
(257,-10,o),
(307,10,o),
(404,70,c),
(386,125,l),
(193,35,o)
);
}
);
width = 474;
}
);
unicode = 99;
}
{
glyphname = d;
layers = (
{
anchors = (
{
name = bottom;
pos = (268,0);
},
{
name = center;
pos = (268,250);
},
{
name = top;
pos = (268,750);
},
{
name = topright;
pos = (485,750);
}
);
background = {
anchors = (
{
name = bottom;
pos = (268,0);
},
{
name = center;
pos = (268,250);
},
{
name = top;
pos = (268,750);
},
{
name = topright;
pos = (485,750);
}
);
shapes = (
{
closed = 1;
nodes = (
(259,-20,o),
(316,0,o),
(394,70,c),
(394,120,l),
(350,74,o),
(309,55,o),
(272,55,cs),
(199,55,o),
(133,148,o),
(133,256,cs),
(133,380,o),
(183,450,o),
(264,450,cs),
(302,450,o),
(347,436,o),
(396,415,c),
(457,475,l),
(409,492,o),
(353,515,o),
(301,515,cs),
(167,515,o),
(50,404,o),
(50,248,cs),
(50,91,o),
(143,-20,o),
(229,-20,cs)
);
},
{
closed = 1;
nodes = (
(470,10,l),
(460,200,l),
(460,760,l),
(370,740,l),
(390,450,l),
(380,-10,l)
);
}
);
};
layerId = m002;
shapes = (
{
closed = 1;
nodes = (
(259,-20,o),
(316,0,o),
(394,70,c),
(394,120,l),
(350,74,o),
(309,55,o),
(272,55,cs),
(199,55,o),
(133,148,o),
(133,256,cs),
(133,380,o),
(183,450,o),
(264,450,cs),
(302,450,o),
(347,436,o),
(396,415,c),
(457,475,l),
(409,492,o),
(353,515,o),
(301,515,cs),
(167,515,o),
(50,404,o),
(50,248,cs),
(50,91,o),
(143,-20,o),
(229,-20,cs)
);
},
{
closed = 1;
nodes = (
(470,10,l),
(460,200,l),
(460,760,l),
(370,740,l),
(390,450,l),
(382,87,l),
(380,-10,l)
);
}
);
width = 537;
},
{
anchors = (
{
name = bottom;
pos = (233,0);
},
{
name = center;
pos = (268,250);
},
{
name = top;
pos = (338,750);
},
{
name = topright;
pos = (525,750);
}
);
background = {
shapes = (
{
closed = 1;
nodes = (
(221,-20,o),
(281,0,o),
(369,70,c),
(376,120,l),
(325,74,o),
(282,55,o),
(245,55,cs),
(172,55,o),
(119,148,o),
(134,256,cs),
(151,380,o),
(211,450,o),
(292,450,cs),
(330,450,o),
(373,436,o),
(419,415,c),
(489,475,l),
(443,492,o),
(390,515,o),
(338,515,cs),
(204,515,o),
(72,404,o),
(50,248,cs),
(28,91,o),
(105,-20,o),
(191,-20,cs)
);
},
{
closed = 1;
nodes = (
(436,10,l),
(453,200,l),
(532,760,l),
(439,740,l),
(418,450,l),
(343,-10,l)
);
}
);
};
layerId = m003;
shapes = (
{
closed = 1;
nodes = (
(221,-20,o),
(281,-5,o),
(379,79,c),
(386,140,l),
(325,84,o),
(272,51,o),
(235,51,cs),
(152,51,o),
(119,148,o),
(134,256,cs),
(151,380,o),
(211,450,o),
(292,450,cs),
(330,450,o),
(373,436,o),
(419,415,c),
(489,475,l),
(443,492,o),
(390,515,o),
(338,515,cs),
(204,515,o),
(71,404,o),
(50,248,cs),
(28,81,o),
(105,-20,o),
(181,-20,cs)
);
},
{
closed = 1;
nodes = (
(446,10,l),
(453,200,l),
(532,760,l),
(439,740,l),
(418,450,l),
(358,81,l),
(353,-10,l)
);
}
);
width = 535;
},
{
anchors = (
{
name = bottom;
pos = (267,0);
},
{
name = center;
pos = (267,250);
},
{
name = top;
pos = (267,750);
},
{
name = topright;
pos = (484,750);
}
);
background = {
shapes = (
{
closed = 1;
nodes = (
(258,-20,o),
(315,0,o),
(393,70,c),
(393,120,l),
(349,74,o),
(308,55,o),
(271,55,cs),
(198,55,o),
(132,148,o),
(132,256,cs),
(132,380,o),
(182,450,o),
(263,450,cs),
(301,450,o),
(346,436,o),
(395,415,c),
(456,475,l),
(408,492,o),
(352,515,o),
(300,515,cs),
(166,515,o),
(49,404,o),
(49,248,cs),
(49,91,o),
(142,-20,o),
(228,-20,cs)
);
},
{
closed = 1;
nodes = (
(469,10,l),
(459,200,l),
(459,760,l),
(369,740,l),
(389,450,l),
(381,87,l),
(379,-10,l)
);
}
);
};
layerId = m006;
shapes = (
{
closed = 1;
nodes = (
(296,-18,o),
(357,20,o),
(413,84,c),
(413,122,l),
(364,59,o),
(297,14,o),
(250,14,cs),
(137,14,o),
(90,134,o),
(90,239,cs),
(90,385,o),
(178,486,o),
(296,486,cs),
(328,486,o),
(369,476,o),
(405,460,c),
(418,492,l),
(406,498,o),
(358,515,o),
(306,515,cs),
(172,515,o),
(50,404,o),
(50,228,cs),
(50,85,o),
(141,-18,o),
(231,-18,cs)
);
},
{
closed = 1;
nodes = (
(439,0,l),
(434,200,l),
(429,760,l),
(392,752,l),
(400,380,l),
(399,60,l),
(399,-10,l)
);
}
);
width = 504;
},
{
anchors = (
{
name = bottom;
pos = (219,0);
},
{
name = center;
pos = (254,250);
},
{
name = top;
pos = (324,750);
},
{
name = topright;
pos = (541,750);
}
);
background = {
shapes = (
{
closed = 1;
nodes = (
(259,-20,o),
(316,0,o),
(394,70,c),
(394,120,l),
(350,74,o),
(309,55,o),
(272,55,cs),
(199,55,o),
(133,148,o),
(133,256,cs),
(133,380,o),
(183,450,o),
(264,450,cs),
(302,450,o),
(347,436,o),
(396,415,c),
(457,475,l),
(409,492,o),
(353,515,o),
(301,515,cs),
(167,515,o),
(50,404,o),
(50,248,cs),
(50,91,o),
(143,-20,o),
(229,-20,cs)
);
},
{
closed = 1;
nodes = (
(470,10,l),
(460,200,l),
(460,760,l),
(370,740,l),
(390,450,l),
(382,87,l),
(380,-10,l)
);
}
);
};
layerId = m007;
shapes = (
{
closed = 1;
nodes = (
(245,-18,o),
(312,20,o),
(377,84,c),
(382,122,l),
(324,59,o),
(251,14,o),
(204,14,cs),
(91,14,o),
(61,134,o),
(75,239,cs),
(96,385,o),
(198,486,o),
(316,486,cs),
(348,486,o),
(388,476,o),
(421,460,c),
(439,492,l),
(428,498,o),
(382,515,o),
(330,515,cs),
(196,515,o),
(59,404,o),
(34,228,cs),
(14,85,o),
(90,-18,o),
(180,-18,cs)
);
},
{
closed = 1;
nodes = (
(391,0,l),
(414,200,l),
(488,760,l),
(449,752,l),
(405,380,l),
(359,60,l),
(349,-10,l)
);
}
);
width = 505;
},
{
anchors = (
{
name = bottom;
pos = (300,0);
},
{
name = center;
pos = (300,250);
},
{
name = top;
pos = (300,750);
},
{
name = topright;
pos = (517,750);
}
);
background = {
shapes = (
{
closed = 1;
nodes = (
(291,-20,o),
(348,0,o),
(426,70,c),
(426,120,l),
(382,74,o),
(341,55,o),
(304,55,cs),
(231,55,o),
(165,148,o),
(165,256,cs),
(165,380,o),
(215,450,o),
(296,450,cs),
(334,450,o),
(379,436,o),
(428,415,c),
(489,475,l),
(441,492,o),
(385,515,o),
(333,515,cs),
(199,515,o),
(82,404,o),
(82,248,cs),
(82,91,o),
(175,-20,o),
(261,-20,cs)
);
},
{
closed = 1;
nodes = (
(502,10,l),
(492,200,l),
(492,760,l),
(402,740,l),
(422,450,l),
(414,87,l),
(412,-10,l)
);
}
);
};
layerId = m008;
shapes = (
{
closed = 1;
nodes = (
(263,-20,o),
(320,10,o),
(398,70,c),
(398,140,l),
(354,94,o),
(313,75,o),
(276,75,cs),
(203,75,o),
(158,138,o),
(158,246,cs),
(158,395,o),
(215,426,o),
(282,426,cs),
(325,426,o),
(370,409,o),
(400,390,c),
(461,475,l),
(413,492,o),
(347,515,o),
(295,515,cs),
(161,515,o),
(55,394,o),
(55,238,cs),
(55,71,o),
(147,-20,o),
(233,-20,cs)
);
},
{
closed = 1;
nodes = (
(494,10,l),
(484,200,l),
(484,760,l),
(374,740,l),
(389,410,l),
(384,60,l),
(384,-10,l)
);
}
);
width = 561;
},
{
anchors = (
{
name = bottom;
pos = (265,0);
},
{
name = center;
pos = (300,250);
},
{
name = top;
pos = (370,750);
},
{
name = topright;
pos = (547,750);
}
);
background = {
shapes = (
{
closed = 1;
nodes = (
(291,-20,o),
(348,0,o),
(426,70,c),
(426,120,l),
(382,74,o),
(341,55,o),
(304,55,cs),
(231,55,o),
(165,148,o),
(165,256,cs),
(165,380,o),
(215,450,o),
(296,450,cs),
(334,450,o),
(379,436,o),
(428,415,c),
(489,475,l),
(441,492,o),
(385,515,o),
(333,515,cs),
(199,515,o),
(82,404,o),
(82,248,cs),
(82,91,o),
(175,-20,o),
(261,-20,cs)
);
},
{
closed = 1;
nodes = (
(502,10,l),
(492,200,l),
(492,760,l),
(402,740,l),
(422,450,l),
(414,87,l),
(412,-10,l)
);
}
);
};
layerId = m009;
shapes = (
{
closed = 1;
nodes = (
(255,-10,o),
(296,10,o),
(373,70,c),
(383,140,l),
(332,94,o),
(288,75,o),
(251,75,cs),
(188,75,o),
(142,138,o),
(157,246,cs),
(178,395,o),
(230,426,o),
(307,426,cs),
(350,426,o),
(392,409,o),
(420,390,c),
(493,475,l),
(447,492,o),
(384,515,o),
(332,515,cs),
(208,515,o),
(81,394,o),
(53,238,cs),
(30,111,o),
(109,-10,o),
(205,-10,cs)
);
},
{
closed = 1;
nodes = (
(460,0,l),
(477,200,l),
(556,760,l),
(443,740,l),
(411,410,l),
(357,60,l),
(347,-10,l)
);
}
);
width = 561;
}
);
unicode = 100;
}
{
glyphname = e;
layers = (
{
anchors = (
{
name = bottom;
pos = (257,0);
},
{
name = ogonek;
pos = (454,70);
},
{
name = top;
pos = (277,500);
}
);
background = {
anchors = (
{
name = bottom;
pos = (257,0);
},
{
name = ogonek;
pos = (454,70);
},
{
name = top;
pos = (257,500);
}
);
shapes = (
{
closed = 1;
nodes = (
(258,15,o),
(143,101,o),
(143,256,cs),
(143,413,o),
(209,449,o),
(262,449,cs),
(308,449,o),
(358,407,o),
(360,328,c),
(442,328,l),
(438,456,o),
(354,520,o),
(282,520,cs),
(181,520,o),
(60,414,o),
(60,231,cs),
(60,118,o),
(140,-10,o),
(259,-10,cs),
(309,-10,o),
(366,10,o),
(454,70,c),
(434,110,l)
);
},
{
closed = 1;
nodes = (
(109,288,l),
(442,288,l),
(442,328,l),
(389,343,l),
(109,333,l)
);
}
);
};
layerId = m002;
shapes = (
{
closed = 1;
nodes = (
(258,15,o),
(143,101,o),
(143,256,cs),
(143,413,o),
(209,449,o),
(262,449,cs),
(308,449,o),
(358,407,o),
(360,328,c),
(442,328,l),
(438,456,o),
(354,520,o),
(282,520,cs),
(181,520,o),
(60,414,o),
(60,231,cs),
(60,118,o),
(140,-10,o),
(259,-10,cs),
(309,-10,o),
(366,10,o),
(454,70,c),
(434,110,l)
);
},
{
closed = 1;
nodes = (
(109,288,l),
(442,288,l),
(442,328,l),
(389,343,l),
(109,333,l)
);
}
);
width = 514;
},
{
anchors = (
{
name = bottom;
pos = (202,0);
},
{
name = ogonek;
pos = (409,70);
},
{
name = top;
pos = (292,500);
}
);
background = {
shapes = (
{
closed = 1;
nodes = (
(205,15,o),
(102,101,o),
(124,256,cs),
(146,413,o),
(217,449,o),
(250,449,cs),
(316,449,o),
(360,407,o),
(351,328,c),
(433,328,l),
(447,456,o),
(372,515,o),
(280,515,cs),
(199,515,o),
(63,414,o),
(40,251,cs),
(21,118,o),
(83,-10,o),
(202,-10,cs),
(252,-10,o),
(312,10,o),
(409,70,c),
(394,110,l)
);
},
{
closed = 1;
nodes = (
(94,288,l),
(427,288,l),
(433,328,l),
(382,343,l),
(101,333,l)
);
}
);
};
layerId = m003;
shapes = (
{
closed = 1;
nodes = (
(205,15,o),
(102,101,o),
(124,256,cs),
(146,413,o),
(207,449,o),
(260,449,cs),
(306,449,o),
(360,407,o),
(351,328,c),
(433,328,l),
(447,456,o),
(357,515,o),
(285,515,cs),
(184,515,o),
(63,414,o),
(40,251,cs),
(21,118,o),
(83,-10,o),
(202,-10,cs),
(252,-10,o),
(312,10,o),
(409,70,c),
(394,110,l)
);
},
{
closed = 1;
nodes = (
(94,288,l),
(427,288,l),
(433,328,l),
(382,343,l),
(101,333,l)
);
}
);
width = 474;
},
{
anchors = (
{
name = bottom;
pos = (260,0);
},
{
name = ogonek;
pos = (457,70);
},
{
name = top;
pos = (280,500);
}
);
background = {
shapes = (
{
closed = 1;
nodes = (
(261,15,o),
(146,101,o),
(146,256,cs),
(146,413,o),
(212,449,o),
(265,449,cs),
(311,449,o),
(361,407,o),
(363,328,c),
(445,328,l),
(441,456,o),
(357,520,o),
(285,520,cs),
(184,520,o),
(63,414,o),
(63,231,cs),
(63,118,o),
(143,-10,o),
(262,-10,cs),
(312,-10,o),
(369,10,o),
(457,70,c),
(437,110,l)
);
},
{
closed = 1;
nodes = (
(112,288,l),
(445,288,l),
(445,328,l),
(392,343,l),
(112,333,l)
);
}
);
};
layerId = m006;
shapes = (
{
closed = 1;
nodes = (
(209,-68,o),
(96,111,o),
(96,256,cs),
(96,413,o),
(192,490,o),
(265,490,cs),
(331,490,o),
(405,447,o),
(412,308,c),
(445,308,l),
(441,456,o),
(357,520,o),
(275,520,cs),
(164,520,o),
(60,414,o),
(60,231,cs),
(60,118,o),
(143,-10,o),
(262,-10,cs),
(312,-10,o),
(369,10,o),
(447,60,c),
(435,82,l)
);
},
{
closed = 1;
nodes = (
(92,288,l),
(445,288,l),
(445,308,l),
(432,318,l),
(92,313,l)
);
}
);
width = 507;
},
{
anchors = (
{
name = bottom;
pos = (188,0);
},
{
name = ogonek;
pos = (395,70);
},
{
name = top;
pos = (278,500);
}
);
background = {
shapes = (
{
closed = 1;
nodes = (
(238,15,o),
(123,101,o),
(123,256,cs),
(123,413,o),
(189,449,o),
(242,449,cs),
(288,449,o),
(338,407,o),
(340,328,c),
(422,328,l),
(418,456,o),
(334,520,o),
(262,520,cs),
(161,520,o),
(40,414,o),
(40,231,cs),
(40,118,o),
(120,-10,o),
(239,-10,cs),
(289,-10,o),
(346,10,o),
(434,70,c),
(414,110,l)
);
},
{
closed = 1;
nodes = (
(89,288,l),
(422,288,l),
(422,328,l),
(369,343,l),
(89,333,l)
);
}
);
};
layerId = m007;
shapes = (
{
closed = 1;
nodes = (
(127,-68,o),
(39,111,o),
(60,256,cs),
(82,413,o),
(189,490,o),
(262,490,cs),
(328,490,o),
(396,447,o),
(383,308,c),
(416,308,l),
(433,456,o),
(358,520,o),
(276,520,cs),
(165,520,o),
(46,414,o),
(20,231,cs),
(4,118,o),
(69,-10,o),
(188,-10,cs),
(238,-10,o),
(298,10,o),
(383,60,c),
(374,82,l)
);
},
{
closed = 1;
nodes = (
(60,288,l),
(413,288,l),
(416,308,l),
(405,318,l),
(64,313,l)
);
}
);
width = 464;
},
{
anchors = (
{
name = bottom;
pos = (257,0);
},
{
name = ogonek;
pos = (449,75);
},
{
name = top;
pos = (267,500);
}
);
background = {
anchors = (
{
name = bottom;
pos = (257,0);
},
{
name = ogonek;
pos = (454,70);
},
{
name = top;
pos = (257,500);
}
);
shapes = (
{
closed = 1;
nodes = (
(161,116,o),
(161,261,cs),
(161,437,o),
(288,428,o),
(409,390,c),
(421,494,l),
(387,505,o),
(352,510,o),
(319,510,cs),
(185,510,o),
(58,389,o),
(58,233,cs),
(58,100,o),
(138,-10,o),
(257,-10,cs),
(307,-10,o),
(354,10,o),
(442,70,c),
(417,125,l),
(236,35,o)
);
}
);
};
layerId = m008;
shapes = (
{
closed = 1;
nodes = (
(218,15,o),
(158,151,o),
(158,256,cs),
(158,382,o),
(196,428,o),
(254,428,cs),
(303,428,o),
(333,393,o),
(335,328,c),
(437,328,l),
(433,446,o),
(352,510,o),
(270,510,cs),
(169,510,o),
(50,414,o),
(50,231,cs),
(50,118,o),
(120,-10,o),
(259,-10,cs),
(309,-10,o),
(366,10,o),
(449,75,c),
(424,125,l)
);
},
{
closed = 1;
nodes = (
(109,258,l),
(437,258,l),
(437,328,l),
(384,333,l),
(109,323,l)
);
}
);
width = 514;
},
{
anchors = (
{
name = bottom;
pos = (222,0);
},
{
name = ogonek;
pos = (424,75);
},
{
name = top;
pos = (302,500);
}
);
background = {
anchors = (
{
name = bottom;
pos = (257,0);
},
{
name = ogonek;
pos = (454,70);
},
{
name = top;
pos = (257,500);
}
);
shapes = (
{
closed = 1;
nodes = (
(161,116,o),
(161,261,cs),
(161,437,o),
(288,428,o),
(409,390,c),
(421,494,l),
(387,505,o),
(352,510,o),
(319,510,cs),
(185,510,o),
(58,389,o),
(58,233,cs),
(58,100,o),
(138,-10,o),
(257,-10,cs),
(307,-10,o),
(354,10,o),
(442,70,c),
(417,125,l),
(236,35,o)
);
}
);
};
layerId = m009;
shapes = (
{
closed = 1;
nodes = (
(185,15,o),
(144,151,o),
(159,256,cs),
(177,382,o),
(221,428,o),
(279,428,cs),
(328,428,o),
(353,393,o),
(346,328,c),
(448,328,l),
(461,446,o),
(389,510,o),
(307,510,cs),
(206,510,o),
(83,414,o),
(60,251,cs),
(41,118,o),
(83,-10,o),
(222,-10,cs),
(272,-10,o),
(332,10,o),
(424,75,c),
(406,125,l)
);
},
{
closed = 1;
nodes = (
(110,258,l),
(438,258,l),
(448,328,l),
(396,333,l),
(119,323,l)
);
}
);
width = 514;
}
);
unicode = 101;
}
{
glyphname = f;
layers = (
{
anchors = (
{
name = bottom;
pos = (168,0);
},
{
name = top;
pos = (168,750);
}
);
background = {
anchors = (
{
name = bottom;
pos = (168,0);
},
{
name = top;
pos = (168,750);
}
);
shapes = (
{
closed = 1;
nodes = (
(179,659,o),
(208,687,o),
(329,668,c),
(330,758,l),
(212,782,o),
(102,665,o),
(106,546,cs),
(115,240,l),
(115,0,l),
(205,0,l),
(190,340,l),
(195,468,l),
(186,573,ls)
);
},
{
closed = 1;
nodes = (
(28,450,l),
(303,450,l),
(308,518,l),
(25,500,l)
);
}
);
};
layerId = m002;
shapes = (
{
closed = 1;
nodes = (
(179,659,o),
(208,687,o),
(329,668,c),
(330,758,l),
(212,782,o),
(102,665,o),
(106,546,cs),
(115,240,l),
(115,0,l),
(205,0,l),
(190,340,l),
(195,468,l),
(186,573,ls)
);
},
{
closed = 1;
nodes = (
(28,450,l),
(303,450,l),
(308,518,l),
(25,500,l)
);
}
);
width = 335;
},
{
anchors = (
{
name = bottom;
pos = (128,0);
},
{
name = top;
pos = (233,750);
}
);
background = {
anchors = (
{
name = bottom;
pos = (163,0);
},
{
name = top;
pos = (163,750);
}
);
shapes = (
{
closed = 1;
nodes = (
(174,659,o),
(203,687,o),
(324,668,c),
(325,758,l),
(207,782,o),
(97,665,o),
(101,546,cs),
(110,240,l),
(110,0,l),
(200,0,l),
(185,340,l),
(190,468,l),
(181,573,ls)
);
},
{
closed = 1;
nodes = (
(23,450,l),
(298,450,l),
(303,518,l),
(20,500,l)
);
}
);
};
layerId = m003;
shapes = (
{
closed = 1;
nodes = (
(231,659,o),
(264,687,o),
(383,668,c),
(396,758,l),
(282,782,o),
(155,665,o),
(143,546,cs),
(109,240,l),
(75,0,l),
(165,0,l),
(198,340,l),
(221,468,l),
(226,573,ls)
);
},
{
closed = 1;
nodes = (
(51,450,l),
(326,450,l),
(341,518,l),
(55,500,l)
);
}
);
width = 325;
},
{
anchors = (
{
name = bottom;
pos = (168,0);
},
{
name = top;
pos = (168,750);
}
);
background = {
shapes = (
{
closed = 1;
nodes = (
(179,659,o),
(208,687,o),
(329,668,c),
(330,758,l),
(212,782,o),
(102,665,o),
(106,546,cs),
(115,240,l),
(115,0,l),
(205,0,l),
(190,340,l),
(195,468,l),
(186,573,ls)
);
},
{
closed = 1;
nodes = (
(28,450,l),
(303,450,l),
(308,518,l),
(25,500,l)
);
}
);
};
layerId = m006;
shapes = (
{
closed = 1;
nodes = (
(139,659,o),
(146,737,o),
(277,718,c),
(278,758,l),
(140,762,o),
(108,685,o),
(110,586,cs),
(118,250,l),
(115,0,l),
(155,0,l),
(146,340,l),
(147,488,l),
(142,593,ls)
);
},
{
closed = 1;
nodes = (
(28,470,l),
(267,470,l),
(268,508,l),
(25,495,l)
);
}
);
width = 283;
},
{
anchors = (
{
name = bottom;
pos = (114,0);
},
{
name = top;
pos = (219,750);
}
);
background = {
shapes = (
{
closed = 1;
nodes = (
(174,659,o),
(203,687,o),
(324,668,c),
(325,758,l),
(207,782,o),
(97,665,o),
(101,546,cs),
(110,240,l),
(110,0,l),
(200,0,l),
(185,340,l),
(190,468,l),
(181,573,ls)
);
},
{
closed = 1;
nodes = (
(23,450,l),
(298,450,l),
(303,518,l),
(20,500,l)
);
}
);
};
layerId = m007;
shapes = (
{
closed = 1;
nodes = (
(177,659,o),
(195,737,o),
(324,718,c),
(330,758,l),
(193,762,o),
(150,685,o),
(138,586,cs),
(99,250,l),
(61,0,l),
(101,0,l),
(140,340,l),
(161,488,l),
(171,593,ls)
);
},
{
closed = 1;
nodes = (
(40,470,l),
(279,470,l),
(285,508,l),
(40,495,l)
);
}
);
width = 273;
},
{
anchors = (
{
name = bottom;
pos = (168,0);
},
{
name = top;
pos = (168,750);
}
);
background = {
anchors = (
{
name = bottom;
pos = (168,0);
},
{
name = top;
pos = (168,750);
}
);
shapes = (
{
closed = 1;
nodes = (
(179,659,o),
(208,687,o),
(329,668,c),
(330,758,l),
(212,782,o),
(102,665,o),
(106,546,cs),
(115,240,l),
(115,0,l),
(205,0,l),
(190,340,l),
(195,468,l),
(186,573,ls)
);
},
{
closed = 1;
nodes = (
(28,450,l),
(303,450,l),
(308,518,l),
(25,500,l)
);
}
);
};
layerId = m008;
shapes = (
{
closed = 1;
nodes = (
(203,659,o),
(208,667,o),
(329,648,c),
(330,758,l),
(212,782,o),
(102,665,o),
(106,546,cs),
(115,240,l),
(115,0,l),
(225,0,l),
(210,340,l),
(210,468,l),
(206,573,ls)
);
},
{
closed = 1;
nodes = (
(28,430,l),
(303,425,l),
(308,518,l),
(25,500,l)
);
}
);
width = 335;
},
{
anchors = (
{
name = bottom;
pos = (138,0);
},
{
name = top;
pos = (243,750);
}
);
background = {
anchors = (
{
name = bottom;
pos = (173,0);
},
{
name = top;
pos = (173,750);
}
);
shapes = (
{
closed = 1;
nodes = (
(184,659,o),
(213,687,o),
(334,668,c),
(335,758,l),
(217,782,o),
(107,665,o),
(111,546,cs),
(120,240,l),
(120,0,l),
(210,0,l),
(195,340,l),
(200,468,l),
(191,573,ls)
);
},
{
closed = 1;
nodes = (
(33,450,l),
(308,450,l),
(313,518,l),
(30,500,l)
);
}
);
};
layerId = m009;
shapes = (
{
closed = 1;
nodes = (
(265,659,o),
(272,667,o),
(390,648,c),
(406,758,l),
(292,782,o),
(165,665,o),
(153,546,cs),
(119,240,l),
(85,0,l),
(195,0,l),
(228,340,l),
(246,468,l),
(256,573,ls)
);
},
{
closed = 1;
nodes = (
(58,430,l),
(333,425,l),
(351,518,l),
(65,500,l)
);
}
);
width = 350;
}
);
unicode = 102;
}
{
glyphname = j;
layers = (
{
background = {
shapes = (
{
closed = 1;
nodes = (
(128,-159,o),
(99,-187,o),
(-22,-168,c),
(-23,-258,l),
(95,-282,o),
(207,-165,o),
(201,-46,cs),
(185,250,l),
(185,510,l),
(95,490,l),
(110,250,l),
(112,32,l),
(121,-73,ls)
);
},
{
closed = 1;
nodes = (
(171,623,o),
(195,648,o),
(195,679,cs),
(195,709,o),
(171,733,o),
(141,733,cs),
(110,733,o),
(85,709,o),
(85,679,cs),
(85,648,o),
(110,623,o),
(141,623,cs)
);
}
);
};
layerId = m002;
shapes = (
{
closed = 1;
nodes = (
(95,-282,o),
(207,-165,o),
(201,-46,cs),
(185,250,l),
(185,510,l),
(95,490,l),
(110,250,l),
(112,32,l),
(121,-73,ls),
(128,-159,o),
(99,-187,o),
(-22,-168,c),
(-23,-258,l)
);
},
{
closed = 1;
nodes = (
(171,623,o),
(195,648,o),
(195,679,cs),
(195,709,o),
(171,733,o),
(141,733,cs),
(110,733,o),
(85,709,o),
(85,679,cs),
(85,648,o),
(110,623,o),
(141,623,cs)
);
}
);
width = 276;
},
{
background = {
shapes = (
{
closed = 1;
nodes = (
(108,-159,o),
(79,-187,o),
(-42,-168,c),
(-43,-258,l),
(75,-282,o),
(187,-165,o),
(181,-46,cs),
(165,250,l),
(165,510,l),
(75,490,l),
(90,250,l),
(92,32,l),
(101,-73,ls)
);
},
{
closed = 1;
nodes = (
(151,623,o),
(175,648,o),
(175,679,cs),
(175,709,o),
(151,733,o),
(121,733,cs),
(90,733,o),
(65,709,o),
(65,679,cs),
(65,648,o),
(90,623,o),
(121,623,cs)
);
}
);
};
layerId = m003;
shapes = (
{
closed = 1;
nodes = (
(0,-282,o),
(129,-165,o),
(139,-46,cs),
(165,250,l),
(202,510,l),
(109,490,l),
(90,250,l),
(61,32,l),
(56,-73,ls),
(51,-159,o),
(18,-187,o),
(-101,-168,c),
(-114,-258,l)
);
},
{
closed = 1;
nodes = (
(211,623,o),
(235,648,o),
(235,679,cs),
(235,709,o),
(211,733,o),
(181,733,cs),
(150,733,o),
(125,709,o),
(125,679,cs),
(125,648,o),
(150,623,o),
(181,623,c)
);
}
);
width = 231;
},
{
background = {
shapes = (
{
closed = 1;
nodes = (
(138,250,l),
(138,0,l),
(177,0,l),
(171,250,l),
(168,505,l),
(133,500,l)
);
},
{
closed = 1;
nodes = (
(162,653,o),
(173,664,o),
(173,678,cs),
(173,692,o),
(162,703,o),
(148,703,cs),
(134,703,o),
(123,692,o),
(123,678,cs),
(123,664,o),
(134,653,o),
(148,653,cs)
);
}
);
};
layerId = m006;
shapes = (
{
closed = 1;
nodes = (
(73,-232,o),
(151,-165,o),
(148,-46,cs),
(141,250,l),
(138,505,l),
(103,500,l),
(108,250,l),
(110,32,l),
(114,-43,ls),
(119,-159,o),
(77,-187,o),
(-44,-168,c),
(-45,-208,l)
);
},
{
closed = 1;
nodes = (
(132,653,o),
(143,664,o),
(143,678,cs),
(143,692,o),
(132,703,o),
(118,703,cs),
(104,703,o),
(93,692,o),
(93,678,cs),
(93,664,o),
(104,653,o),
(118,653,cs)
);
}
);
width = 223;
},
{
background = {
shapes = (
{
closed = 1;
nodes = (
(110,250,l),
(110,0,l),
(149,0,l),
(143,250,l),
(140,505,l),
(105,500,l)
);
},
{
closed = 1;
nodes = (
(134,653,o),
(145,664,o),
(145,678,cs),
(145,692,o),
(134,703,o),
(120,703,cs),
(106,703,o),
(95,692,o),
(95,678,cs),
(95,664,o),
(106,653,o),
(120,653,cs)
);
}
);
};
layerId = m007;
shapes = (
{
closed = 1;
nodes = (
(-37,-232,o),
(51,-165,o),
(64,-46,cs),
(99,250,l),
(132,505,l),
(96,500,l),
(66,250,l),
(37,32,l),
(31,-43,ls),
(19,-159,o),
(-26,-187,o),
(-145,-168,c),
(-151,-208,l)
);
},
{
closed = 1;
nodes = (
(150,653,o),
(161,664,o),
(161,678,cs),
(161,692,o),
(150,703,o),
(136,703,cs),
(122,703,o),
(111,692,o),
(111,678,cs),
(111,664,o),
(122,653,o),
(136,653,cs)
);
}
);
width = 170;
},
{
background = {
shapes = (
{
closed = 1;
nodes = (
(138,-159,o),
(109,-187,o),
(-12,-168,c),
(-13,-258,l),
(105,-282,o),
(217,-165,o),
(211,-46,cs),
(195,250,l),
(195,510,l),
(105,490,l),
(120,250,l),
(122,32,l),
(131,-73,ls)
);
},
{
closed = 1;
nodes = (
(181,623,o),
(205,648,o),
(205,679,cs),
(205,709,o),
(181,733,o),
(151,733,cs),
(120,733,o),
(95,709,o),
(95,679,cs),
(95,648,o),
(120,623,o),
(151,623,cs)
);
}
);
};
layerId = m008;
shapes = (
{
closed = 1;
nodes = (
(115,-282,o),
(225,-165,o),
(221,-46,cs),
(210,250,l),
(205,510,l),
(95,490,l),
(105,250,l),
(112,32,l),
(121,-73,ls),
(127,-139,o),
(90,-162,o),
(-2,-148,c),
(-3,-258,l)
);
},
{
closed = 1;
nodes = (
(187,603,o),
(215,633,o),
(215,669,cs),
(215,705,o),
(187,733,o),
(151,733,cs),
(115,733,o),
(85,705,o),
(85,669,cs),
(85,633,o),
(115,603,o),
(151,603,cs)
);
}
);
width = 296;
},
{
background = {
shapes = (
{
closed = 1;
nodes = (
(138,-159,o),
(109,-187,o),
(-12,-168,c),
(-13,-258,l),
(105,-282,o),
(217,-165,o),
(211,-46,cs),
(195,250,l),
(195,510,l),
(105,490,l),
(120,250,l),
(122,32,l),
(131,-73,ls)
);
},
{
closed = 1;
nodes = (
(181,623,o),
(205,648,o),
(205,679,cs),
(205,709,o),
(181,733,o),
(151,733,cs),
(120,733,o),
(95,709,o),
(95,679,cs),
(95,648,o),
(120,623,o),
(151,623,cs)
);
}
);
};
layerId = m009;
shapes = (
{
closed = 1;
nodes = (
(40,-282,o),
(167,-165,o),
(179,-46,cs),
(210,250,l),
(242,510,l),
(129,490,l),
(105,250,l),
(81,32,l),
(76,-73,ls),
(72,-139,o),
(32,-162,o),
(-58,-148,c),
(-74,-258,l)
);
},
{
closed = 1;
nodes = (
(246,603,o),
(274,633,o),
(274,669,cs),
(274,705,o),
(246,733,o),
(210,733,cs),
(174,733,o),
(144,705,o),
(144,669,cs),
(144,633,o),
(174,603,o),
(210,603,cs)
);
}
);
width = 296;
}
);
unicode = 106;
}
{
glyphname = m;
layers = (
{
anchors = (
{
name = bottom;
pos = (420,0);
},
{
name = top;
pos = (420,500);
}
);
background = {
anchors = (
{
name = bottom;
pos = (420,0);
},
{
name = top;
pos = (420,500);
}
);
shapes = (
{
closed = 1;
nodes = (
(790,0,l),
(780,265,l),
(785,340,ls),
(791,427,o),
(747,520,o),
(640,520,cs),
(590,520,o),
(513,473,o),
(455,423,c),
(473,373,l),
(495,401,o),
(552,444,o),
(604,444,cs),
(669,444,o),
(706,387,o),
(705,320,cs),
(700,0,l)
);
},
{
ref = n;
}
);
};
guides = (
{
angle = 88.477;
pos = (331,-204);
}
);
layerId = m002;
shapes = (
{
closed = 1;
nodes = (
(790,0,l),
(780,265,l),
(785,340,ls),
(791,427,o),
(747,520,o),
(640,520,cs),
(590,520,o),
(513,473,o),
(455,423,c),
(473,373,l),
(495,401,o),
(552,444,o),
(604,444,cs),
(669,444,o),
(706,387,o),
(705,320,cs),
(700,0,l)
);
},
{
ref = n;
}
);
width = 865;
},
{
anchors = (
{
name = bottom;
pos = (367,0);
},
{
name = top;
pos = (437,500);
}
);
background = {
shapes = (
{
closed = 1;
nodes = (
(637,0,l),
(727,0,l),
(754,265,l),
(770,340,ls),
(788,427,o),
(757,520,o),
(650,520,cs),
(600,520,o),
(516,473,o),
(451,423,c),
(462,373,l),
(488,401,o),
(551,444,o),
(603,444,cs),
(668,444,o),
(697,387,o),
(687,320,cs)
);
}
);
};
guides = (
{
angle = 88.477;
pos = (313,-204);
}
);
layerId = m003;
shapes = (
{
closed = 1;
nodes = (
(725,0,l),
(752,265,l),
(764,322,ls),
(786,427,o),
(725,520,o),
(638,520,cs),
(588,520,o),
(488,460,o),
(460,430,c),
(462,370,l),
(487,406,o),
(540,449,o),
(592,449,cs),
(657,449,o),
(695,387,o),
(685,320,cs),
(635,0,l)
);
},
{
ref = n;
}
);
width = 820;
},
{
anchors = (
{
name = bottom;
pos = (435,0);
},
{
name = top;
pos = (435,500);
}
);
background = {
anchors = (
{
name = bottom;
pos = (435,0);
},
{
name = top;
pos = (435,500);
}
);
shapes = (
{
closed = 1;
nodes = (
(705,0,l),
(795,0,l),
(785,265,l),
(790,340,ls),
(796,427,o),
(752,520,o),
(645,520,cs),
(595,520,o),
(518,473,o),
(460,423,c),
(478,373,l),
(500,401,o),
(557,444,o),
(609,444,cs),
(674,444,o),
(711,387,o),
(710,320,cs)
);
},
{
pos = (15,0);
ref = n;
}
);
};
guides = (
{
angle = 88.477;
pos = (346,-204);
}
);
layerId = m006;
shapes = (
{
closed = 1;
nodes = (
(757,0,l),
(752,265,l),
(753,340,ls),
(754,427,o),
(717,520,o),
(610,520,cs),
(520,520,o),
(473,470,o),
(415,423,c),
(415,380,l),
(445,426,o),
(522,487,o),
(594,487,cs),
(689,487,o),
(722,417,o),
(722,320,cs),
(722,0,l)
);
},
{
pos = (15,0);
ref = n;
}
);
width = 832;
},
{
anchors = (
{
name = bottom;
pos = (340,0);
},
{
name = top;
pos = (410,500);
}
);
background = {
anchors = (
{
name = bottom;
pos = (389,0);
},
{
name = top;
pos = (389,500);
}
);
shapes = (
{
closed = 1;
nodes = (
(659,0,l),
(749,0,l),
(739,265,l),
(744,340,ls),
(750,427,o),
(706,520,o),
(599,520,cs),
(549,520,o),
(472,473,o),
(414,423,c),
(432,373,l),
(454,401,o),
(511,444,o),
(563,444,cs),
(628,444,o),
(665,387,o),
(664,320,cs)
);
},
{
pos = (-31,0);
ref = n;
}
);
};
guides = (
{
angle = 88.477;
pos = (300,-204);
}
);
layerId = m007;
shapes = (
{
closed = 1;
nodes = (
(662,0,l),
(694,265,l),
(706,340,ls),
(720,427,o),
(695,520,o),
(588,520,cs),
(498,520,o),
(444,470,o),
(379,423,c),
(373,380,l),
(410,426,o),
(495,487,o),
(567,487,cs),
(662,487,o),
(686,417,o),
(672,320,cs),
(627,0,l)
);
},
{
pos = (-30,0);
ref = n;
}
);
width = 774;
},
{
anchors = (
{
name = bottom;
pos = (420,0);
},
{
name = top;
pos = (420,500);
}
);
background = {
anchors = (
{
name = bottom;
pos = (420,0);
},
{
name = top;
pos = (420,500);
}
);
shapes = (
{
closed = 1;
nodes = (
(790,0,l),
(780,265,l),
(785,340,ls),
(791,427,o),
(747,520,o),
(640,520,cs),
(590,520,o),
(513,473,o),
(455,423,c),
(473,373,l),
(495,401,o),
(552,444,o),
(604,444,cs),
(669,444,o),
(706,387,o),
(705,320,cs),
(700,0,l)
);
},
{
ref = n;
}
);
};
guides = (
{
angle = 88.477;
pos = (331,-204);
}
);
layerId = m008;
shapes = (
{
closed = 1;
nodes = (
(805,0,l),
(795,265,l),
(800,340,ls),
(806,427,o),
(752,520,o),
(645,520,cs),
(595,520,o),
(508,460,o),
(460,423,c),
(480,360,l),
(500,386,o),
(537,429,o),
(604,429,cs),
(654,429,o),
(701,387,o),
(700,300,cs),
(695,0,l)
);
},
{
ref = n;
}
);
width = 880;
},
{
anchors = (
{
name = bottom;
pos = (385,0);
},
{
name = top;
pos = (455,500);
}
);
background = {
anchors = (
{
name = bottom;
pos = (420,0);
},
{
name = top;
pos = (420,500);
}
);
shapes = (
{
closed = 1;
nodes = (
(790,0,l),
(780,265,l),
(785,340,ls),
(791,427,o),
(747,520,o),
(640,520,cs),
(590,520,o),
(513,473,o),
(455,423,c),
(473,373,l),
(495,401,o),
(552,444,o),
(604,444,cs),
(669,444,o),
(706,387,o),
(705,320,cs),
(700,0,l)
);
},
{
ref = n;
}
);
};
guides = (
{
angle = 88.477;
pos = (331,-204);
}
);
layerId = m009;
shapes = (
{
closed = 1;
nodes = (
(770,0,l),
(797,265,l),
(813,340,ls),
(832,427,o),
(790,520,o),
(683,520,cs),
(633,520,o),
(538,460,o),
(484,423,c),
(495,360,l),
(519,386,o),
(562,429,o),
(629,429,cs),
(679,429,o),
(721,387,o),
(707,300,cs),
(660,0,l)
);
},
{
ref = n;
}
);
width = 880;
}
);
metricRight = "=n";
unicode = 109;
}
{
glyphname = n;
layers = (
{
anchors = (
{
name = bottom;
pos = (280,0);
},
{
name = top;
pos = (280,500);
}
);
background = {
anchors = (
{
name = bottom;
pos = (280,0);
},
{
name = top;
pos = (280,500);
}
);
shapes = (
{
closed = 1;
nodes = (
(90,300,l),
(90,0,l),
(175,0,l),
(170,250,l),
(170,510,l),
(80,490,l)
);
},
{
closed = 1;
nodes = (
(395,0,l),
(485,0,l),
(475,265,l),
(480,340,ls),
(486,427,o),
(442,520,o),
(335,520,cs),
(285,520,o),
(208,470,o),
(170,440,c),
(170,380,l),
(190,406,o),
(247,449,o),
(299,449,cs),
(364,449,o),
(401,387,o),
(400,320,cs)
);
}
);
};
layerId = m002;
shapes = (
{
closed = 1;
nodes = (
(485,0,l),
(475,265,l),
(480,340,ls),
(486,427,o),
(442,520,o),
(335,520,cs),
(285,520,o),
(208,470,o),
(160,433,c),
(170,380,l),
(190,406,o),
(247,449,o),
(299,449,cs),
(364,449,o),
(401,387,o),
(400,320,cs),
(395,0,l)
);
},
{
closed = 1;
nodes = (
(175,0,l),
(170,250,l),
(170,510,l),
(80,490,l),
(90,300,l),
(90,0,l)
);
}
);
width = 560;
},
{
anchors = (
{
name = bottom;
pos = (240,40);
},
{
name = top;
pos = (300,500);
}
);
background = {
anchors = (
{
name = bottom;
pos = (265,0);
},
{
name = top;
pos = (265,500);
}
);
shapes = (
{
closed = 1;
nodes = (
(75,300,l),
(75,0,l),
(160,0,l),
(155,250,l),
(155,510,l),
(65,490,l)
);
},
{
closed = 1;
nodes = (
(380,0,l),
(470,0,l),
(460,265,l),
(465,340,ls),
(471,427,o),
(427,520,o),
(320,520,cs),
(270,520,o),
(193,470,o),
(155,440,c),
(155,380,l),
(175,406,o),
(232,449,o),
(284,449,cs),
(349,449,o),
(386,387,o),
(385,320,cs)
);
}
);
};
layerId = m003;
shapes = (
{
closed = 1;
nodes = (
(435,0,l),
(462,265,l),
(474,322,ls),
(496,427,o),
(435,520,o),
(348,520,cs),
(298,520,o),
(198,460,o),
(170,430,c),
(172,370,l),
(197,406,o),
(250,449,o),
(302,449,cs),
(367,449,o),
(405,387,o),
(395,320,cs),
(345,0,l)
);
},
{
closed = 1;
nodes = (
(125,0,l),
(155,250,l),
(192,510,l),
(99,490,l),
(82,300,l),
(40,0,l)
);
}
);
width = 530;
},
{
anchors = (
{
name = bottom;
pos = (259,0);
},
{
name = top;
pos = (259,500);
}
);
background = {
anchors = (
{
name = bottom;
pos = (240,0);
},
{
name = top;
pos = (240,500);
}
);
shapes = (
{
closed = 1;
nodes = (
(50,300,l),
(50,0,l),
(135,0,l),
(130,250,l),
(130,510,l),
(40,490,l)
);
},
{
closed = 1;
nodes = (
(355,0,l),
(445,0,l),
(435,265,l),
(440,340,ls),
(446,427,o),
(402,520,o),
(295,520,cs),
(245,520,o),
(168,470,o),
(130,440,c),
(130,380,l),
(150,406,o),
(207,449,o),
(259,449,cs),
(324,449,o),
(361,387,o),
(360,320,cs)
);
}
);
};
layerId = m006;
shapes = (
{
closed = 1;
nodes = (
(442,0,l),
(437,265,l),
(438,340,ls),
(439,427,o),
(402,520,o),
(295,520,cs),
(225,520,o),
(158,470,o),
(100,423,c),
(100,380,l),
(130,426,o),
(207,487,o),
(279,487,cs),
(374,487,o),
(407,417,o),
(407,320,cs),
(407,0,l)
);
},
{
closed = 1;
nodes = (
(122,0,l),
(116,250,l),
(113,505,l),
(80,500,l),
(85,250,l),
(85,0,l)
);
}
);
width = 517;
},
{
anchors = (
{
name = bottom;
pos = (210,0);
},
{
name = top;
pos = (300,500);
}
);
background = {
anchors = (
{
name = bottom;
pos = (225,0);
},
{
name = top;
pos = (225,500);
}
);
shapes = (
{
closed = 1;
nodes = (
(35,300,l),
(35,0,l),
(120,0,l),
(115,250,l),
(115,510,l),
(25,490,l)
);
},
{
closed = 1;
nodes = (
(340,0,l),
(430,0,l),
(420,265,l),
(425,340,ls),
(431,427,o),
(387,520,o),
(280,520,cs),
(230,520,o),
(153,470,o),
(115,440,c),
(115,380,l),
(135,406,o),
(192,449,o),
(244,449,cs),
(309,449,o),
(346,387,o),
(345,320,cs)
);
}
);
};
layerId = m007;
shapes = (
{
closed = 1;
nodes = (
(378,0,l),
(410,265,l),
(422,340,ls),
(435,427,o),
(411,520,o),
(304,520,cs),
(234,520,o),
(160,470,o),
(95,423,c),
(89,380,l),
(126,426,o),
(211,487,o),
(283,487,cs),
(378,487,o),
(401,417,o),
(388,320,cs),
(343,0,l)
);
},
{
closed = 1;
nodes = (
(58,0,l),
(87,250,l),
(120,505,l),
(86,500,l),
(56,250,l),
(21,0,l)
);
}
);
width = 490;
},
{
anchors = (
{
name = bottom;
pos = (290,0);
},
{
name = top;
pos = (290,500);
}
);
background = {
shapes = (
{
closed = 1;
nodes = (
(495,0,l),
(485,265,l),
(490,340,ls),
(496,427,o),
(452,520,o),
(345,520,cs),
(295,520,o),
(218,470,o),
(170,433,c),
(180,380,l),
(200,406,o),
(257,449,o),
(309,449,cs),
(374,449,o),
(411,387,o),
(410,320,cs),
(405,0,l)
);
},
{
closed = 1;
nodes = (
(185,0,l),
(180,250,l),
(180,510,l),
(90,490,l),
(100,300,l),
(100,0,l)
);
}
);
};
layerId = m008;
shapes = (
{
closed = 1;
nodes = (
(505,0,l),
(495,265,l),
(500,340,ls),
(506,427,o),
(452,520,o),
(345,520,cs),
(295,520,o),
(218,460,o),
(170,423,c),
(180,360,l),
(200,386,o),
(237,429,o),
(304,429,cs),
(354,429,o),
(401,387,o),
(400,300,cs),
(395,0,l)
);
},
{
closed = 1;
nodes = (
(195,0,l),
(190,250,l),
(190,510,l),
(80,490,l),
(90,300,l),
(90,0,l)
);
}
);
width = 580;
},
{
anchors = (
{
name = bottom;
pos = (255,0);
},
{
name = top;
pos = (325,500);
}
);
background = {
shapes = (
{
closed = 1;
nodes = (
(495,0,l),
(485,265,l),
(490,340,ls),
(496,427,o),
(452,520,o),
(345,520,cs),
(295,520,o),
(218,470,o),
(170,433,c),
(180,380,l),
(200,406,o),
(257,449,o),
(309,449,cs),
(374,449,o),
(411,387,o),
(410,320,cs),
(405,0,l)
);
},
{
closed = 1;
nodes = (
(185,0,l),
(180,250,l),
(180,510,l),
(90,490,l),
(100,300,l),
(100,0,l)
);
}
);
};
layerId = m009;
shapes = (
{
closed = 1;
nodes = (
(470,0,l),
(497,265,l),
(513,340,ls),
(531,427,o),
(490,520,o),
(383,520,cs),
(333,520,o),
(248,460,o),
(194,423,c),
(195,360,l),
(219,386,o),
(262,429,o),
(329,429,cs),
(379,429,o),
(420,387,o),
(407,300,cs),
(360,0,l)
);
},
{
closed = 1;
nodes = (
(160,0,l),
(190,250,l),
(227,510,l),
(114,490,l),
(97,300,l),
(55,0,l)
);
}
);
width = 580;
}
);
unicode = 110;
}
{
glyphname = p;
layers = (
{
anchors = (
{
name = bottom;
pos = (275,0);
},
{
name = top;
pos = (275,500);
}
);
background = {
anchors = (
{
name = bottom;
pos = (275,0);
},
{
name = top;
pos = (275,500);
}
);
shapes = (
{
closed = 1;
nodes = (
(155,90,l),
(165,440,l),
(165,510,l),
(75,490,l),
(85,300,l),
(85,-310,l),
(175,-290,l)
);
},
{
closed = 1;
nodes = (
(407,140,o),
(352,55,o),
(281,55,cs),
(243,55,o),
(198,69,o),
(149,100,c),
(88,25,l),
(136,8,o),
(192,-15,o),
(244,-15,cs),
(378,-15,o),
(490,116,o),
(490,272,cs),
(490,429,o),
(402,520,o),
(316,520,cs),
(286,520,o),
(229,500,o),
(151,450,c),
(151,400,l),
(195,426,o),
(236,445,o),
(273,445,cs),
(346,445,o),
(407,372,o),
(407,264,cs)
);
}
);
};
layerId = m002;
shapes = (
{
closed = 1;
nodes = (
(378,-15,o),
(490,116,o),
(490,272,cs),
(490,429,o),
(402,520,o),
(316,520,cs),
(286,520,o),
(229,500,o),
(151,450,c),
(151,400,l),
(195,426,o),
(236,445,o),
(273,445,cs),
(346,445,o),
(407,372,o),
(407,264,cs),
(407,140,o),
(352,55,o),
(281,55,cs),
(243,55,o),
(198,69,o),
(149,100,c),
(88,25,l),
(136,8,o),
(192,-15,o),
(244,-15,cs)
);
},
{
closed = 1;
nodes = (
(175,-290,l),
(155,90,l),
(165,440,l),
(165,510,l),
(75,490,l),
(85,300,l),
(85,-310,l)
);
}
);
width = 547;
},
{
anchors = (
{
name = bottom;
pos = (230,0);
},
{
name = top;
pos = (300,500);
}
);
background = {
shapes = (
{
closed = 1;
nodes = (
(123,90,l),
(182,440,l),
(192,510,l),
(99,490,l),
(82,300,l),
(-4,-310,l),
(89,-290,l)
);
},
{
closed = 1;
nodes = (
(382,140,o),
(315,55,o),
(244,55,cs),
(206,55,o),
(163,69,o),
(118,100,c),
(46,25,l),
(92,8,o),
(145,-15,o),
(197,-15,cs),
(331,-15,o),
(461,116,o),
(483,272,cs),
(505,429,o),
(430,520,o),
(344,520,cs),
(314,520,o),
(254,500,o),
(169,450,c),
(162,400,l),
(210,426,o),
(253,445,o),
(290,445,cs),
(363,445,o),
(414,372,o),
(399,264,cs)
);
}
);
};
layerId = m003;
shapes = (
{
closed = 1;
nodes = (
(326,-14,o),
(462,100,o),
(486,282,cs),
(504,419,o),
(437,520,o),
(341,520,cs),
(291,520,o),
(251,505,o),
(153,431,c),
(146,380,l),
(207,426,o),
(260,449,o),
(297,449,cs),
(380,449,o),
(413,352,o),
(402,274,cs),
(379,110,o),
(291,48,o),
(216,48,cs),
(174,48,o),
(135,61,o),
(103,75,c),
(44,10,l),
(73,-6,o),
(121,-14,o),
(168,-14,cs)
);
},
{
closed = 1;
nodes = (
(89,-290,l),
(123,90,l),
(182,440,l),
(192,510,l),
(99,490,l),
(82,300,l),
(-4,-310,l)
);
}
);
width = 530;
},
{
anchors = (
{
name = bottom;
pos = (225,0);
},
{
name = top;
pos = (225,500);
}
);
background = {
shapes = (
{
closed = 1;
nodes = (
(332,-15,o),
(444,96,o),
(444,282,cs),
(444,409,o),
(367,520,o),
(261,520,cs),
(211,520,o),
(159,486,o),
(91,426,c),
(91,388,l),
(135,434,o),
(194,486,o),
(251,486,cs),
(354,486,o),
(405,380,o),
(405,281,cs),
(405,115,o),
(316,14,o),
(198,14,cs),
(166,14,o),
(135,24,o),
(99,40,c),
(86,8,l),
(98,2,o),
(146,-15,o),
(198,-15,cs)
);
},
{
closed = 1;
nodes = (
(112,-302,l),
(104,120,l),
(105,440,l),
(105,510,l),
(65,500,l),
(70,300,l),
(75,-310,l)
);
}
);
};
layerId = m006;
shapes = (
{
closed = 1;
nodes = (
(332,-15,o),
(454,96,o),
(454,272,cs),
(454,425,o),
(363,518,o),
(273,518,cs),
(208,518,o),
(147,490,o),
(91,426,c),
(91,391,l),
(140,461,o),
(207,489,o),
(254,489,cs),
(367,489,o),
(414,376,o),
(414,261,cs),
(414,95,o),
(316,14,o),
(198,14,cs),
(166,14,o),
(135,24,o),
(99,40,c),
(86,8,l),
(98,2,o),
(146,-15,o),
(198,-15,cs)
);
},
{
closed = 1;
nodes = (
(112,-302,l),
(104,120,l),
(105,440,l),
(105,510,l),
(65,500,l),
(70,300,l),
(75,-310,l)
);
}
);
width = 504;
},
{
anchors = (
{
name = bottom;
pos = (176,0);
},
{
name = top;
pos = (246,500);
}
);
background = {
shapes = (
{
closed = 1;
nodes = (
(332,-15,o),
(444,96,o),
(444,282,cs),
(444,409,o),
(367,520,o),
(261,520,cs),
(211,520,o),
(159,486,o),
(91,426,c),
(91,388,l),
(135,434,o),
(194,486,o),
(251,486,cs),
(354,486,o),
(405,380,o),
(405,281,cs),
(405,115,o),
(316,14,o),
(198,14,cs),
(166,14,o),
(135,24,o),
(99,40,c),
(86,8,l),
(98,2,o),
(146,-15,o),
(198,-15,cs)
);
},
{
closed = 1;
nodes = (
(112,-302,l),
(104,120,l),
(105,440,l),
(105,510,l),
(65,500,l),
(70,300,l),
(75,-310,l)
);
}
);
};
layerId = m007;
shapes = (
{
closed = 1;
nodes = (
(281,-15,o),
(418,96,o),
(443,272,cs),
(465,425,o),
(387,518,o),
(297,518,cs),
(232,518,o),
(167,490,o),
(102,426,c),
(97,391,l),
(156,461,o),
(227,489,o),
(274,489,cs),
(387,489,o),
(418,376,o),
(401,261,cs),
(378,95,o),
(269,14,o),
(151,14,cs),
(119,14,o),
(89,24,o),
(55,40,c),
(38,8,l),
(49,2,o),
(95,-15,o),
(147,-15,cs)
);
},
{
closed = 1;
nodes = (
(20,-302,l),
(72,120,l),
(118,440,l),
(127,510,l),
(86,500,l),
(63,300,l),
(-18,-310,l)
);
}
);
width = 504;
},
{
anchors = (
{
name = bottom;
pos = (285,0);
},
{
name = top;
pos = (285,500);
}
);
background = {
shapes = (
{
closed = 1;
nodes = (
(388,-15,o),
(500,116,o),
(500,272,cs),
(500,429,o),
(412,520,o),
(326,520,cs),
(296,520,o),
(239,500,o),
(161,450,c),
(161,400,l),
(205,426,o),
(246,445,o),
(283,445,cs),
(356,445,o),
(417,372,o),
(417,264,cs),
(417,140,o),
(362,55,o),
(291,55,cs),
(253,55,o),
(208,69,o),
(159,100,c),
(98,25,l),
(146,8,o),
(202,-15,o),
(254,-15,cs)
);
},
{
closed = 1;
nodes = (
(185,-290,l),
(165,90,l),
(175,440,l),
(175,510,l),
(85,490,l),
(95,300,l),
(95,-310,l)
);
}
);
};
layerId = m008;
shapes = (
{
closed = 1;
nodes = (
(408,-15,o),
(515,116,o),
(515,262,cs),
(515,439,o),
(422,520,o),
(336,520,cs),
(306,520,o),
(249,490,o),
(171,430,c),
(171,360,l),
(215,406,o),
(256,425,o),
(293,425,cs),
(366,425,o),
(412,372,o),
(412,254,cs),
(412,115,o),
(354,74,o),
(287,74,cs),
(244,74,o),
(199,91,o),
(169,110,c),
(108,25,l),
(156,8,o),
(222,-15,o),
(274,-15,cs)
);
},
{
closed = 1;
nodes = (
(195,-290,l),
(180,90,l),
(185,440,l),
(185,510,l),
(75,490,l),
(85,300,l),
(85,-310,l)
);
}
);
width = 572;
},
{
anchors = (
{
name = bottom;
pos = (285,0);
},
{
name = top;
pos = (285,500);
}
);
background = {
shapes = (
{
closed = 1;
nodes = (
(388,-15,o),
(500,116,o),
(500,272,cs),
(500,429,o),
(412,520,o),
(326,520,cs),
(296,520,o),
(239,500,o),
(161,450,c),
(161,400,l),
(205,426,o),
(246,445,o),
(283,445,cs),
(356,445,o),
(417,372,o),
(417,264,cs),
(417,140,o),
(362,55,o),
(291,55,cs),
(253,55,o),
(208,69,o),
(159,100,c),
(98,25,l),
(146,8,o),
(202,-15,o),
(254,-15,cs)
);
},
{
closed = 1;
nodes = (
(185,-290,l),
(165,90,l),
(175,440,l),
(175,510,l),
(85,490,l),
(95,300,l),
(95,-310,l)
);
}
);
};
layerId = m009;
shapes = (
{
closed = 1;
nodes = (
(364,-15,o),
(491,106,o),
(519,262,cs),
(542,389,o),
(463,510,o),
(367,510,cs),
(317,510,o),
(276,490,o),
(199,430,c),
(189,360,l),
(240,406,o),
(284,425,o),
(321,425,cs),
(384,425,o),
(430,362,o),
(415,254,cs),
(394,105,o),
(342,69,o),
(265,69,cs),
(222,69,o),
(180,81,o),
(152,100,c),
(54,30,l),
(100,7,o),
(188,-15,o),
(240,-15,cs)
);
},
{
closed = 1;
nodes = (
(119,-290,l),
(158,90,l),
(212,440,l),
(222,510,l),
(109,490,l),
(92,300,l),
(6,-310,l)
);
}
);
width = 572;
}
);
unicode = 112;
}
{
glyphname = r;
layers = (
{
anchors = (
{
name = bottom;
pos = (188,0);
},
{
name = top;
pos = (218,490);
}
);
background = {
anchors = (
{
name = bottom;
pos = (188,0);
},
{
name = top;
pos = (218,490);
}
);
shapes = (
{
closed = 1;
nodes = (
(163,329,l),
(229,399,o),
(253,420,o),
(355,417,c),
(344,515,l),
(256,511,o),
(215,447,o),
(155,384,c)
);
},
{
closed = 1;
nodes = (
(165,510,l),
(75,490,l),
(95,300,l),
(95,0,l),
(175,0,l),
(175,250,l)
);
}
);
};
layerId = m002;
shapes = (
{
closed = 1;
nodes = (
(175,0,l),
(175,250,l),
(165,510,l),
(75,490,l),
(95,300,l),
(95,0,l)
);
},
{
closed = 1;
nodes = (
(229,399,o),
(253,420,o),
(355,417,c),
(344,515,l),
(256,511,o),
(215,447,o),
(155,384,c),
(163,329,l)
);
}
);
width = 365;
},
{
anchors = (
{
name = bottom;
pos = (186,0);
},
{
name = top;
pos = (241,490);
}
);
background = {
anchors = (
{
name = bottom;
pos = (168,0);
},
{
name = top;
pos = (198,490);
}
);
shapes = (
{
closed = 1;
nodes = (
(143,329,l),
(209,399,o),
(233,420,o),
(335,417,c),
(324,515,l),
(236,511,o),
(195,447,o),
(135,384,c)
);
},
{
closed = 1;
nodes = (
(145,510,l),
(55,490,l),
(75,300,l),
(75,0,l),
(155,0,l),
(155,250,l)
);
}
);
};
layerId = m003;
shapes = (
{
closed = 1;
nodes = (
(115,0,l),
(150,250,l),
(188,510,l),
(95,490,l),
(82,300,l),
(40,0,l)
);
},
{
closed = 1;
nodes = (
(225,399,o),
(252,420,o),
(343,417,c),
(356,515,l),
(268,511,o),
(218,447,o),
(149,384,c),
(149,329,l)
);
}
);
width = 335;
},
{
anchors = (
{
name = bottom;
pos = (121,0);
},
{
name = top;
pos = (151,490);
}
);
background = {
anchors = (
{
name = bottom;
pos = (121,0);
},
{
name = top;
pos = (151,490);
}
);
shapes = (
{
closed = 1;
nodes = (
(96,329,l),
(162,399,o),
(186,420,o),
(288,417,c),
(277,515,l),
(189,511,o),
(148,447,o),
(88,384,c)
);
},
{
closed = 1;
nodes = (
(98,510,l),
(8,490,l),
(28,300,l),
(28,0,l),
(108,0,l),
(108,250,l)
);
}
);
};
layerId = m006;
shapes = (
{
closed = 1;
nodes = (
(108,0,l),
(108,250,l),
(93,510,l),
(55,504,l),
(75,300,l),
(75,0,l)
);
},
{
closed = 1;
nodes = (
(162,414,o),
(181,465,o),
(283,472,c),
(277,510,l),
(199,506,o),
(148,442,o),
(88,379,c),
(96,354,l)
);
}
);
width = 308;
},
{
anchors = (
{
name = bottom;
pos = (72,0);
},
{
name = top;
pos = (171,490);
}
);
background = {
anchors = (
{
name = bottom;
pos = (121,0);
},
{
name = top;
pos = (151,490);
}
);
shapes = (
{
closed = 1;
nodes = (
(96,329,l),
(162,399,o),
(186,420,o),
(288,417,c),
(277,515,l),
(189,511,o),
(148,447,o),
(88,384,c)
);
},
{
closed = 1;
nodes = (
(98,510,l),
(8,490,l),
(28,300,l),
(28,0,l),
(108,0,l),
(108,250,l)
);
}
);
};
layerId = m007;
shapes = (
{
closed = 1;
nodes = (
(59,0,l),
(94,250,l),
(115,510,l),
(77,504,l),
(68,300,l),
(26,0,l)
);
},
{
closed = 1;
nodes = (
(171,414,o),
(197,465,o),
(300,472,c),
(299,510,l),
(221,506,o),
(161,442,o),
(92,379,c),
(97,354,l)
);
}
);
width = 308;
},
{
anchors = (
{
name = bottom;
pos = (188,0);
},
{
name = top;
pos = (218,490);
}
);
background = {
shapes = (
{
closed = 1;
nodes = (
(175,0,l),
(175,250,l),
(165,510,l),
(75,490,l),
(95,300,l),
(95,0,l)
);
},
{
closed = 1;
nodes = (
(229,399,o),
(253,420,o),
(355,417,c),
(344,515,l),
(256,511,o),
(215,447,o),
(155,384,c),
(163,329,l)
);
}
);
};
layerId = m008;
shapes = (
{
closed = 1;
nodes = (
(190,0,l),
(190,250,l),
(175,510,l),
(69,490,l),
(89,300,l),
(89,0,l)
);
},
{
closed = 1;
nodes = (
(229,369,o),
(253,390,o),
(355,387,c),
(344,515,l),
(256,511,o),
(215,427,o),
(155,364,c),
(163,299,l)
);
}
);
width = 365;
},
{
anchors = (
{
name = bottom;
pos = (153,0);
},
{
name = top;
pos = (252,490);
}
);
background = {
shapes = (
{
closed = 1;
nodes = (
(175,0,l),
(175,250,l),
(165,510,l),
(75,490,l),
(95,300,l),
(95,0,l)
);
},
{
closed = 1;
nodes = (
(229,399,o),
(253,420,o),
(355,417,c),
(344,515,l),
(256,511,o),
(215,447,o),
(155,384,c),
(163,329,l)
);
}
);
};
layerId = m009;
shapes = (
{
closed = 1;
nodes = (
(155,0,l),
(190,250,l),
(212,510,l),
(103,490,l),
(96,300,l),
(54,0,l)
);
},
{
closed = 1;
nodes = (
(246,369,o),
(273,390,o),
(374,387,c),
(381,515,l),
(293,511,o),
(240,427,o),
(171,364,c),
(170,299,l)
);
}
);
width = 365;
}
);
unicode = 114;
}
{
glyphname = s;
layers = (
{
anchors = (
{
name = bottom;
pos = (229,0);
},
{
name = top;
pos = (229,500);
}
);
background = {
hints = (
{
name = _corner.mitre;
options = 2;
place = (121,0);
type = Corner;
},
{
name = _corner.mitre;
options = 2;
place = (358,0);
type = Corner;
},
{
name = _corner.mitre;
options = 2;
place = (119,0);
type = Corner;
},
{
name = _corner.mitre;
options = 2;
place = (360,0);
type = Corner;
},
{
name = _corner.mitre;
options = 2;
place = (315,0);
type = Corner;
},
{
name = _corner.mitre;
options = 2;
place = (94,0);
type = Corner;
}
);
shapes = (
{
closed = 1;
nodes = (
(198,-65,o),
(403,9,o),
(403,160,cs),
(403,242,o),
(323,268,o),
(253,290,cs),
(197,308,o),
(147,324,o),
(147,365,cs),
(147,454,o),
(240,480,o),
(325,390,c),
(382,467,l),
(260,567,o),
(72,490,o),
(72,336,cs),
(72,265,o),
(143,242,o),
(209,220,cs),
(267,201,o),
(322,183,o),
(322,135,cs),
(322,24,o),
(187,37,o),
(104,114,c),
(60,32,l)
);
}
);
};
layerId = m002;
shapes = (
{
closed = 1;
nodes = (
(186,-56,o),
(403,-2,o),
(403,160,cs),
(403,242,o),
(323,268,o),
(253,290,cs),
(197,308,o),
(147,324,o),
(147,365,cs),
(147,466,o),
(250,469,o),
(325,390,c),
(382,467,l),
(260,564,o),
(72,491,o),
(72,336,cs),
(72,265,o),
(143,242,o),
(209,220,cs),
(267,201,o),
(322,183,o),
(322,135,cs),
(322,23,o),
(186,38,o),
(104,114,c),
(60,32,l)
);
}
);
width = 448;
},
{
anchors = (
{
name = bottom;
pos = (170,0);
},
{
name = top;
pos = (240,500);
}
);
background = {
hints = (
{
name = _corner.mitre;
options = 2;
place = (121,0);
type = Corner;
},
{
name = _corner.mitre;
options = 2;
place = (358,0);
type = Corner;
},
{
name = _corner.mitre;
options = 2;
place = (119,0);
type = Corner;
},
{
name = _corner.mitre;
options = 2;
place = (360,0);
type = Corner;
},
{
name = _corner.mitre;
options = 2;
place = (315,0);
type = Corner;
},
{
name = _corner.mitre;
options = 2;
place = (94,0);
type = Corner;
}
);
shapes = (
{
closed = 1;
nodes = (
(141,-65,o),
(356,9,o),
(377,160,cs),
(389,242,o),
(313,268,o),
(245,290,cs),
(192,308,o),
(144,324,o),
(150,365,cs),
(163,454,o),
(259,480,o),
(332,390,c),
(399,467,l),
(292,567,o),
(93,490,o),
(71,336,cs),
(61,265,o),
(129,242,o),
(192,220,cs),
(247,201,o),
(300,183,o),
(293,135,cs),
(277,24,o),
(144,37,o),
(72,114,c),
(16,32,l)
);
}
);
};
layerId = m003;
shapes = (
{
closed = 1;
nodes = (
(152,-67,o),
(344,1,o),
(357,133,cs),
(367,234,o),
(295,269,o),
(232,299,cs),
(183,323,o),
(137,344,o),
(145,394,cs),
(153,444,o),
(231,471,o),
(329,398,c),
(373,476,l),
(261,549,o),
(87,498,o),
(72,364,cs),
(62,289,o),
(124,259,o),
(183,229,cs),
(237,202,o),
(290,176,o),
(283,116,cs),
(275,35,o),
(152,16,o),
(72,112,c),
(19,28,l)
);
}
);
width = 409;
},
{
anchors = (
{
name = bottom;
pos = (219,0);
},
{
name = top;
pos = (219,500);
}
);
background = {
hints = (
{
name = _corner.mitre;
options = 2;
place = (121,0);
type = Corner;
},
{
name = _corner.mitre;
options = 2;
place = (358,0);
type = Corner;
},
{
name = _corner.mitre;
options = 2;
place = (119,0);
type = Corner;
},
{
name = _corner.mitre;
options = 2;
place = (360,0);
type = Corner;
},
{
name = _corner.mitre;
options = 2;
place = (315,0);
type = Corner;
},
{
name = _corner.mitre;
options = 2;
place = (94,0);
type = Corner;
}
);
shapes = (
{
closed = 1;
nodes = (
(188,-65,o),
(393,9,o),
(393,160,cs),
(393,242,o),
(313,268,o),
(243,290,cs),
(187,308,o),
(137,324,o),
(137,365,cs),
(137,454,o),
(230,480,o),
(315,390,c),
(372,467,l),
(250,567,o),
(62,490,o),
(62,336,cs),
(62,265,o),
(133,242,o),
(199,220,cs),
(257,201,o),
(312,183,o),
(312,135,cs),
(312,24,o),
(177,37,o),
(94,114,c),
(50,32,l)
);
}
);
};
layerId = m006;
shapes = (
{
closed = 1;
nodes = (
(178,-70,o),
(369,9,o),
(369,130,cs),
(369,223,o),
(294,255,o),
(224,278,cs),
(162,298,o),
(94,310,o),
(94,375,cs),
(94,464,o),
(209,510,o),
(334,450,c),
(342,486,l),
(230,546,o),
(62,500,o),
(62,361,cs),
(62,283,o),
(141,266,o),
(209,244,cs),
(273,222,o),
(337,193,o),
(337,125,cs),
(337,24,o),
(182,-23,o),
(69,64,c),
(50,32,l)
);
}
);
width = 414;
},
{
anchors = (
{
name = bottom;
pos = (170,0);
},
{
name = top;
pos = (240,500);
}
);
background = {
hints = (
{
name = _corner.mitre;
options = 2;
place = (121,0);
type = Corner;
},
{
name = _corner.mitre;
options = 2;
place = (358,0);
type = Corner;
},
{
name = _corner.mitre;
options = 2;
place = (119,0);
type = Corner;
},
{
name = _corner.mitre;
options = 2;
place = (360,0);
type = Corner;
},
{
name = _corner.mitre;
options = 2;
place = (315,0);
type = Corner;
},
{
name = _corner.mitre;
options = 2;
place = (94,0);
type = Corner;
}
);
shapes = (
{
closed = 1;
nodes = (
(188,-65,o),
(393,9,o),
(393,160,cs),
(393,242,o),
(313,268,o),
(243,290,cs),
(187,308,o),
(137,324,o),
(137,365,cs),
(137,454,o),
(230,480,o),
(315,390,c),
(372,467,l),
(250,567,o),
(62,490,o),
(62,336,cs),
(62,265,o),
(133,242,o),
(199,220,cs),
(257,201,o),
(312,183,o),
(312,135,cs),
(312,24,o),
(177,37,o),
(94,114,c),
(50,32,l)
);
}
);
};
layerId = m007;
shapes = (
{
closed = 1;
nodes = (
(119,-70,o),
(322,19,o),
(339,140,cs),
(353,233,o),
(281,255,o),
(214,278,cs),
(155,298,o),
(88,310,o),
(98,375,cs),
(110,464,o),
(226,509,o),
(334,459,c),
(352,490,l),
(257,540,o),
(83,500,o),
(64,361,cs),
(53,283,o),
(129,266,o),
(194,244,cs),
(255,222,o),
(316,203,o),
(307,135,cs),
(293,34,o),
(130,-23,o),
(29,64,c),
(5,32,l)
);
}
);
width = 414;
},
{
anchors = (
{
name = bottom;
pos = (229,0);
},
{
name = top;
pos = (229,500);
}
);
background = {
hints = (
{
name = _corner.mitre;
options = 2;
place = (121,0);
type = Corner;
},
{
name = _corner.mitre;
options = 2;
place = (358,0);
type = Corner;
},
{
name = _corner.mitre;
options = 2;
place = (119,0);
type = Corner;
},
{
name = _corner.mitre;
options = 2;
place = (360,0);
type = Corner;
},
{
name = _corner.mitre;
options = 2;
place = (315,0);
type = Corner;
},
{
name = _corner.mitre;
options = 2;
place = (94,0);
type = Corner;
}
);
shapes = (
{
closed = 1;
nodes = (
(198,-65,o),
(403,9,o),
(403,160,cs),
(403,242,o),
(323,268,o),
(253,290,cs),
(197,308,o),
(147,324,o),
(147,365,cs),
(147,454,o),
(240,480,o),
(325,390,c),
(382,467,l),
(260,567,o),
(72,490,o),
(72,336,cs),
(72,265,o),
(143,242,o),
(209,220,cs),
(267,201,o),
(322,183,o),
(322,135,cs),
(322,24,o),
(187,37,o),
(104,114,c),
(60,32,l)
);
}
);
};
layerId = m008;
shapes = (
{
closed = 1;
nodes = (
(188,-75,o),
(403,29,o),
(403,150,cs),
(403,252,o),
(313,288,o),
(243,310,cs),
(187,328,o),
(162,344,o),
(162,375,cs),
(162,424,o),
(230,455,o),
(335,385,c),
(382,467,l),
(280,567,o),
(62,490,o),
(62,346,cs),
(62,265,o),
(133,237,o),
(199,215,cs),
(255,197,o),
(302,184,o),
(302,137,cs),
(302,61,o),
(189,60,o),
(99,124,c),
(50,32,l)
);
}
);
width = 448;
},
{
anchors = (
{
name = bottom;
pos = (174,0);
},
{
name = top;
pos = (284,500);
}
);
background = {
hints = (
{
name = _corner.mitre;
options = 2;
place = (121,0);
type = Corner;
},
{
name = _corner.mitre;
options = 2;
place = (358,0);
type = Corner;
},
{
name = _corner.mitre;
options = 2;
place = (119,0);
type = Corner;
},
{
name = _corner.mitre;
options = 2;
place = (360,0);
type = Corner;
},
{
name = _corner.mitre;
options = 2;
place = (315,0);
type = Corner;
},
{
name = _corner.mitre;
options = 2;
place = (94,0);
type = Corner;
}
);
shapes = (
{
closed = 1;
nodes = (
(217,-67,o),
(397,1,o),
(393,143,cs),
(390,236,o),
(305,277,o),
(239,309,cs),
(196,329,o),
(162,336,o),
(165,374,cs),
(167,414,o),
(213,451,o),
(350,388,c),
(371,476,l),
(239,549,o),
(70,498,o),
(76,364,cs),
(80,261,o),
(154,243,o),
(218,211,cs),
(265,188,o),
(305,168,o),
(303,121,cs),
(301,55,o),
(189,56,o),
(110,122,c),
(70,28,l)
);
}
);
};
layerId = m009;
shapes = (
{
closed = 1;
nodes = (
(142,-75,o),
(354,9,o),
(376,130,cs),
(398,252,o),
(318,288,o),
(251,310,cs),
(198,328,o),
(170,344,o),
(175,375,cs),
(181,424,o),
(254,455,o),
(349,385,c),
(407,467,l),
(320,567,o),
(101,490,o),
(82,356,cs),
(69,265,o),
(131,242,o),
(194,220,cs),
(248,202,o),
(293,174,o),
(286,127,cs),
(275,51,o),
(162,60,o),
(81,124,c),
(19,32,l)
);
}
);
width = 438;
}
);
unicode = 115;
}
{
glyphname = w;
layers = (
{
anchors = (
{
name = bottom;
pos = (386,0);
},
{
name = top;
pos = (396,500);
}
);
background = {
anchors = (
{
name = bottom;
pos = (386,0);
},
{
name = top;
pos = (396,500);
}
);
shapes = (
{
closed = 1;
nodes = (
(392,382,l),
(431,201,l),
(510,-5,l),
(600,5,l),
(742,495,l),
(658,505,l),
(570,85,l),
(470,350,l),
(434,505,l),
(358,505,l),
(240,85,l),
(160,350,l),
(124,505,l),
(25,495,l),
(121,201,l),
(180,-5,l),
(270,5,l)
);
}
);
};
layerId = m002;
shapes = (
{
closed = 1;
nodes = (
(392,382,l),
(431,201,l),
(510,-5,l),
(600,5,l),
(742,495,l),
(658,505,l),
(570,85,l),
(470,350,l),
(434,505,l),
(358,505,l),
(240,85,l),
(160,350,l),
(124,505,l),
(25,495,l),
(121,201,l),
(180,-5,l),
(270,5,l)
);
}
);
width = 762;
},
{
anchors = (
{
name = bottom;
pos = (346,0);
},
{
name = top;
pos = (426,500);
}
);
background = {
anchors = (
{
name = bottom;
pos = (381,0);
},
{
name = top;
pos = (391,500);
}
);
shapes = (
{
closed = 1;
nodes = (
(387,382,l),
(426,201,l),
(505,-5,l),
(595,5,l),
(737,495,l),
(653,505,l),
(565,85,l),
(465,350,l),
(429,505,l),
(353,505,l),
(235,85,l),
(155,350,l),
(119,505,l),
(20,495,l),
(116,201,l),
(175,-5,l),
(265,5,l)
);
}
);
};
layerId = m003;
shapes = (
{
closed = 1;
nodes = (
(406,382,l),
(419,201,l),
(469,-5,l),
(551,5,l),
(771,495,l),
(689,505,l),
(542,85,l),
(479,350,l),
(465,505,l),
(389,505,l),
(212,85,l),
(169,350,l),
(155,505,l),
(54,495,l),
(109,201,l),
(139,-5,l),
(221,5,l)
);
}
);
width = 762;
},
{
anchors = (
{
name = bottom;
pos = (381,0);
},
{
name = top;
pos = (391,500);
}
);
background = {
shapes = (
{
closed = 1;
nodes = (
(387,382,l),
(426,201,l),
(505,-5,l),
(595,5,l),
(737,495,l),
(653,505,l),
(565,85,l),
(465,350,l),
(429,505,l),
(353,505,l),
(235,85,l),
(155,350,l),
(119,505,l),
(20,495,l),
(116,201,l),
(175,-5,l),
(265,5,l)
);
}
);
};
layerId = m006;
shapes = (
{
closed = 1;
nodes = (
(397,460,l),
(454,281,l),
(565,-5,l),
(595,0,l),
(757,504,l),
(723,509,l),
(584,36,l),
(477,313,l),
(418,509,l),
(381,509,l),
(224,36,l),
(119,313,l),
(60,509,l),
(20,504,l),
(96,281,l),
(205,-5,l),
(239,0,l)
);
}
);
width = 772;
},
{
anchors = (
{
name = bottom;
pos = (332,0);
},
{
name = top;
pos = (412,500);
}
);
background = {
shapes = (
{
closed = 1;
nodes = (
(387,382,l),
(426,201,l),
(505,-5,l),
(595,5,l),
(737,495,l),
(653,505,l),
(565,85,l),
(465,350,l),
(429,505,l),
(353,505,l),
(235,85,l),
(155,350,l),
(119,505,l),
(20,495,l),
(116,201,l),
(175,-5,l),
(265,5,l)
);
}
);
};
layerId = m007;
shapes = (
{
closed = 1;
nodes = (
(412,460,l),
(444,281,l),
(515,-5,l),
(546,0,l),
(779,504,l),
(745,509,l),
(540,36,l),
(472,313,l),
(440,509,l),
(403,509,l),
(180,36,l),
(114,313,l),
(82,509,l),
(42,504,l),
(86,281,l),
(155,-5,l),
(190,0,l)
);
}
);
width = 772;
},
{
anchors = (
{
name = bottom;
pos = (386,0);
},
{
name = top;
pos = (396,500);
}
);
background = {
shapes = (
{
closed = 1;
nodes = (
(392,382,l),
(431,201,l),
(510,-5,l),
(600,5,l),
(742,495,l),
(658,505,l),
(570,85,l),
(470,350,l),
(434,505,l),
(358,505,l),
(240,85,l),
(160,350,l),
(124,505,l),
(25,495,l),
(121,201,l),
(180,-5,l),
(270,5,l)
);
}
);
};
layerId = m008;
shapes = (
{
closed = 1;
nodes = (
(395,360,l),
(436,201,l),
(505,-5,l),
(615,5,l),
(767,495,l),
(663,505,l),
(574,116,l),
(495,350,l),
(459,505,l),
(343,505,l),
(244,116,l),
(175,350,l),
(139,505,l),
(20,495,l),
(116,201,l),
(175,-5,l),
(285,5,l)
);
}
);
width = 762;
},
{
anchors = (
{
name = bottom;
pos = (351,0);
},
{
name = top;
pos = (431,500);
}
);
background = {
shapes = (
{
closed = 1;
nodes = (
(392,382,l),
(431,201,l),
(510,-5,l),
(600,5,l),
(742,495,l),
(658,505,l),
(570,85,l),
(470,350,l),
(434,505,l),
(358,505,l),
(240,85,l),
(160,350,l),
(124,505,l),
(25,495,l),
(121,201,l),
(180,-5,l),
(270,5,l)
);
}
);
};
layerId = m009;
shapes = (
{
closed = 1;
nodes = (
(410,360,l),
(429,201,l),
(469,-5,l),
(581,5,l),
(801,495,l),
(699,505,l),
(555,116,l),
(509,350,l),
(495,505,l),
(379,505,l),
(225,116,l),
(189,350,l),
(175,505,l),
(54,495,l),
(109,201,l),
(139,-5,l),
(251,5,l)
);
}
);
width = 762;
}
);
unicode = 119;
}
{
glyphname = z;
layers = (
{
anchors = (
{
name = bottom;
pos = (255,0);
},
{
name = center;
pos = (255,250);
},
{
name = top;
pos = (265,490);
}
);
background = {
anchors = (
{
name = bottom;
pos = (255,0);
},
{
name = center;
pos = (255,250);
},
{
name = top;
pos = (265,490);
}
);
shapes = (
{
closed = 1;
nodes = (
(444,500,l),
(81,500,l),
(81,425,l),
(354,440,l),
(223,267,l),
(50,50,l),
(66,0,l),
(451,0,l),
(451,75,l),
(154,60,l),
(284,234,l),
(460,454,l)
);
}
);
};
layerId = m002;
shapes = (
{
closed = 1;
nodes = (
(444,500,l),
(81,500,l),
(81,425,l),
(354,440,l),
(223,267,l),
(50,50,l),
(66,0,l),
(451,0,l),
(451,75,l),
(154,60,l),
(284,234,l),
(460,454,l)
);
}
);
width = 500;
},
{
anchors = (
{
name = bottom;
pos = (200,0);
},
{
name = center;
pos = (235,250);
},
{
name = top;
pos = (279,490);
}
);
background = {
anchors = (
{
name = bottom;
pos = (235,0);
},
{
name = center;
pos = (235,250);
},
{
name = top;
pos = (245,490);
}
);
shapes = (
{
closed = 1;
nodes = (
(424,500,l),
(61,500,l),
(61,425,l),
(334,440,l),
(203,267,l),
(30,50,l),
(46,0,l),
(431,0,l),
(431,75,l),
(134,60,l),
(264,234,l),
(440,454,l)
);
}
);
};
layerId = m003;
shapes = (
{
closed = 1;
nodes = (
(459,500,l),
(96,500,l),
(86,425,l),
(361,440,l),
(205,267,l),
(2,50,l),
(11,0,l),
(396,0,l),
(406,75,l),
(107,60,l),
(262,234,l),
(469,454,l)
);
}
);
width = 470;
},
{
anchors = (
{
name = bottom;
pos = (235,0);
},
{
name = center;
pos = (235,250);
},
{
name = top;
pos = (245,490);
}
);
background = {
anchors = (
{
name = bottom;
pos = (235,0);
},
{
name = center;
pos = (235,250);
},
{
name = top;
pos = (245,490);
}
);
shapes = (
{
closed = 1;
nodes = (
(424,500,l),
(61,500,l),
(61,425,l),
(334,440,l),
(203,267,l),
(30,50,l),
(46,0,l),
(431,0,l),
(431,75,l),
(134,60,l),
(264,234,l),
(440,454,l)
);
}
);
};
layerId = m006;
shapes = (
{
closed = 1;
nodes = (
(424,500,l),
(61,500,l),
(61,465,l),
(379,470,l),
(219,262,l),
(34,25,l),
(46,0,l),
(431,0,l),
(431,35,l),
(79,32,l),
(243,241,l),
(430,476,l)
);
}
);
width = 470;
},
{
anchors = (
{
name = bottom;
pos = (235,0);
},
{
name = center;
pos = (235,250);
},
{
name = top;
pos = (245,490);
}
);
background = {
anchors = (
{
name = bottom;
pos = (235,0);
},
{
name = center;
pos = (235,250);
},
{
name = top;
pos = (245,490);
}
);
shapes = (
{
closed = 1;
nodes = (
(424,500,l),
(61,500,l),
(61,425,l),
(334,440,l),
(203,267,l),
(30,50,l),
(46,0,l),
(431,0,l),
(431,75,l),
(134,60,l),
(264,234,l),
(440,454,l)
);
}
);
};
layerId = m007;
shapes = (
{
closed = 1;
nodes = (
(424,500,l),
(61,500,l),
(61,465,l),
(379,470,l),
(219,262,l),
(34,25,l),
(46,0,l),
(431,0,l),
(431,35,l),
(79,32,l),
(243,241,l),
(430,476,l)
);
}
);
width = 470;
},
{
anchors = (
{
name = bottom;
pos = (255,0);
},
{
name = center;
pos = (255,250);
},
{
name = top;
pos = (265,490);
}
);
background = {
anchors = (
{
name = bottom;
pos = (255,0);
},
{
name = center;
pos = (255,250);
},
{
name = top;
pos = (265,490);
}
);
shapes = (
{
closed = 1;
nodes = (
(444,500,l),
(81,500,l),
(81,425,l),
(354,440,l),
(223,267,l),
(50,50,l),
(66,0,l),
(451,0,l),
(451,75,l),
(154,60,l),
(284,234,l),
(460,454,l)
);
}
);
};
layerId = m008;
shapes = (
{
closed = 1;
nodes = (
(444,500,l),
(81,500,l),
(81,405,l),
(314,420,l),
(213,267,l),
(50,50,l),
(66,0,l),
(451,0,l),
(451,95,l),
(194,80,l),
(294,234,l),
(460,454,l)
);
}
);
width = 500;
},
{
anchors = (
{
name = bottom;
pos = (220,0);
},
{
name = center;
pos = (255,250);
},
{
name = top;
pos = (299,490);
}
);
background = {
anchors = (
{
name = bottom;
pos = (255,0);
},
{
name = center;
pos = (255,250);
},
{
name = top;
pos = (265,490);
}
);
shapes = (
{
closed = 1;
nodes = (
(444,500,l),
(81,500,l),
(81,425,l),
(354,440,l),
(223,267,l),
(50,50,l),
(66,0,l),
(451,0,l),
(451,75,l),
(154,60,l),
(284,234,l),
(460,454,l)
);
}
);
};
layerId = m009;
shapes = (
{
closed = 1;
nodes = (
(479,500,l),
(116,500,l),
(103,405,l),
(338,420,l),
(215,267,l),
(22,50,l),
(31,0,l),
(416,0,l),
(429,95,l),
(170,80,l),
(292,234,l),
(489,454,l)
);
}
);
width = 500;
}
);
unicode = 122;
}
{
glyphname = braceleft;
layers = (
{
background = {
shapes = (
{
closed = 1;
nodes = (
(-20,540,o),
(-20,120,o),
(260,-165,c),
(300,-130,l),
(80,133,o),
(80,527,o),
(300,790,c),
(260,825,l)
);
}
);
};
layerId = m002;
shapes = (
{
closed = 1;
nodes = (
(120,430,ls),
(120,372,o),
(80,353,o),
(40,348,c),
(40,312,l),
(80,307,o),
(120,288,o),
(120,230,cs),
(120,-5,ls),
(120,-108,o),
(207,-165,o),
(310,-163,c),
(315,-123,l),
(215,-109,o),
(200,-66,o),
(200,5,cs),
(200,230,ls),
(200,275,o),
(172,320,o),
(122,325,c),
(122,335,l),
(172,340,o),
(200,385,o),
(200,430,cs),
(200,655,ls),
(200,726,o),
(215,769,o),
(315,783,c),
(310,823,l),
(207,825,o),
(120,768,o),
(120,665,cs)
);
}
);
width = 345;
},
{
background = {
shapes = (
{
closed = 1;
nodes = (
(-20,540,o),
(-20,120,o),
(260,-165,c),
(300,-130,l),
(80,133,o),
(80,527,o),
(300,790,c),
(260,825,l)
);
}
);
};
layerId = m003;
shapes = (
{
closed = 1;
nodes = (
(131,430,ls),
(123,372,o),
(80,353,o),
(40,348,c),
(35,312,l),
(74,307,o),
(111,288,o),
(103,230,cs),
(70,-5,ls),
(56,-108,o),
(135,-165,o),
(238,-163,c),
(249,-123,l),
(150,-109,o),
(142,-66,o),
(152,5,cs),
(183,230,ls),
(189,275,o),
(168,320,o),
(118,325,c),
(120,335,l),
(171,340,o),
(205,385,o),
(211,430,cs),
(243,655,ls),
(253,726,o),
(274,769,o),
(376,783,c),
(376,823,l),
(274,825,o),
(179,768,o),
(164,665,cs)
);
}
);
width = 345;
},
{
background = {
shapes = (
{
closed = 1;
nodes = (
(120,430,ls),
(120,372,o),
(80,353,o),
(40,348,c),
(40,312,l),
(80,307,o),
(120,288,o),
(120,230,cs),
(120,-5,ls),
(120,-108,o),
(207,-165,o),
(310,-163,c),
(315,-123,l),
(215,-109,o),
(200,-66,o),
(200,5,cs),
(200,230,ls),
(200,275,o),
(172,320,o),
(122,325,c),
(122,335,l),
(172,340,o),
(200,385,o),
(200,430,cs),
(200,655,ls),
(200,726,o),
(215,769,o),
(315,783,c),
(310,823,l),
(207,825,o),
(120,768,o),
(120,665,cs)
);
}
);
};
layerId = m006;
shapes = (
{
closed = 1;
nodes = (
(120,430,ls),
(120,372,o),
(80,353,o),
(40,348,c),
(40,312,l),
(80,307,o),
(120,288,o),
(120,230,cs),
(120,15,ls),
(120,-108,o),
(207,-165,o),
(310,-163,c),
(311,-133,l),
(215,-119,o),
(160,-66,o),
(160,5,cs),
(160,230,ls),
(160,275,o),
(132,320,o),
(82,325,c),
(82,335,l),
(132,340,o),
(160,385,o),
(160,430,cs),
(160,655,ls),
(160,726,o),
(205,789,o),
(311,793,c),
(310,823,l),
(207,825,o),
(120,768,o),
(120,645,cs)
);
}
);
width = 345;
},
{
background = {
shapes = (
{
closed = 1;
nodes = (
(120,430,ls),
(120,372,o),
(80,353,o),
(40,348,c),
(40,312,l),
(80,307,o),
(120,288,o),
(120,230,cs),
(120,-5,ls),
(120,-108,o),
(207,-165,o),
(310,-163,c),
(315,-123,l),
(215,-109,o),
(200,-66,o),
(200,5,cs),
(200,230,ls),
(200,275,o),
(172,320,o),
(122,325,c),
(122,335,l),
(172,340,o),
(200,385,o),
(200,430,cs),
(200,655,ls),
(200,726,o),
(215,769,o),
(315,783,c),
(310,823,l),
(207,825,o),
(120,768,o),
(120,665,cs)
);
}
);
};
layerId = m007;
shapes = (
{
closed = 1;
nodes = (
(131,430,ls),
(123,372,o),
(80,353,o),
(40,348,c),
(35,312,l),
(74,307,o),
(111,288,o),
(103,230,cs),
(73,15,ls),
(56,-108,o),
(135,-165,o),
(238,-163,c),
(243,-133,l),
(149,-119,o),
(102,-66,o),
(112,5,cs),
(143,230,ls),
(149,275,o),
(128,320,o),
(78,325,c),
(80,335,l),
(131,340,o),
(165,385,o),
(171,430,cs),
(203,655,ls),
(213,726,o),
(267,789,o),
(373,793,c),
(376,823,l),
(274,825,o),
(179,768,o),
(161,645,cs)
);
}
);
width = 345;
},
{
background = {
shapes = (
{
closed = 1;
nodes = (
(-20,540,o),
(-20,120,o),
(260,-165,c),
(300,-130,l),
(80,133,o),
(80,527,o),
(300,790,c),
(260,825,l)
);
}
);
};
layerId = m008;
shapes = (
{
closed = 1;
nodes = (
(110,430,ls),
(110,372,o),
(80,363,o),
(40,358,c),
(40,302,l),
(80,297,o),
(110,288,o),
(110,230,cs),
(110,33,ls),
(110,-130,o),
(247,-187,o),
(350,-185,c),
(355,-115,l),
(255,-101,o),
(230,-58,o),
(230,13,cs),
(230,200,ls),
(230,245,o),
(242,290,o),
(172,325,c),
(172,335,l),
(242,370,o),
(230,415,o),
(230,460,cs),
(230,647,ls),
(230,718,o),
(255,761,o),
(355,775,c),
(350,845,l),
(247,847,o),
(110,790,o),
(110,627,cs)
);
}
);
width = 345;
},
{
background = {
shapes = (
{
closed = 1;
nodes = (
(-20,540,o),
(-20,120,o),
(260,-165,c),
(300,-130,l),
(80,133,o),
(80,527,o),
(300,790,c),
(260,825,l)
);
}
);
};
layerId = m009;
shapes = (
{
closed = 1;
nodes = (
(135,430,ls),
(127,372,o),
(96,363,o),
(55,358,c),
(47,302,l),
(87,297,o),
(115,288,o),
(107,230,cs),
(80,33,ls),
(58,-130,o),
(186,-187,o),
(289,-185,c),
(304,-115,l),
(206,-101,o),
(187,-58,o),
(197,13,cs),
(223,200,ls),
(229,245,o),
(248,290,o),
(183,325,c),
(184,335,l),
(259,370,o),
(253,415,o),
(260,460,cs),
(286,647,ls),
(296,718,o),
(327,761,o),
(429,775,c),
(434,845,l),
(331,847,o),
(186,790,o),
(163,627,cs)
);
}
);
width = 345;
}
);
unicode = 123;
}
{
glyphname = asciitilde;
layers = (
{
background = {
shapes = (
{
closed = 1;
nodes = (
(310,195,o),
(192,420,o),
(74,220,c),
(120,191,l),
(200,305,o),
(319,80,o),
(436,280,c),
(390,309,l)
);
}
);
};
layerId = m002;
shapes = (
{
closed = 1;
nodes = (
(360,178,o),
(181,440,o),
(50,216,c),
(101,185,l),
(190,322,o),
(369,60,o),
(500,284,c),
(449,315,l)
);
}
);
width = 550;
},
{
background = {
shapes = (
{
closed = 1;
nodes = (
(310,195,o),
(192,420,o),
(74,220,c),
(120,191,l),
(200,305,o),
(319,80,o),
(436,280,c),
(390,309,l)
);
}
);
};
layerId = m003;
shapes = (
{
closed = 1;
nodes = (
(360,178,o),
(181,440,o),
(50,216,c),
(101,185,l),
(190,322,o),
(369,60,o),
(500,284,c),
(449,315,l)
);
}
);
width = 550;
},
{
background = {
shapes = (
{
closed = 1;
nodes = (
(310,195,o),
(192,420,o),
(74,220,c),
(120,191,l),
(200,305,o),
(319,80,o),
(436,280,c),
(390,309,l)
);
}
);
};
layerId = m006;
shapes = (
{
closed = 1;
nodes = (
(367,123,o),
(181,440,o),
(50,216,c),
(71,205,l),
(183,377,o),
(369,60,o),
(500,284,c),
(479,295,l)
);
}
);
width = 550;
},
{
background = {
shapes = (
{
closed = 1;
nodes = (
(310,195,o),
(192,420,o),
(74,220,c),
(120,191,l),
(200,305,o),
(319,80,o),
(436,280,c),
(390,309,l)
);
}
);
};
layerId = m007;
shapes = (
{
closed = 1;
nodes = (
(367,123,o),
(181,440,o),
(50,216,c),
(71,205,l),
(183,377,o),
(369,60,o),
(500,284,c),
(479,295,l)
);
}
);
width = 550;
},
{
background = {
shapes = (
{
closed = 1;
nodes = (
(310,195,o),
(192,420,o),
(74,220,c),
(120,191,l),
(200,305,o),
(319,80,o),
(436,280,c),
(390,309,l)
);
}
);
};
layerId = m008;
shapes = (
{
closed = 1;
nodes = (
(330,178,o),
(201,480,o),
(50,216,c),
(101,185,l),
(210,322,o),
(339,20,o),
(500,284,c),
(449,315,l)
);
}
);
width = 550;
},
{
background = {
shapes = (
{
closed = 1;
nodes = (
(310,195,o),
(192,420,o),
(74,220,c),
(120,191,l),
(200,305,o),
(319,80,o),
(436,280,c),
(390,309,l)
);
}
);
};
layerId = m009;
shapes = (
{
closed = 1;
nodes = (
(330,178,o),
(201,480,o),
(50,216,c),
(101,185,l),
(210,322,o),
(339,20,o),
(500,284,c),
(449,315,l)
);
}
);
width = 550;
}
);
unicode = 126;
}
{
glyphname = cent;
layers = (
{
layerId = m002;
shapes = (
{
closed = 1;
nodes = (
(314,140,o),
(361,160,o),
(449,220,c),
(429,260,l),
(253,155,o),
(138,256,o),
(138,361,cs),
(138,557,o),
(295,518,o),
(416,480,c),
(428,564,l),
(394,575,o),
(359,580,o),
(326,580,cs),
(192,580,o),
(55,489,o),
(55,333,cs),
(55,230,o),
(145,140,o),
(264,140,cs)
);
},
{
closed = 1;
nodes = (
(297,531,l),
(297,700,l),
(227,700,l),
(227,531,l)
);
},
{
closed = 1;
nodes = (
(227,190,l),
(227,0,l),
(297,0,l),
(297,190,l)
);
}
);
width = 494;
},
{
layerId = m003;
shapes = (
{
closed = 1;
nodes = (
(282,140,o),
(331,160,o),
(428,220,c),
(414,260,l),
(223,155,o),
(119,256,o),
(137,361,cs),
(164,517,o),
(316,518,o),
(431,480,c),
(455,564,l),
(423,575,o),
(389,580,o),
(356,580,cs),
(222,580,o),
(72,489,o),
(50,333,cs),
(35,230,o),
(113,140,o),
(232,140,cs)
);
},
{
closed = 1;
nodes = (
(320,533,l),
(343,700,l),
(273,700,l),
(250,533,l)
);
},
{
closed = 1;
nodes = (
(201,186,l),
(175,0,l),
(245,0,l),
(271,186,l)
);
}
);
width = 446;
},
{
layerId = m006;
shapes = (
{
closed = 1;
nodes = (
(294,140,o),
(341,150,o),
(426,202,c),
(417,225,l),
(231,110,o),
(93,206,o),
(93,361,cs),
(93,507,o),
(245,590,o),
(386,532,c),
(398,570,l),
(368,580,o),
(338,585,o),
(309,585,cs),
(171,585,o),
(55,475,o),
(55,333,cs),
(55,230,o),
(145,140,o),
(244,140,cs)
);
},
{
closed = 1;
nodes = (
(272,563,l),
(272,700,l),
(237,700,l),
(237,563,l)
);
},
{
closed = 1;
nodes = (
(237,159,l),
(237,0,l),
(272,0,l),
(272,159,l)
);
}
);
width = 471;
},
{
layerId = m007;
shapes = (
{
closed = 1;
nodes = (
(248,140,o),
(296,150,o),
(388,202,c),
(383,225,l),
(181,110,o),
(57,216,o),
(78,361,cs),
(98,507,o),
(262,590,o),
(395,532,c),
(412,570,l),
(384,580,o),
(354,585,o),
(325,585,cs),
(187,585,o),
(56,475,o),
(37,343,cs),
(21,230,o),
(119,140,o),
(208,140,cs)
);
},
{
closed = 1;
nodes = (
(297,563,l),
(327,700,l),
(292,700,l),
(262,563,l)
);
},
{
closed = 1;
nodes = (
(182,159,l),
(152,0,l),
(187,0,l),
(217,159,l)
);
}
);
width = 432;
},
{
background = {
shapes = (
{
closed = 1;
nodes = (
(304,140,o),
(351,160,o),
(439,220,c),
(419,260,l),
(243,155,o),
(128,256,o),
(128,361,cs),
(128,557,o),
(285,518,o),
(406,480,c),
(418,564,l),
(384,575,o),
(349,580,o),
(316,580,cs),
(182,580,o),
(45,489,o),
(45,333,cs),
(45,230,o),
(135,140,o),
(254,140,cs)
);
}
);
};
layerId = m008;
shapes = (
{
closed = 1;
nodes = (
(304,137,o),
(371,154,o),
(459,209,c),
(429,281,l),
(263,184,o),
(148,261,o),
(148,366,cs),
(148,512,o),
(305,495,o),
(426,461,c),
(438,554,l),
(404,567,o),
(349,575,o),
(316,577,cs),
(182,584,o),
(45,500,o),
(45,344,cs),
(45,241,o),
(135,146,o),
(254,140,cs)
);
},
{
closed = 1;
nodes = (
(327,522,l),
(337,700,l),
(227,700,l),
(227,522,l)
);
},
{
closed = 1;
nodes = (
(227,207,l),
(217,0,l),
(327,0,l),
(327,207,l)
);
}
);
width = 504;
},
{
background = {
shapes = (
{
closed = 1;
nodes = (
(304,140,o),
(351,160,o),
(439,220,c),
(419,260,l),
(243,155,o),
(128,256,o),
(128,361,cs),
(128,557,o),
(285,518,o),
(406,480,c),
(418,564,l),
(384,575,o),
(349,580,o),
(316,580,cs),
(182,580,o),
(45,489,o),
(45,333,cs),
(45,230,o),
(135,140,o),
(254,140,cs)
);
}
);
};
layerId = m009;
shapes = (
{
closed = 1;
nodes = (
(288,137,o),
(357,154,o),
(453,209,c),
(433,281,l),
(254,184,o),
(150,261,o),
(164,366,cs),
(185,512,o),
(339,495,o),
(456,461,c),
(481,554,l),
(449,567,o),
(395,575,o),
(362,577,cs),
(229,584,o),
(80,500,o),
(58,344,cs),
(44,241,o),
(120,146,o),
(239,140,cs)
);
},
{
closed = 1;
nodes = (
(365,522,l),
(400,700,l),
(290,700,l),
(265,522,l)
);
},
{
closed = 1;
nodes = (
(221,207,l),
(182,0,l),
(292,0,l),
(321,207,l)
);
}
);
width = 504;
}
);
metricLeft = "=c";
metricRight = "=c";
unicode = 162;
}
{
glyphname = sterling;
layers = (
{
background = {
shapes = (
{
closed = 1;
nodes = (
(538,666,l),
(481,697,o),
(426,709,o),
(377,709,cs),
(210,709,o),
(125,567,o),
(125,460,c),
(214,484,l),
(214,538,o),
(208,628,o),
(345,628,cs),
(401,628,o),
(470,604,o),
(518,574,c)
);
}
);
};
layerId = m002;
shapes = (
{
closed = 1;
nodes = (
(146,36,l),
(296,159,o),
(204,381,o),
(204,518,cs),
(204,650,o),
(362,676,o),
(499,582,c),
(547,648,l),
(387,778,o),
(131,698,o),
(131,488,cs),
(131,355,o),
(225,144,o),
(80,60,c)
);
},
{
closed = 1;
nodes = (
(560,0,l),
(560,80,l),
(80,60,l),
(90,0,l)
);
},
{
closed = 1;
nodes = (
(400,365,l),
(190,360,l),
(60,365,l),
(60,295,l),
(190,300,l),
(400,295,l)
);
}
);
width = 600;
},
{
background = {
shapes = (
{
closed = 1;
nodes = (
(538,666,l),
(481,697,o),
(426,709,o),
(377,709,cs),
(210,709,o),
(125,567,o),
(125,460,c),
(214,484,l),
(214,538,o),
(208,628,o),
(345,628,cs),
(401,628,o),
(470,604,o),
(518,574,c)
);
}
);
};
layerId = m003;
shapes = (
{
closed = 1;
nodes = (
(102,36,l),
(269,159,o),
(208,381,o),
(228,518,cs),
(246,650,o),
(408,676,o),
(532,582,c),
(589,648,l),
(447,778,o),
(180,698,o),
(150,488,cs),
(132,355,o),
(196,144,o),
(39,60,c)
);
},
{
closed = 1;
nodes = (
(511,0,l),
(522,80,l),
(39,60,l),
(41,0,l)
);
},
{
closed = 1;
nodes = (
(402,365,l),
(191,360,l),
(62,365,l),
(52,295,l),
(183,300,l),
(392,295,l)
);
}
);
width = 600;
},
{
background = {
shapes = (
{
closed = 1;
nodes = (
(538,666,l),
(481,697,o),
(426,709,o),
(377,709,cs),
(210,709,o),
(125,567,o),
(125,460,c),
(214,484,l),
(214,538,o),
(208,628,o),
(345,628,cs),
(401,628,o),
(470,604,o),
(518,574,c)
);
}
);
};
layerId = m006;
shapes = (
{
closed = 1;
nodes = (
(106,6,l),
(256,109,o),
(167,381,o),
(167,518,cs),
(167,650,o),
(332,746,o),
(529,622,c),
(547,648,l),
(387,778,o),
(131,698,o),
(131,488,cs),
(131,355,o),
(225,109,o),
(80,25,c)
);
},
{
closed = 1;
nodes = (
(560,0,l),
(560,40,l),
(80,25,l),
(85,0,l)
);
},
{
closed = 1;
nodes = (
(360,378,l),
(160,375,l),
(40,378,l),
(40,347,l),
(160,350,l),
(360,347,l)
);
}
);
width = 600;
},
{
background = {
shapes = (
{
closed = 1;
nodes = (
(538,666,l),
(481,697,o),
(426,709,o),
(377,709,cs),
(210,709,o),
(125,567,o),
(125,460,c),
(214,484,l),
(214,538,o),
(208,628,o),
(345,628,cs),
(401,628,o),
(470,604,o),
(518,574,c)
);
}
);
};
layerId = m007;
shapes = (
{
closed = 1;
nodes = (
(57,6,l),
(221,109,o),
(171,381,o),
(190,518,cs),
(208,650,o),
(387,746,o),
(566,622,c),
(588,648,l),
(446,778,o),
(179,698,o),
(150,488,cs),
(131,355,o),
(190,109,o),
(34,25,c)
);
},
{
closed = 1;
nodes = (
(510,0,l),
(516,40,l),
(34,25,l),
(35,0,l)
);
},
{
closed = 1;
nodes = (
(363,378,l),
(163,375,l),
(43,378,l),
(39,347,l),
(159,350,l),
(359,347,l)
);
}
);
width = 600;
},
{
background = {
shapes = (
{
closed = 1;
nodes = (
(538,666,l),
(481,697,o),
(426,709,o),
(377,709,cs),
(210,709,o),
(125,567,o),
(125,460,c),
(214,484,l),
(214,538,o),
(208,628,o),
(345,628,cs),
(401,628,o),
(470,604,o),
(518,574,c)
);
}
);
};
layerId = m008;
shapes = (
{
closed = 1;
nodes = (
(166,56,l),
(316,179,o),
(224,361,o),
(224,498,cs),
(224,630,o),
(362,656,o),
(499,562,c),
(547,648,l),
(387,778,o),
(131,698,o),
(131,488,cs),
(131,355,o),
(225,164,o),
(80,80,c)
);
},
{
closed = 1;
nodes = (
(560,0,l),
(560,100,l),
(80,80,l),
(90,0,l)
);
},
{
closed = 1;
nodes = (
(400,385,l),
(190,380,l),
(60,385,l),
(60,295,l),
(190,300,l),
(400,295,l)
);
}
);
width = 600;
},
{
background = {
shapes = (
{
closed = 1;
nodes = (
(538,666,l),
(481,697,o),
(426,709,o),
(377,709,cs),
(210,709,o),
(125,567,o),
(125,460,c),
(214,484,l),
(214,538,o),
(208,628,o),
(345,628,cs),
(401,628,o),
(470,604,o),
(518,574,c)
);
}
);
};
layerId = m009;
shapes = (
{
closed = 1;
nodes = (
(139,56,l),
(306,179,o),
(240,361,o),
(259,498,cs),
(277,630,o),
(419,656,o),
(543,562,c),
(603,648,l),
(461,778,o),
(194,698,o),
(164,488,cs),
(146,355,o),
(213,164,o),
(56,80,c)
);
},
{
closed = 1;
nodes = (
(525,0,l),
(539,100,l),
(56,80,l),
(55,0,l)
);
},
{
closed = 1;
nodes = (
(419,385,l),
(208,380,l),
(79,385,l),
(66,295,l),
(197,300,l),
(406,295,l)
);
}
);
width = 600;
}
);
unicode = 163;
}
{
glyphname = yen;
layers = (
{
layerId = m002;
shapes = (
{
closed = 1;
nodes = (
(506,340,l),
(286,335,l),
(66,340,l),
(66,275,l),
(506,275,l)
);
},
{
closed = 1;
nodes = (
(506,215,l),
(66,215,l),
(66,150,l),
(286,155,l),
(506,150,l)
);
},
{
ref = Y;
}
);
width = 600;
},
{
layerId = m003;
shapes = (
{
closed = 1;
nodes = (
(506,340,l),
(286,335,l),
(66,340,l),
(66,275,l),
(506,275,l)
);
},
{
closed = 1;
nodes = (
(486,215,l),
(46,215,l),
(46,150,l),
(266,155,l),
(486,150,l)
);
},
{
ref = Y;
}
);
width = 600;
},
{
layerId = m006;
shapes = (
{
closed = 1;
nodes = (
(506,290,l),
(286,285,l),
(66,290,l),
(66,255,l),
(506,255,l)
);
},
{
closed = 1;
nodes = (
(506,185,l),
(66,185,l),
(66,150,l),
(286,155,l),
(506,150,l)
);
},
{
ref = Y;
}
);
width = 600;
},
{
layerId = m007;
shapes = (
{
closed = 1;
nodes = (
(506,290,l),
(286,285,l),
(66,290,l),
(66,255,l),
(506,255,l)
);
},
{
closed = 1;
nodes = (
(486,185,l),
(46,185,l),
(46,150,l),
(266,155,l),
(486,150,l)
);
},
{
ref = Y;
}
);
width = 600;
},
{
layerId = m008;
shapes = (
{
closed = 1;
nodes = (
(546,340,l),
(326,335,l),
(106,340,l),
(106,255,l),
(546,255,l)
);
},
{
closed = 1;
nodes = (
(546,205,l),
(106,205,l),
(106,120,l),
(326,125,l),
(546,120,l)
);
},
{
ref = Y;
}
);
width = 600;
},
{
layerId = m009;
shapes = (
{
closed = 1;
nodes = (
(559,340,l),
(338,335,l),
(119,340,l),
(107,255,l),
(547,255,l)
);
},
{
closed = 1;
nodes = (
(540,205,l),
(100,205,l),
(88,120,l),
(308,125,l),
(528,120,l)
);
},
{
ref = Y;
}
);
width = 600;
}
);
unicode = 165;
}
{
glyphname = brokenbar;
layers = (
{
layerId = m006;
shapes = (
{
closed = 1;
nodes = (
(120,470,l),
(120,795,l),
(80,795,l),
(80,470,l)
);
},
{
closed = 1;
nodes = (
(80,280,l),
(80,-45,l),
(120,-45,l),
(120,280,l)
);
}
);
width = 200;
},
{
layerId = m007;
shapes = (
{
closed = 1;
nodes = (
(137,470,l),
(183,795,l),
(143,795,l),
(97,470,l)
);
},
{
closed = 1;
nodes = (
(70,280,l),
(24,-45,l),
(64,-45,l),
(110,280,l)
);
}
);
width = 171;
},
{
layerId = m002;
shapes = (
{
closed = 1;
nodes = (
(170,470,l),
(170,795,l),
(80,795,l),
(80,470,l)
);
},
{
closed = 1;
nodes = (
(80,280,l),
(80,-45,l),
(170,-45,l),
(170,280,l)
);
}
);
width = 250;
},
{
layerId = m003;
shapes = (
{
closed = 1;
nodes = (
(187,470,l),
(233,795,l),
(143,795,l),
(97,470,l)
);
},
{
closed = 1;
nodes = (
(70,280,l),
(24,-45,l),
(114,-45,l),
(160,280,l)
);
}
);
width = 221;
},
{
layerId = m008;
shapes = (
{
closed = 1;
nodes = (
(210,470,l),
(210,795,l),
(80,795,l),
(80,470,l)
);
},
{
closed = 1;
nodes = (
(80,280,l),
(80,-45,l),
(210,-45,l),
(210,280,l)
);
}
);
width = 290;
},
{
layerId = m009;
shapes = (
{
closed = 1;
nodes = (
(227,470,l),
(273,795,l),
(143,795,l),
(97,470,l)
);
},
{
closed = 1;
nodes = (
(70,280,l),
(24,-45,l),
(154,-45,l),
(200,280,l)
);
}
);
width = 261;
}
);
unicode = 166;
}
